<svg xmlns="http://www.w3.org/2000/svg" viewBox="0 0 32 32"><defs><style>.cls-1{fill:#7961AA;}.cls-2{fill:#7961AA;}.cls-3{fill:#7961AA;}.cls-4{fill:#fefefe;}</style></defs><title>Mortar Herbal</title><g id="Mortar_Herbal" data-name="Mortar Herbal"><path class="cls-1" d="M1,1H5a8,8,0,0,1,8,8v1a0,0,0,0,1,0,0H9A8,8,0,0,1,1,2V1A0,0,0,0,1,1,1Z"/><path class="cls-1" d="M19.44,3H23a0,0,0,0,1,0,0v.56A6.44,6.44,0,0,1,16.56,10H13a0,0,0,0,1,0,0V9.44A6.44,6.44,0,0,1,19.44,3Z"/><path class="cls-2" d="M18,22l-4-4L26.17,5.83a2.83,2.83,0,0,1,2-.83h0A2.83,2.83,0,0,1,31,7.83h0a2.83,2.83,0,0,1-.83,2Z"/><path class="cls-2" d="M31,19A10,10,0,0,1,21,29H11A10,10,0,0,1,1,19V13H31Z"/><rect class="cls-3" x="11" y="29" width="10" height="2"/><circle class="cls-4" cx="16" cy="22" r="5"/><rect class="cls-2" x="13" y="21" width="6" height="2"/><rect class="cls-2" x="13" y="21" width="6" height="2" transform="translate(38 6) rotate(90)"/><rect class="cls-3" x="1" y="13" width="30" height="2"/></g></svg>