<?xml version="1.0" ?><svg data-name="Layer 1" id="Layer_1" viewBox="0 0 64 64" xmlns="http://www.w3.org/2000/svg"><defs><style>.cls-1{fill:none;stroke:#7961AA;stroke-linecap:round;stroke-linejoin:round;stroke-width:3px;}</style></defs><title/><polygon class="cls-1" points="47.73 44.68 11 38 11 22 47.73 15.32 47.73 44.68"/><path class="cls-1" d="M17,21V46.25A4.81,4.81,0,0,0,21.1,51h2.4"/><path class="cls-1" d="M11,24h0a0,0,0,0,1,0,0V36a0,0,0,0,1,0,0h0a5,5,0,0,1-5-5V29A5,5,0,0,1,11,24Z"/><line class="cls-1" x1="54" x2="58" y1="30" y2="30"/><line class="cls-1" x1="53.44" x2="56.56" y1="25.25" y2="22.75"/><line class="cls-1" x1="56.56" x2="53.44" y1="37.25" y2="34.75"/></svg>