<?xml version="1.0" ?><svg data-name="Layer 1" id="Layer_1" viewBox="0 0 64 64" xmlns="http://www.w3.org/2000/svg"><title/><polyline points="15 39 15 61 7 61 7 39" style="fill:#7961AA"/><polyline points="57 39 57 61 49 61 49 39" style="fill:#7961AA"/><rect height="36" style="fill:#fefefe" width="58" x="3" y="3"/><path d="M20,17h4a0,0,0,0,1,0,0v8a0,0,0,0,1,0,0H20a2,2,0,0,1-2-2V19A2,2,0,0,1,20,17Z" style="fill:#7961AA"/><path d="M34,14h0a4,4,0,0,1,4,4v6a4,4,0,0,1-4,4h0" style="fill:#d3d0d7"/><path d="M24,18h0a9.656,9.656,0,0,0,6.828-2.828L34,12V30l-3.172-3.172A9.656,9.656,0,0,0,24,24h0" style="fill:#a998bc"/><path d="M61,2H3A1,1,0,0,0,2,3V39a1,1,0,0,0,1,1H6V61a1,1,0,0,0,1,1h8a1,1,0,0,0,1-1V40H48V61a1,1,0,0,0,1,1h8a1,1,0,0,0,1-1V40h3a1,1,0,0,0,1-1V3A1,1,0,0,0,61,2ZM14,60H8V40h6Zm42,0H50V40h6Zm4-22H4V4H60Z" fill="#7961AA"/><path d="M19,25.816V31a1,1,0,0,0,2,0V26h3a.994.994,0,0,0,.988-.939,8.589,8.589,0,0,1,5.134,2.475l3.171,3.171A1,1,0,0,0,35,30V28.9A5.009,5.009,0,0,0,39,24V18a5.009,5.009,0,0,0-4-4.9V12a1,1,0,0,0-1.707-.707l-3.171,3.171a8.589,8.589,0,0,1-5.134,2.475A.994.994,0,0,0,24,16H20a3,3,0,0,0-3,3v4A3,3,0,0,0,19,25.816ZM35,15.184A3,3,0,0,1,37,18v6a3,3,0,0,1-2,2.816ZM25,18.951a10.569,10.569,0,0,0,6.536-3.073L33,14.414V27.586l-1.464-1.464A10.569,10.569,0,0,0,25,23.049ZM19,19a1,1,0,0,1,1-1h3v6H20a1,1,0,0,1-1-1Z" fill="#7961AA"/><path d="M42,22h4a1,1,0,0,0,0-2H42a1,1,0,0,0,0,2Z" fill="#7961AA"/><path d="M43.293,24.464a1,1,0,0,0-1.414,1.414l2.828,2.829a1,1,0,0,0,1.414-1.414Z" fill="#7961AA"/><path d="M42.586,17.414a1,1,0,0,0,.707-.293l2.828-2.828a1,1,0,1,0-1.414-1.414l-2.828,2.828a1,1,0,0,0,.707,1.707Z" fill="#7961AA"/></svg>