<?xml version="1.0" encoding="UTF-8" standalone="no"?>
<!DOCTYPE svg PUBLIC "-//W3C//DTD SVG 1.1//EN" "http://www.w3.org/Graphics/SVG/1.1/DTD/svg11.dtd">
<svg version="1.1" xmlns="http://www.w3.org/2000/svg" xmlns:xlink="http://www.w3.org/1999/xlink" preserveAspectRatio="xMidYMid meet" viewBox="0 0 640 640" width="640" height="640"><defs><path d="M96.74 317.47C97.47 317.86 98.16 318.3 98.9 318.65C99.63 319.02 100.42 319.34 101 319.93C101.61 320.49 102.07 321.21 102.31 322C102.57 322.8 102.51 323.64 102.55 324.46C102.56 324.79 102.62 326.43 102.72 329.39L102.67 329.34L122.79 328.65L122.67 328.76C122.54 324.88 122.46 322.72 122.44 322.28C122.46 321.17 122.89 320.06 123.63 319.21C124.36 318.33 125.43 317.88 126.28 317.28C126.42 317.19 127.52 316.51 127.65 316.42C128.13 316.12 128.64 315.87 129.19 315.73C130.28 315.44 131.48 315.51 132.52 315.97C132.9 316.18 134.82 317.18 138.26 319L137.87 319.11L147.26 301.29L147.44 301.88C143.99 300.05 142.08 299.04 141.7 298.84C140.68 298.21 139.9 297.22 139.52 296.1C139.31 295.53 139.22 294.94 139.21 294.36C139.21 294.25 139.19 293.72 139.15 292.76C139.11 291.8 139.09 291.26 139.08 291.16C139.05 290.57 139.1 289.95 139.26 289.38C139.57 288.22 140.29 287.16 141.29 286.47C141.65 286.24 143.49 285.09 146.8 283.01L146.62 283.8L135.96 266.71L136.82 266.91C133.49 268.98 131.65 270.13 131.28 270.36C130.2 270.94 128.91 271.12 127.7 270.89C127.1 270.78 126.53 270.55 126 270.24C125.91 270.19 125.45 269.92 124.62 269.45C123.77 269.02 123.29 268.78 123.2 268.73C122.65 268.46 122.15 268.1 121.71 267.67C120.86 266.8 120.31 265.63 120.2 264.42C120.19 263.98 120.13 261.81 120.01 257.9L120.61 258.48L100.48 259.04L100.99 258.5C101.08 262.41 101.13 264.58 101.14 265.02C101.09 266.21 100.63 267.37 99.85 268.26C99.46 268.7 98.98 269.08 98.47 269.36C98.38 269.41 97.92 269.69 97.1 270.19C96.28 270.69 95.82 270.97 95.73 271.02C95.24 271.35 94.69 271.6 94.13 271.75C92.99 272.04 91.76 271.92 90.7 271.43C90.32 271.22 88.41 270.19 84.98 268.32L85.44 268.18L75.8 285.87L75.71 285.59C79.12 287.45 81.02 288.49 81.39 288.7C82.34 289.3 83.06 290.23 83.4 291.28C83.78 292.35 83.63 293.47 83.71 294.53C83.7 295.6 83.89 296.71 83.58 297.79C83.3 298.85 82.64 299.81 81.74 300.44C81.37 300.66 79.53 301.8 76.22 303.84L76.25 303.74L86.82 320.88L86.8 320.88L92.02 317.63C94.19 317.02 95.76 316.97 96.74 317.47ZM86.78 320.89L86.77 320.9L86.76 320.89L76.1 303.8L76.06 303.74L76.12 303.7C79.42 301.64 81.25 300.5 81.61 300.27C82.48 299.65 83.11 298.73 83.38 297.71C83.67 296.68 83.47 295.61 83.47 294.52C83.39 293.43 83.51 292.35 83.14 291.36C82.79 290.36 82.11 289.5 81.23 288.95C80.85 288.75 78.94 287.75 75.52 285.93L75.34 285.84L75.44 285.66L84.84 267.85L84.99 267.54L85.3 267.71C88.72 269.51 90.63 270.51 91.01 270.71C91.92 271.12 92.95 271.2 93.91 270.94C94.39 270.82 94.83 270.6 95.24 270.32C95.34 270.26 95.8 269.97 96.64 269.45C97.48 268.92 97.94 268.63 98.03 268.58C98.46 268.33 98.84 268.03 99.16 267.65C99.8 266.91 100.16 265.95 100.18 264.98C100.17 264.55 100.09 262.4 99.94 258.54L99.9 257.99L100.43 257.98L120.55 257.29L121.14 257.26L121.16 257.85C121.29 261.71 121.37 263.86 121.38 264.29C121.47 265.22 121.89 266.12 122.56 266.78C122.89 267.12 123.29 267.39 123.71 267.59C123.81 267.64 124.3 267.88 125.18 268.32C126.04 268.81 126.52 269.08 126.62 269.14C127.03 269.37 127.46 269.55 127.92 269.64C128.84 269.82 129.82 269.66 130.64 269.22C131 268.99 132.83 267.87 136.13 265.85L136.66 265.53L136.98 266.05L147.56 283.19L147.85 283.68L147.37 283.97C144.08 286.01 142.25 287.14 141.89 287.37C141.11 287.9 140.53 288.74 140.29 289.66C140.16 290.12 140.11 290.6 140.13 291.09C140.14 291.2 140.15 291.74 140.18 292.72C140.21 293.69 140.22 294.23 140.22 294.34C140.22 294.83 140.3 295.32 140.45 295.78C140.76 296.7 141.38 297.5 142.19 298.03C142.57 298.24 144.46 299.27 147.85 301.13L148.24 301.33L148.03 301.72L138.39 319.4L138.25 319.66L138 319.52C134.59 317.67 132.7 316.64 132.33 316.44C131.4 316 130.32 315.92 129.32 316.18C128.31 316.41 127.47 317.1 126.51 317.64C125.59 318.24 124.59 318.66 123.92 319.46C123.22 320.22 122.8 321.25 122.78 322.28C122.79 322.72 122.83 324.87 122.92 328.75L122.92 328.86L122.8 328.86L102.67 329.43L102.62 329.43L102.62 329.38C102.53 326.42 102.49 324.78 102.48 324.45C102.44 323.63 102.5 322.8 102.25 322.02C102.02 321.24 101.57 320.52 100.97 319.96C100.38 319.37 99.62 319.05 98.89 318.66C98.15 318.3 97.46 317.86 96.74 317.47C95.28 316.73 93.43 316.74 92.02 317.63C91.32 318.06 89.58 319.15 86.78 320.89Z" id="ctA01RydV"></path><path d="M104.79 278.53C108.72 276.72 113.41 276.38 117.55 277.92C121.68 279.42 125.31 282.53 127.13 286.62C129.01 290.67 129.2 295.47 127.64 299.69C125.98 303.84 122.74 307.4 118.62 309.15C114.52 310.92 109.75 311.02 105.66 309.34C103.64 308.5 101.75 307.32 100.17 305.8C98.6 304.29 97.36 302.44 96.5 300.45C94.72 296.49 94.6 291.83 96.18 287.8C97.73 283.78 100.81 280.3 104.79 278.53ZM96.68 300.37C98.44 304.31 101.94 307.3 105.91 308.74C109.9 310.21 114.39 309.89 118.18 308.15C122.02 306.45 124.97 303.1 126.46 299.23C127.96 295.37 127.86 290.89 126.16 287.07C124.56 283.19 121.27 280.11 117.35 278.51C113.42 276.9 108.84 277 104.9 278.69C100.9 280.39 97.78 283.81 96.18 287.8C94.67 291.86 94.86 296.48 96.68 300.37Z" id="dgRMhUh8c"></path><path d="M555.47 290.52C553.23 291.81 551.98 292.53 551.73 292.68C550.63 293.32 549.27 293.25 548.21 292.56C547.62 292.18 547.01 291.83 546.38 291.51C545.25 290.94 544.52 289.8 544.52 288.53C544.52 288.24 544.52 286.81 544.52 284.22L530.41 284.22C530.41 286.81 530.41 288.24 530.41 288.53C530.41 289.8 529.68 290.94 528.55 291.51C527.92 291.83 527.31 292.19 526.72 292.56C525.66 293.25 524.3 293.32 523.2 292.68C522.95 292.53 521.7 291.81 519.46 290.52L512.41 302.74C514.66 304.04 515.91 304.76 516.16 304.9C517.26 305.54 517.86 306.75 517.8 308.01C517.78 308.36 517.77 308.7 517.77 309.05C517.77 309.4 517.78 309.74 517.8 310.09C517.86 311.35 517.26 312.56 516.16 313.18C515.91 313.33 514.65 314.05 512.4 315.36L519.45 327.58C521.7 326.29 522.95 325.57 523.2 325.42C524.3 324.78 525.66 324.84 526.72 325.55C527.31 325.93 527.91 326.28 528.54 326.6C529.66 327.17 530.39 328.31 530.39 329.58C530.39 329.87 530.39 331.31 530.39 333.89L544.51 333.89C544.51 331.31 544.51 329.87 544.51 329.58C544.51 328.31 545.24 327.17 546.37 326.6C546.99 326.28 547.6 325.93 548.18 325.55C549.25 324.86 550.6 324.79 551.7 325.42C551.95 325.57 553.2 326.29 555.46 327.58L562.51 315.36C560.26 314.06 559.01 313.34 558.76 313.2C557.66 312.57 557.06 311.35 557.12 310.1C557.13 309.75 557.14 309.41 557.14 309.05C557.14 308.7 557.13 308.36 557.12 308.01C557.06 306.75 557.66 305.53 558.76 304.9C559.01 304.76 560.26 304.04 562.52 302.74L555.47 290.52ZM537.48 320.6C531.1 320.6 525.93 315.42 525.93 309.05C525.93 302.66 531.11 297.49 537.48 297.49C543.86 297.49 549.03 302.66 549.03 309.05C549.03 315.44 543.86 320.6 537.48 320.6Z" id="cWB9gQvdD"></path><path d="M187.61 182.1C185.37 183.4 184.12 184.12 183.87 184.26C182.77 184.9 181.41 184.84 180.35 184.15C179.76 183.76 179.15 183.42 178.52 183.1C177.39 182.52 176.66 181.38 176.66 180.12C176.66 179.83 176.66 178.39 176.66 175.8L162.55 175.8C162.55 178.39 162.55 179.83 162.55 180.12C162.55 181.38 161.82 182.52 160.69 183.1C160.06 183.42 159.45 183.78 158.86 184.15C157.8 184.84 156.44 184.9 155.34 184.26C155.09 184.12 153.84 183.4 151.6 182.1L144.55 194.32C146.8 195.62 148.05 196.34 148.3 196.49C149.4 197.13 150 198.33 149.94 199.6C149.93 199.94 149.91 200.29 149.91 200.63C149.91 200.98 149.93 201.32 149.94 201.67C150 202.94 149.4 204.14 148.3 204.77C148.05 204.91 146.79 205.64 144.54 206.94L151.59 219.17C153.84 217.87 155.09 217.15 155.34 217C156.44 216.36 157.8 216.43 158.86 217.13C159.45 217.52 160.05 217.86 160.68 218.18C161.8 218.76 162.53 219.9 162.53 221.16C162.53 221.45 162.53 222.89 162.53 225.48L176.65 225.48C176.65 222.89 176.65 221.45 176.65 221.16C176.65 219.9 177.38 218.76 178.51 218.18C179.14 217.86 179.74 217.52 180.33 217.13C181.39 216.44 182.74 216.38 183.85 217C184.1 217.15 185.35 217.87 187.6 219.17L194.65 206.94C192.4 205.65 191.15 204.93 190.9 204.78C189.8 204.15 189.2 202.94 189.26 201.68C189.27 201.34 189.29 200.99 189.29 200.63C189.29 200.29 189.27 199.94 189.26 199.6C189.2 198.33 189.8 197.11 190.9 196.49C191.15 196.34 192.4 195.62 194.66 194.32L187.61 182.1ZM169.62 212.19C163.24 212.19 158.07 207.02 158.07 200.65C158.07 194.26 163.25 189.09 169.62 189.09C176 189.08 181.17 194.26 181.17 200.65C181.17 207.03 176 212.19 169.62 212.19Z" id="a1eqevFPGS"></path><path d="M372.76 99.01C372.76 99.01 384.98 65.61 403.81 65.61C422.63 65.61 428.53 88.66 428.53 88.66C428.53 88.66 441.23 76.13 451.66 76.13C462.09 76.13 471.17 92.68 471.17 92.68C471.17 92.68 485.9 83.8 496.1 99.01C471.43 99.01 385.09 99.01 372.76 99.01Z" id="j6krVscfc9"></path><path d="M174.66 299.28C174.66 299.28 186.88 265.88 205.71 265.88C224.52 265.88 230.42 288.93 230.42 288.93C230.42 288.93 243.12 276.4 253.55 276.4C263.99 276.4 273.06 292.95 273.06 292.95C273.06 292.95 287.78 284.06 298 299.28C273.33 299.28 186.99 299.28 174.66 299.28Z" id="a2epyW4MI"></path><path d="M514.12 209.98C514.12 209.98 527 191.32 537.15 191.32C547.3 191.32 550.3 203.76 550.3 203.76C550.3 203.76 557.45 197.95 564.1 198.98C570.73 200.02 571.76 209.98 571.76 209.98C560.23 209.98 519.89 209.98 514.12 209.98Z" id="b1h4QOAl4w"></path><path d="M354.16 244.65C354.16 244.65 367.04 225.99 377.19 225.99C387.34 225.99 390.34 238.43 390.34 238.43C390.34 238.43 397.49 232.62 404.13 233.66C410.76 234.71 411.8 244.65 411.8 244.65C400.27 244.65 359.93 244.65 354.16 244.65Z" id="b5beMDMPc8"></path><path d="M45.78 244.29C45.78 244.29 61.16 209.96 77.61 207.83C94.05 205.68 101.93 233.34 101.93 233.34C101.93 233.34 112.54 223.56 120.88 223.56C129.23 223.56 135.67 236.44 135.67 236.44C135.67 236.44 152.33 227.6 158.05 244.29C135.6 244.29 57.01 244.29 45.78 244.29Z" id="cn644PC6a"></path><path d="M160.49 152.61C160.49 152.61 173.52 127.74 187.65 127.38C201.78 127.02 209.22 146.2 209.22 146.2C209.22 146.2 231.18 128.56 236.33 152.61C221.16 152.61 168.07 152.61 160.49 152.61Z" id="b1C1tj2yjS"></path><path d="M177.09 477.34C177.09 477.34 177.09 477.34 177.09 477.34C177.09 535.19 177.09 567.33 177.09 573.75C177.09 573.75 177.09 573.75 177.09 573.75C118.86 573.75 86.51 573.75 80.04 573.75C80.04 573.75 80.04 573.75 80.04 573.75C80.04 515.91 80.04 483.77 80.04 477.34C80.04 477.34 80.04 477.34 80.04 477.34C138.27 477.34 170.62 477.34 177.09 477.34Z" id="c3YO8kjn6P"></path><path d="M108.63 477.34C108.63 477.34 108.63 477.34 108.63 477.34C108.63 535.19 108.63 567.33 108.63 573.75C108.63 573.75 108.63 573.75 108.63 573.75C91.48 573.75 81.94 573.75 80.04 573.75C80.04 573.75 80.04 573.75 80.04 573.75C80.04 515.91 80.04 483.77 80.04 477.34C80.04 477.34 80.04 477.34 80.04 477.34C97.19 477.34 106.73 477.34 108.63 477.34Z" id="j1cJtkJa41"></path><path d="M303.05 432.99C303.05 432.99 303.05 432.99 303.05 432.99C303.05 517.45 303.05 564.37 303.05 573.75C303.05 573.75 303.05 573.75 303.05 573.75C244.82 573.75 212.47 573.75 206 573.75C206 573.75 206 573.75 206 573.75C206 489.3 206 442.38 206 432.99C206 432.99 206 432.99 206 432.99C264.23 432.99 296.58 432.99 303.05 432.99Z" id="aaHoHwDT8"></path><path d="M234.6 432.99C234.6 432.99 234.6 432.99 234.6 432.99C234.6 517.45 234.6 564.37 234.6 573.75C234.6 573.75 234.6 573.75 234.6 573.75C217.44 573.75 207.91 573.75 206 573.75C206 573.75 206 573.75 206 573.75C206 489.3 206 442.38 206 432.99C206 432.99 206 432.99 206 432.99C223.16 432.99 232.69 432.99 234.6 432.99Z" id="a1SpDHiR6B"></path><path d="M426.7 389.92C426.7 389.92 426.7 389.92 426.7 389.92C426.7 500.98 426.7 562.69 426.7 575.03C426.7 575.03 426.7 575.03 426.7 575.03C368.47 575.03 336.12 575.03 329.65 575.03C329.65 575.03 329.65 575.03 329.65 575.03C329.65 463.96 329.65 402.26 329.65 389.92C329.65 389.92 329.65 389.92 329.65 389.92C387.88 389.92 420.23 389.92 426.7 389.92Z" id="dGhJzLoAK"></path><path d="M360.55 388.63C360.55 388.63 360.55 388.63 360.55 388.63C360.55 499.7 360.55 561.4 360.55 573.74C360.55 573.74 360.55 573.74 360.55 573.74C343.39 573.74 333.86 573.74 331.95 573.74C331.95 573.74 331.95 573.74 331.95 573.74C331.95 462.67 331.95 400.97 331.95 388.63C331.95 388.63 331.95 388.63 331.95 388.63C349.11 388.63 358.64 388.63 360.55 388.63Z" id="bniHkpSRC"></path><path d="M554.97 344.28C554.97 344.28 554.97 344.28 554.97 344.28C554.97 481.96 554.97 558.46 554.97 573.75C554.97 573.75 554.97 573.75 554.97 573.75C496.74 573.75 464.39 573.75 457.92 573.75C457.92 573.75 457.92 573.75 457.92 573.75C457.92 436.07 457.92 359.57 457.92 344.28C457.92 344.28 457.92 344.28 457.92 344.28C516.15 344.28 548.5 344.28 554.97 344.28Z" id="a48ghfy4Dy"></path><path d="M486.51 344.28C486.51 344.28 486.51 344.28 486.51 344.28C486.51 481.96 486.51 558.46 486.51 573.75C486.51 573.75 486.51 573.75 486.51 573.75C469.36 573.75 459.83 573.75 457.92 573.75C457.92 573.75 457.92 573.75 457.92 573.75C457.92 436.07 457.92 359.57 457.92 344.28C457.92 344.28 457.92 344.28 457.92 344.28C475.08 344.28 484.61 344.28 486.51 344.28Z" id="eL47vLiqn"></path><path d="M87.55 353.41C90.16 353.32 92.79 353.25 95.41 353.12C100.66 352.9 105.93 352.6 111.21 352.24C121.75 351.56 132.3 350.57 142.83 349.46C163.9 347.17 184.93 344.13 205.84 340.33C226.74 336.53 247.5 331.95 268.08 326.6C288.64 321.17 308.98 314.9 329.02 307.8C349.12 300.78 368.75 292.5 388.03 283.48C407.37 274.53 426.01 264.15 444.16 252.95C445.06 252.37 449.56 249.51 457.65 244.35C465.51 238.82 469.87 235.76 470.74 235.14C475.19 232.16 479.35 228.82 483.57 225.56C483.99 225.23 486.1 223.59 489.91 220.64L493.08 218.18L496.13 215.57C503.43 209.3 507.49 205.81 508.3 205.11C510.37 203.41 512.24 201.5 514.19 199.67C514.57 199.3 516.51 197.46 519.99 194.13C523.47 190.8 525.41 188.95 525.8 188.58C527.72 186.71 529.48 184.7 531.34 182.75C532.07 181.97 535.74 178.06 542.34 171.01L543.06 171.63C536.8 179 533.32 183.1 532.62 183.92C530.85 185.95 529.18 188.06 527.33 190.02C526.96 190.41 525.11 192.36 521.77 195.87C518.42 199.39 516.57 201.34 516.2 201.73C514.33 203.67 512.54 205.69 510.53 207.49C509.74 208.24 505.83 211.94 498.78 218.62L495.83 221.4L492.76 224.02C489.07 227.18 487.01 228.93 486.6 229.28C482.5 232.79 478.45 236.36 474.11 239.58C473.26 240.25 468.99 243.56 461.3 249.52C453.36 255.14 448.95 258.26 448.06 258.89C430.23 271.11 411.8 282.55 392.6 292.58C373.45 302.69 353.87 312.07 333.77 320.19C313.7 328.39 293.3 335.78 272.6 342.32C251.89 348.77 230.92 354.45 209.77 359.37C188.61 364.28 167.27 368.42 145.77 371.8C135.01 373.45 124.24 374.98 113.38 376.2C107.97 376.83 102.53 377.4 97.07 377.9C94.35 378.17 91.61 378.37 88.86 378.6C86.07 378.81 83.42 379 80.42 379.16C80.39 377.45 80.21 368.91 79.9 353.54C83.28 353.5 85.84 353.46 87.55 353.41Z" id="c3HQKt7wqi"></path><path d="M540.04 174.46L527.17 170.8L555.11 155.81L546.33 186.28L540.04 174.46Z" id="f2PEHKE2nX"></path><path d="M496.87 337.03C496.87 337.03 495.45 332.9 500.76 316.99C506.07 301.08 509.31 286.02 502.23 270.39C495.15 254.76 490.53 235.36 498.19 215.76C506.82 193.64 509.21 193.96 497.97 162.49C496.98 159.74 497.92 159.62 499.29 161.39C500.67 163.16 508.93 183.99 509.9 189.69C509.9 189.69 517.96 176.33 520.91 176.12C523.85 175.93 522.84 176.45 520.91 178.68C507.08 194.64 499.48 220.55 499.08 233.32C498.69 246.1 505.37 259.86 505.37 259.86C505.37 259.86 514.41 246.1 520.31 240.4C526.21 234.71 530.14 226.05 526.99 218.39C523.84 210.72 536.88 222.12 528.1 234.71C528.1 234.71 541.34 232.15 544.49 237.46C547.63 242.77 535.83 231.17 524.24 241.59C512.64 252.01 509.09 264.39 509.09 264.39C509.09 264.39 520.38 290.11 516.76 304.49C510.89 327.89 515.2 337.03 515.2 337.03C511.53 337.03 498.7 337.03 496.87 337.03Z" id="a19Nd7CJw"></path><path d="M496.87 337.03C496.87 337.03 495.45 332.9 500.76 316.99C506.07 301.08 509.31 286.02 502.23 270.39C495.15 254.76 490.53 235.36 498.19 215.76C506.82 193.64 509.21 193.96 497.97 162.49C496.98 159.74 497.92 159.62 499.29 161.39C500.67 163.16 508.93 183.99 509.9 189.69C509.9 189.69 517.96 176.33 520.91 176.12C523.85 175.93 522.84 176.45 520.91 178.68C507.08 194.64 499.48 220.55 499.08 233.32C498.69 246.1 505.37 259.86 505.37 259.86C505.37 259.86 514.41 246.1 520.31 240.4C526.21 234.71 530.14 226.05 526.99 218.39C523.84 210.72 536.88 222.12 528.1 234.71C528.1 234.71 541.34 232.15 544.49 237.46C547.63 242.77 535.83 231.17 524.24 241.59C512.64 252.01 509.09 264.39 509.09 264.39C509.09 264.39 520.38 290.11 516.76 304.49C510.89 327.89 515.2 337.03 515.2 337.03C511.53 337.03 498.7 337.03 496.87 337.03Z" id="b2kwhHob7c"></path><path d="M536.98 272.75C536.98 272.76 520.22 275.83 511.62 261.19C516.69 263.5 528.06 256.65 536.98 272.75Z" id="f1r05H4Ash"></path><path d="M498.55 178.91C498.55 178.9 482.83 185.53 471.27 173.1C476.72 174.26 486.35 165.1 498.55 178.91Z" id="j69f7I5t4g"></path><path d="M534.96 254.71C534.96 254.71 526.07 262.44 515.8 256.76C519.63 256.35 523.99 248.28 534.96 254.71Z" id="c2QmiTSGc7"></path><path d="M522.29 161.02C522.29 161.02 519.97 172.58 508.38 174.34C511.16 171.68 509.67 162.62 522.29 161.02Z" id="aazmmSBkK"></path><path d="M492.1 223.57C492.1 223.57 480.4 224.95 475.1 214.5C478.5 216.31 486.64 212.08 492.1 223.57Z" id="bjnrUU0v4"></path><path d="M486.19 306.66L489.38 344.28L523.51 344.28L526.69 306.66L527.73 294.32L485.16 294.32L486.19 306.66Z" id="b3vYOfevF"></path><path d="M486.19 306.66L526.69 306.66L527.73 294.32L485.16 294.32L486.19 306.66Z" id="d7574is9Z0"></path><path d="M481.81 301.21C481.81 301.21 481.81 301.21 481.81 301.21C481.81 294.1 481.81 290.16 481.81 289.37C481.81 289.37 481.81 289.37 481.81 289.37C511.38 289.37 527.8 289.37 531.09 289.37C531.09 289.37 531.09 289.37 531.09 289.37C531.09 296.47 531.09 300.42 531.09 301.21C531.09 301.21 531.09 301.21 531.09 301.21C501.52 301.21 485.09 301.21 481.81 301.21Z" id="eXWUn0dW5"></path><path d="M391.51 378.07C391.51 378.07 377.98 359.21 374.92 349.1C370.39 334.14 378.3 319.67 389.07 311.67C393.96 308.04 398.98 313.35 406.05 311.65C414.77 309.54 414.57 302.25 414.23 301.52C413.89 300.79 412.66 307.88 408.5 309.29C398.92 312.51 395.67 305.25 387.1 308.18C387.1 308.18 387.63 304.07 387.24 299C386.84 293.93 392.19 278.97 406.46 280.51C408.31 280.7 407.19 279.46 403.83 279.19C400.47 278.92 396.91 280.44 396.91 280.44C396.91 280.44 399.87 277.15 400.2 273C400.54 268.86 403.03 266.28 402.78 265.63C402.51 264.98 400.41 266.43 399.49 270.76C399.49 270.76 397.38 277.55 394.88 279.71C392.38 281.89 387.2 287.89 385.88 293.75C385.88 293.75 385.51 290.07 384.88 283C384.42 277.83 381.26 273.66 380.47 273.98C379.67 274.31 383.5 278.85 383.69 283.72C383.88 288.6 382.96 293.86 383.91 297.9C385.45 304.36 383.82 311.43 380.72 314.99C377.62 318.55 369.6 325.8 369.2 338.84C368.81 351.88 373.61 372.67 370.32 378.07C374.56 378.07 389.39 378.07 391.51 378.07Z" id="a36euWgWeN"></path><path d="M391.51 378.07C391.51 378.07 377.98 359.21 374.92 349.1C370.39 334.14 378.3 319.67 389.07 311.67C393.96 308.04 398.98 313.35 406.05 311.65C414.77 309.54 414.57 302.25 414.23 301.52C413.89 300.79 412.66 307.88 408.5 309.29C398.92 312.51 395.67 305.25 387.1 308.18C387.1 308.18 387.63 304.07 387.24 299C386.84 293.93 392.19 278.97 406.46 280.51C408.31 280.7 407.19 279.46 403.83 279.19C400.47 278.92 396.91 280.44 396.91 280.44C396.91 280.44 399.87 277.15 400.2 273C400.54 268.86 403.03 266.28 402.78 265.63C402.51 264.98 400.41 266.43 399.49 270.76C399.49 270.76 397.38 277.55 394.88 279.71C392.38 281.89 387.2 287.89 385.88 293.75C385.88 293.75 385.51 290.07 384.88 283C384.42 277.83 381.26 273.66 380.47 273.98C379.67 274.31 383.5 278.85 383.69 283.72C383.88 288.6 382.96 293.86 383.91 297.9C385.45 304.36 383.82 311.43 380.72 314.99C377.62 318.55 369.6 325.8 369.2 338.84C368.81 351.88 373.61 372.67 370.32 378.07C374.56 378.07 389.39 378.07 391.51 378.07Z" id="c8CxcXjWjC"></path><path d="M362.41 293.6C362.41 293.6 377.11 292.56 383.1 305.95C378.96 303.48 368.54 308.29 362.41 293.6Z" id="aErSSkkkS"></path><path d="M366.37 314.46C366.37 314.46 372.54 306.36 382.22 309.36C379.05 310.38 376.79 317.98 366.37 314.46Z" id="a2ci9nAEk"></path><path d="M412.1 310.02C412.1 310.04 422.12 308.27 427.2 317.04C424.18 315.63 417.36 319.69 412.1 310.02Z" id="a1FEAiiI1w"></path><path d="M385.46 262.96C385.46 262.94 395.35 265.35 396.49 275.42C394.29 272.93 386.41 273.91 385.46 262.96Z" id="a1dCbrzyT"></path><path d="M361.97 351.19L365.16 388.81L399.3 388.81L402.47 351.19L403.52 338.85L360.93 338.85L361.97 351.19Z" id="a14znubB6"></path><path d="M361.97 351.19L402.47 351.19L403.52 338.85L360.93 338.85L361.97 351.19Z" id="a9JwU6TD1h"></path><path d="M357.58 345.73C357.58 345.73 357.58 345.73 357.58 345.73C357.58 338.63 357.58 334.68 357.58 333.89C357.58 333.89 357.58 333.89 357.58 333.89C387.15 333.89 403.57 333.89 406.86 333.89C406.86 333.89 406.86 333.89 406.86 333.89C406.86 340.99 406.86 344.94 406.86 345.73C406.86 345.73 406.86 345.73 406.86 345.73C377.29 345.73 360.86 345.73 357.58 345.73Z" id="i2caHJSDdE"></path><path d="M256.95 419.09C256.95 419.09 245.99 403.81 243.51 395.62C239.83 383.49 246.25 371.77 254.96 365.29C258.92 362.35 262.99 366.65 268.74 365.27C275.8 363.55 275.63 357.65 275.37 357.06C275.08 356.47 274.1 362.22 270.72 363.36C262.96 365.96 260.33 360.08 253.38 362.46C253.38 362.46 253.16 359.14 253.49 355.03C254.19 346.3 261.34 339.99 261.34 339.99C261.34 339.99 263.74 337.32 264 333.96C264.27 330.59 266.29 328.52 266.09 327.98C265.87 327.44 264.17 328.62 263.42 332.14C263.42 332.14 261.72 337.63 259.69 339.4C257.66 341.16 253.45 346.03 252.39 350.78C252.39 350.78 250.73 365.11 248.22 367.99C245.71 370.87 239.21 376.76 238.89 387.32C238.54 397.87 242.43 414.71 239.77 419.09C243.2 419.09 255.23 419.09 256.95 419.09Z" id="h1wZ5ZvlGo"></path><path d="M256.95 419.09C256.95 419.09 245.99 403.81 243.51 395.62C239.83 383.49 246.25 371.77 254.96 365.29C258.92 362.35 262.99 366.65 268.74 365.27C275.8 363.55 275.63 357.65 275.37 357.06C275.08 356.47 274.1 362.22 270.72 363.36C262.96 365.96 260.33 360.08 253.38 362.46C253.38 362.46 253.16 359.14 253.49 355.03C254.19 346.3 261.34 339.99 261.34 339.99C261.34 339.99 263.74 337.32 264 333.96C264.27 330.59 266.29 328.52 266.09 327.98C265.87 327.44 264.17 328.62 263.42 332.14C263.42 332.14 261.72 337.63 259.69 339.4C257.66 341.16 253.45 346.03 252.39 350.78C252.39 350.78 250.73 365.11 248.22 367.99C245.71 370.87 239.21 376.76 238.89 387.32C238.54 397.87 242.43 414.71 239.77 419.09C243.2 419.09 255.23 419.09 256.95 419.09Z" id="awPG8SsQI"></path><path d="M237.71 344.52C237.71 344.52 247.85 345.41 250.47 355.22C247.92 353.08 240.28 355.22 237.71 344.52Z" id="b3V9W1757C"></path><path d="M275.46 358.53C275.46 358.53 279.58 349.22 289.7 349.91C286.85 351.63 286.41 359.56 275.46 358.53Z" id="a61rnOMd4"></path><path d="M257.47 313.21C257.47 313.2 266.32 318.25 264.6 328.25C263.17 325.24 255.33 323.99 257.47 313.21Z" id="a3ud0dQjZE"></path><path d="M227.21 395.37L230.4 432.99L264.52 432.99L267.71 395.37L268.75 383.03L226.18 383.03L227.21 395.37Z" id="eOE94RXUH"></path><path d="M227.21 395.37L267.71 395.37L268.75 383.03L226.18 383.03L227.21 395.37Z" id="a1uCIjBPv0"></path><path d="M222.82 389.92C222.82 389.92 222.82 389.92 222.82 389.92C222.82 382.81 222.82 378.87 222.82 378.08C222.82 378.08 222.82 378.08 222.82 378.08C252.39 378.08 268.81 378.08 272.1 378.08C272.1 378.08 272.1 378.08 272.1 378.08C272.1 385.18 272.1 389.13 272.1 389.92C272.1 389.92 272.1 389.92 272.1 389.92C242.53 389.92 226.1 389.92 222.82 389.92Z" id="cApqM6eGx"></path><path d="M136.66 447.72C136.66 447.72 128 435.65 126.04 429.18C123.14 419.59 129.33 408.92 134.6 405.59C137.91 403.5 141.45 406.29 145.98 405.19C151.56 403.83 151.44 399.17 151.22 398.71C151 398.25 150.22 402.8 147.54 403.69C141.41 405.75 139.33 401.11 133.84 402.99C133.84 402.99 134.04 395.59 128.32 392.17C127.3 391.56 130.67 395.09 131.57 399.24C132.27 402.49 131.74 405.01 129.74 407.37C127.78 409.67 122.61 414.29 122.37 422.64C122.11 430.96 125.18 444.27 123.08 447.72C125.8 447.72 135.31 447.72 136.66 447.72Z" id="a1WRa87tP2"></path><path d="M136.66 447.72C136.66 447.72 128 435.65 126.04 429.18C123.14 419.59 129.33 408.92 134.6 405.59C137.91 403.5 141.45 406.29 145.98 405.19C151.56 403.83 151.44 399.17 151.22 398.71C151 398.25 150.22 402.8 147.54 403.69C141.41 405.75 139.33 401.11 133.84 402.99C133.84 402.99 134.04 395.59 128.32 392.17C127.3 391.56 130.67 395.09 131.57 399.24C132.27 402.49 131.74 405.01 129.74 407.37C127.78 409.67 122.61 414.29 122.37 422.64C122.11 430.96 125.18 444.27 123.08 447.72C125.8 447.72 135.31 447.72 136.66 447.72Z" id="aiyR9Q723"></path><path d="M108.31 439.72L111.5 477.34L145.62 477.34L148.81 439.72L149.85 427.39L107.28 427.39L108.31 439.72Z" id="a5NQ1iESb"></path><path d="M108.31 439.72L148.81 439.72L149.85 427.39L107.28 427.39L108.31 439.72Z" id="afwWBNeMB"></path><path d="M103.92 434.28C103.92 434.28 103.92 434.28 103.92 434.28C103.92 427.17 103.92 423.23 103.92 422.44C103.92 422.44 103.92 422.44 103.92 422.44C133.49 422.44 149.91 422.44 153.2 422.44C153.2 422.44 153.2 422.44 153.2 422.44C153.2 429.54 153.2 433.49 153.2 434.28C153.2 434.28 153.2 434.28 153.2 434.28C123.63 434.28 107.2 434.28 103.92 434.28Z" id="bnLdWI3ZT"></path><path d="M116.25 573.43L183.33 573.33L317.5 573.11L451.67 573.32L518.76 573.43L585.83 573.75L518.76 574.06L451.67 574.18L317.5 574.39L183.33 574.18L116.25 574.06L49.18 573.75L116.25 573.43Z" id="a3N3rSXrVN"></path><path d="M334.89 124.23C335.06 118.19 341.02 114.16 340.81 108C340.72 105.3 339.63 102.68 338.12 100.47C337.11 99 335.87 97.75 334.68 96.43C334.51 96.21 334.36 95.98 334.19 95.76C333.17 94.36 332.16 92.91 331.4 91.33C330.53 89.52 330.16 87.58 329.96 85.59C329.57 81.8 329.43 77.95 326.78 74.94C324.57 72.43 321.38 70.97 318.18 70.19C310.94 68.42 302.31 69.7 297.51 75.91C296.65 77.01 295.99 78.21 295.51 79.52C295.51 79.52 291.3 82.59 290.02 87.52C288.91 91.87 291.8 95.43 291.53 97.59C291.3 99.5 290.12 101.14 289.36 102.87C288.56 104.34 287.77 105.81 287.21 107.37C286.42 109.56 286.5 111.9 287.04 114.13C287.53 116.14 288.37 118.1 289.75 119.66C291.08 121.16 292.85 122.03 294.74 122.6C295.21 122.75 295.65 122.86 296.11 122.99C296.13 123 296.14 123 296.15 123.01C297.75 123.9 299.48 124.55 301 125.56C302.73 126.71 303.79 128.33 304.37 130.3C304.9 132.09 305.06 133.96 305.47 135.78C305.84 137.48 306.48 139.08 307.47 140.52C309.4 143.35 312.36 145.36 315.6 146.4C319.37 147.62 323.51 147.59 327.38 146.82C330.88 146.13 334.17 144.62 336.13 141.52C337.8 138.87 338.35 135.47 337.43 132.45C336.88 130.6 335.76 129.03 334.87 127.34C333.98 125.64 333.49 123.85 333.75 121.91C334.55 115.68 340.56 110.85 338.98 104.19C338.57 102.47 337.77 100.92 336.81 99.44C338.58 101.61 339.94 104.21 340.3 107.03C340.71 110.16 339.56 112.93 338.02 115.6C336.49 118.27 334.66 121.03 334.69 124.24C334.69 124.37 334.89 124.36 334.89 124.23ZM288.86 117.63C287.45 115.09 286.68 111.84 287.15 108.96C287.4 107.53 288.01 106.21 288.63 104.9C288.64 104.86 288.66 104.83 288.68 104.8C288.42 105.71 288.26 106.64 288.18 107.59C287.92 110.61 288.55 113.68 289.91 116.38C291.12 118.82 292.93 120.92 295.19 122.41C295.15 122.4 295.12 122.39 295.08 122.37C292.43 121.53 290.24 120.1 288.86 117.63Z" id="avvzAJkgu"></path><path d="M334.12 174.87C344.87 177.32 373.57 174.05 386.6 170.2C390.42 169.06 381 139.44 376.91 140.64C371.95 142.1 343.23 148.81 342.71 148.79C341.59 148.78 324.33 125.84 320.19 119.9C312.61 109.01 306.1 111.96 308.82 125.7C313.84 150.98 326.62 173.15 334.12 174.87Z" id="a7OvnAJkf"></path><path d="M379.89 170.43C376.34 169.72 371.49 146.44 373.9 143.62C376.31 140.81 395.51 131.1 401.94 131.95C408.38 132.78 408.29 162 402.66 165.42C397.22 168.72 383.44 171.12 379.89 170.43Z" id="b1nWGUleuT"></path><path d="M464.11 156.45L473.78 162.31L466.57 145.04L464.11 156.45Z" id="eHNWbvfo0"></path><path d="M432.41 178.72L466.94 158.19L464.59 154.45L439.63 163.85L432.41 178.72Z" id="a3PW7IdIe"></path><path d="M405.18 125.08C399.41 123.78 388.16 158.04 398.76 168.76C402.15 172.2 408.92 170.89 408.92 170.89C409.45 169.35 412.11 161.66 416.88 147.82C412.92 133.51 409.02 125.93 405.18 125.08ZM405.39 129.93C409.88 130.92 414.81 149.6 414.81 149.6C414.19 151.4 409.22 165.77 408.6 167.57C408.6 167.57 403.34 168.6 400.69 165.92C392.43 157.57 400.9 128.94 405.39 129.93Z" id="bXcuIlb8X"></path><path d="M403.02 181.29L419.81 126.04L444.22 130.84L441.14 188.44L403.02 181.29Z" id="b1Dhx8f5B6"></path><path d="M416.68 121.2L448 126.71L444.22 130.84L419.81 126.04L416.68 121.2Z" id="c7ghhxnxSe"></path><path d="M475.69 144.6C476.77 146.48 471.27 147.14 471.27 147.14C472.15 146.63 474.6 142.7 475.69 144.6Z" id="b2Yh3Lydat"></path><path d="M477.17 152.47C477.91 154.52 472.38 154.23 472.38 154.23C473.34 153.88 476.4 150.42 477.17 152.47Z" id="g1WJzOGrM"></path><path d="M484.03 149.31C484.1 151.49 478.94 149.45 478.94 149.45C479.96 149.42 483.98 147.12 484.03 149.31Z" id="b343blixgt"></path><path d="M486.85 155.24C486.72 157.42 481.75 154.95 481.75 154.95C482.77 155.01 486.98 153.06 486.85 155.24Z" id="aIC0B5Sn9"></path><path d="M486.6 143.7C487.05 145.84 481.61 144.76 481.61 144.76C482.61 144.55 486.14 141.56 486.6 143.7Z" id="m4BXQYIEJe"></path><path d="M492.94 149.75C492.72 151.93 487.87 149.23 487.87 149.23C488.88 149.33 493.17 147.58 492.94 149.75Z" id="demXT5H85"></path><path d="M479.27 164.46C478.13 166.33 474.93 161.79 474.93 161.79C475.8 162.32 480.42 162.6 479.27 164.46Z" id="b1Y1ktzu1z"></path><path d="M488.83 175.6C486.87 176.54 486.62 171 486.62 171C487.06 171.92 490.8 174.65 488.83 175.6Z" id="c2QAiP1bv"></path><path d="M483.42 171.6C481.68 172.91 480.36 167.52 480.36 167.52C480.97 168.34 485.17 170.28 483.42 171.6Z" id="hxhAuE4Si"></path><path d="M481.87 159.92C481.33 162.04 476.91 158.7 476.91 158.7C477.9 158.94 482.39 157.8 481.87 159.92Z" id="biyYgBdTd"></path><path d="M487.6 166.69C486.07 168.25 483.95 163.13 483.95 163.13C484.68 163.84 489.13 165.13 487.6 166.69Z" id="c838bzBrfH"></path><path d="M394.62 135.76C394.62 135.76 388.22 137.11 387.8 140.82C387.4 144.39 392.75 144.36 393.14 144.36C392.81 144.44 386.94 145.82 386.9 149.6C386.87 153.52 392.23 152.57 392.58 152.51C392.28 152.67 388.39 154.99 389 157.86C390.08 162.78 400.19 157.14 404.08 158.41C404.08 158.41 402.66 165.23 402.67 165.43C402.67 165.43 412.42 160.25 413.85 154.92C414.6 152.12 412.13 150.85 412.13 150.85C412.13 150.85 415.46 149.54 415.58 146.57C415.64 145.04 413.25 143.6 413.25 143.6C413.25 143.6 415.87 142.43 415.81 139.78C415.77 137.67 413.39 136.54 413.39 136.54C413.39 136.54 415.38 134.25 414.64 132.12C413.16 127.78 395.12 126.23 391.77 132.64C390.21 135.64 394.05 135.14 394.62 135.76Z" id="a3Mbhvcq0p"></path><path d="M413.06 136.21C407.24 134.25 400.27 133.89 394.38 135.72C394.19 135.79 394.2 136.12 394.43 136.1C400.86 135.37 406.62 135.23 413.03 136.3C413.09 136.31 413.12 136.22 413.06 136.21Z" id="e1mRr8RZzf"></path><path d="M413.35 143.43C407.36 141.45 399.49 141.25 392.95 144.16C392.72 144.26 392.63 144.57 392.88 144.48C397.39 142.88 407.56 142.56 413.34 143.56C413.4 143.57 413.43 143.46 413.35 143.43Z" id="exBLLmmi7"></path><path d="M411.86 150.75C411.95 150.76 411.95 150.64 411.89 150.61C408.68 149.36 404.31 149.36 400.92 149.65C397.67 149.92 394.79 150.83 392.09 152.63C391.99 152.7 392.05 152.9 392.18 152.84C398.55 150.29 405.11 150.04 411.86 150.75Z" id="c1V1BKszs"></path><path d="M391.13 137.18C390.04 137.77 388.98 138.52 388.39 139.53C388.11 140.03 387.98 140.59 388.1 141.13C388.22 141.68 388.47 142.23 388.84 142.62C389.57 143.46 390.81 143.8 391.91 143.78C392.09 143.77 393.02 143.76 394.67 143.72C393.12 144.33 392.26 144.67 392.09 144.74C390.96 145.17 389.84 145.8 388.91 146.58C387.99 147.36 387.29 148.37 387.28 149.46C387.24 150.6 387.84 151.55 388.91 151.87C389.96 152.22 391.27 152.17 392.42 151.94C392.64 151.9 393.71 151.68 395.63 151.29C393.94 152.28 393.01 152.83 392.82 152.94C392.05 153.39 391.3 153.96 390.67 154.6C390.04 155.24 389.53 156 389.39 156.78C389.25 157.56 389.54 158.42 390.17 158.84C390.82 159.29 391.77 159.4 392.68 159.42C394.53 159.42 396.43 159.02 398.32 158.71C399.27 158.56 400.22 158.39 401.18 158.28C402.12 158.18 403.12 158.07 404.06 158.38C403.11 158.16 402.15 158.38 401.23 158.55C400.29 158.74 399.36 158.97 398.44 159.2C396.57 159.66 394.7 160.11 392.72 160.21C391.73 160.24 390.67 160.22 389.68 159.62C388.67 159 388.24 157.74 388.42 156.64C388.59 155.51 389.25 154.63 389.93 153.89C390.64 153.15 391.41 152.54 392.29 152.01C392.33 152.11 392.65 152.92 392.69 153.02C391.33 153.3 389.96 153.41 388.54 152.98C387.85 152.76 387.15 152.29 386.73 151.62C386.3 150.94 386.15 150.19 386.18 149.45C386.23 147.9 387.2 146.64 388.24 145.8C389.3 144.93 390.48 144.3 391.76 143.83C391.77 143.92 391.92 144.69 391.94 144.79C390.54 144.76 389.13 144.29 388.21 143.16C387.76 142.6 387.51 141.95 387.39 141.25C387.28 140.55 387.48 139.8 387.85 139.23C388.62 138.08 389.82 137.44 390.96 136.9C392.15 136.36 393.38 135.99 394.62 135.75C393.42 136.13 392.24 136.6 391.13 137.18Z" id="baDq1WpOD"></path><path d="M398.17 129.77C399.82 132.84 402.96 147.46 400.04 148.15C396.26 149.04 393.82 143.19 392.87 139.27C392.87 139.27 388.57 147.5 381.95 146.22C377.8 145.4 376.87 141.4 376.87 141.4C381.13 139.07 392.59 119.42 398.17 129.77Z" id="bdRo4roHT"></path><path d="M399.5 132.61C399.99 133.91 400.33 135.24 400.64 136.6C401.22 139.3 401.69 141.98 401.79 144.8C401.8 145.5 401.79 146.22 401.59 146.99C401.48 147.36 401.32 147.77 401.04 148.12C400.9 148.29 400.75 148.42 400.52 148.58C400.31 148.7 400.1 148.79 399.88 148.83C399.03 149.05 398.19 148.84 397.5 148.5C396.81 148.13 396.25 147.62 395.76 147.07C394.79 145.95 394.15 144.67 393.64 143.37C393.11 142.06 392.74 140.72 392.42 139.37C392.51 139.38 393.23 139.46 393.32 139.48C392.78 140.42 392.18 141.27 391.5 142.07C390.82 142.88 390.07 143.61 389.25 144.26C388.42 144.9 387.49 145.43 386.51 145.8C385.54 146.17 384.49 146.36 383.46 146.34C384.49 146.21 385.47 145.93 386.38 145.49C387.29 145.06 388.11 144.45 388.86 143.79C389.62 143.12 390.3 142.38 390.9 141.57C391.5 140.78 392.05 139.91 392.47 139.04C392.51 138.97 392.69 138.6 393.01 137.94C393.23 138.66 393.34 139.06 393.37 139.14C393.75 140.44 394.12 141.73 394.66 142.94C395.19 144.16 395.79 145.36 396.65 146.3C397.46 147.22 398.62 147.96 399.65 147.71C400.58 147.56 400.75 146.07 400.75 144.79C400.77 143.46 400.63 142.11 400.5 140.76C400.36 139.4 400.2 138.05 399.99 136.71C399.45 134.07 398.96 131.35 397.66 128.94C398.49 130.03 399.03 131.33 399.5 132.61Z" id="a8fdS06gHi"></path><path d="M357.18 176.88C357.18 176.88 336.55 179.65 330.85 174.93C325.16 170.2 312.01 146.99 308.8 128.62C305.59 110.24 312.2 107.44 322.98 123.04C333.75 138.64 342.34 148.24 342.85 148.22C343.37 148.19 355.11 145.56 355.11 145.56C355.52 151.82 356.98 173.74 357.18 176.88Z" id="jxvvwGZI"></path><path d="M349.38 148.08C349.31 157.28 349.9 166.52 350.83 175.67C350.85 175.78 351.01 175.76 351.01 175.66C350.99 166.46 350.59 157.22 349.55 148.06C349.54 147.96 349.38 147.97 349.38 148.08Z" id="a35vKG75Q7"></path><path d="M330.85 174.93C325.16 170.2 312.01 147 308.8 128.61C306.47 115.32 309.29 110.18 315.1 114.25C316.77 118.47 325.16 139.56 340.25 177.54C335.26 176.86 332.12 175.99 330.85 174.93Z" id="d1A8P52KvX"></path><path d="M220.43 420.26C219.6 419.46 221.08 409.77 223.21 398.12C223.23 398.01 223.26 397.88 223.27 397.77C223.7 395.36 235.26 355.17 235.26 355.17C238.12 355.84 252.39 359.2 278.08 365.25L265.74 406.33C265.64 406.76 265.58 407 265.57 407.05C265.57 407.05 288.32 423.65 290.44 426.23C292.57 428.78 293.18 435.81 290.73 436.09C288.27 436.37 222.59 422.38 220.43 420.26Z" id="b2SlZs5wZ4"></path><path d="M220.43 420.26C222.59 422.38 288.27 436.38 290.73 436.09C293.18 435.81 292.56 428.78 290.44 426.21C289.15 424.63 280.2 417.86 273.39 412.79C277.95 416.48 284.5 425.31 256.4 416.28C239.06 410.69 228.22 406.47 222.17 403.91C220.63 412.84 219.74 419.59 220.43 420.26Z" id="dDafKBNbD"></path><path d="M312.77 205.43C312.77 205.43 302.81 276.58 298.7 297.4C293.29 324.9 271.38 394.9 271.38 394.9C266.7 393.77 229.23 384.7 224.55 383.57C224.55 383.57 254.14 294.39 254.37 292.6C255.68 282.44 263.35 211.87 262.72 210.12C254.74 187.62 265.37 166.88 265.37 166.88C268.72 166.88 285.45 166.88 315.58 166.88C318.03 187.81 317.09 200.66 312.77 205.43Z" id="afGotD6np"></path><path d="M259.37 379.18C256.17 378.35 235.1 372.88 231.94 372.79C231.87 372.79 231.83 372.93 231.9 372.97C234.74 374.37 255.92 379.35 259.15 380.1C265.74 381.64 263.87 381.1 270.48 382.55C270.58 382.57 270.64 382.33 270.53 382.29C264 380.49 265.91 380.88 259.37 379.18Z" id="c1HJbGxK7b"></path><path d="M279.69 324.61L283.2 312.12C284.22 308.37 284.79 306.28 284.9 305.86C285.48 303.78 285.99 301.7 286.28 299.56C287.55 291.01 288.64 282.43 289.77 273.85C290.23 270.42 292.53 253.27 296.66 222.41L298.39 209.54C298.92 205.69 299.22 203.55 299.28 203.12C299.44 202.03 299.56 201 299.76 199.88C299.86 199.28 299.93 198.89 299.94 198.32C299.95 198.16 299.99 196.87 299.99 196.7C300.17 188.06 300.11 179.41 300.08 170.76C300.26 179.41 300.48 188.05 300.45 196.72C300.44 197.25 300.44 197.8 300.42 198.34C300.42 198.85 300.3 199.55 300.22 200.01C300.06 201.02 299.93 202.13 299.78 203.18C299.72 203.61 299.44 205.76 298.93 209.62L297.28 222.5C293.33 253.39 291.14 270.56 290.7 273.99C289.52 282.57 288.37 291.13 287.05 299.69C286.73 301.86 286.21 303.98 285.61 306.05C285.49 306.47 284.91 308.56 283.86 312.31L280.28 324.78L272.98 349.69L265.51 374.55L279.69 324.61Z" id="b1PZ0g48Nq"></path><path d="M304.92 259.37C302.28 253.21 289.1 222.38 265.37 166.88C295.5 166.88 312.24 166.88 315.58 166.88C315.58 166.88 319.24 198.27 312.77 205.42C311.2 216.21 308.85 233.39 304.92 259.37Z" id="a2TbJ5KrMb"></path><path d="M320.95 387.42C319.97 386.81 327.19 327.16 327.19 327.16C330.05 327.29 344.35 327.9 370.1 329.02C365.55 350.85 363.03 362.98 362.52 365.41C362.52 365.41 388.13 377.11 390.74 379.21C393.33 381.29 395.35 388.05 393 388.82C390.64 389.59 323.49 389.06 320.95 387.42Z" id="chjpWyDQV"></path><path d="M363.35 389.09C362.37 389.08 361.36 389.06 360.36 389.05C357.78 389.02 355.19 388.99 352.61 388.95C351.62 388.92 350.6 388.9 349.62 388.88C349.61 388.88 349.57 388.88 349.57 388.88C348.58 388.86 347.58 388.83 346.62 388.82C345.13 388.79 343.65 388.76 342.22 388.72C341.29 388.69 340.36 388.65 339.47 388.64C339.46 388.64 339.43 388.64 339.43 388.64C338.53 388.61 337.65 388.58 336.79 388.55C336.79 388.55 336.76 388.55 336.75 388.55C335.46 388.51 334.22 388.47 333.04 388.41C332.25 388.38 331.47 388.36 330.73 388.32C329.27 388.26 327.94 388.19 326.76 388.1C326.16 388.08 325.61 388.03 325.08 387.99C323.79 387.88 322.76 387.78 322.06 387.67C321.48 387.58 321.1 387.48 320.96 387.39C320.61 387.18 320.84 379.91 321.25 370.46C327.73 371.99 339.6 374.36 357.73 376.97C387.56 381.25 378.66 373.24 373.61 370.52C373.55 370.49 373.5 370.46 373.46 370.44C373.77 370.58 374.1 370.73 374.41 370.89C374.46 370.91 374.51 370.92 374.57 370.96C375.14 371.23 375.72 371.51 376.29 371.78C376.92 372.08 377.56 372.38 378.19 372.69C379.24 373.19 380.29 373.69 381.29 374.19C382.3 374.66 383.26 375.15 384.18 375.61C384.72 375.89 385.25 376.15 385.75 376.39C386.01 376.52 386.25 376.65 386.5 376.77C386.82 376.94 387.15 377.11 387.44 377.26C388.12 377.61 388.71 377.93 389.22 378.22C389.34 378.28 389.46 378.35 389.57 378.41C390.12 378.72 390.51 378.99 390.74 379.17C393.33 381.28 395.35 388.05 393.01 388.81C391.97 389.15 378.43 389.23 363.35 389.09Z" id="bRZ5ol1nu"></path><path d="M323.2 349.23C323.2 349.23 334.34 267.69 333.18 263.84C332.74 262.33 278.19 212.87 278.19 212.87C258.64 193.59 265.37 166.88 265.37 166.88C270.39 166.88 310.56 166.88 315.58 166.88C315.58 166.88 316.26 174.73 318.9 177.68C334 194.63 372.49 229.68 378.38 245.24C385.79 264.79 368.17 348.68 368.17 348.68C359.17 348.79 327.7 349.17 323.2 349.23Z" id="a23xDCvYLB"></path><path d="M267.15 192.95C268.04 195.8 269.25 198.52 270.68 201.13C273.56 206.33 277.2 211.1 281.36 215.35C285.45 219.69 289.92 223.7 294.35 227.72C296.58 229.73 298.82 231.71 301.08 233.68C301.76 234.28 307.17 239.02 307.85 239.61C305.42 237.86 303.05 236 300.67 234.17C298.33 232.3 296 230.39 293.7 228.47C289.11 224.58 284.63 220.58 280.42 216.25C276.27 211.86 272.55 207.01 269.81 201.59C267.11 196.2 265.28 190.21 265.51 184.17C265.68 187.17 266.2 190.12 267.15 192.95Z" id="b2Qowa04r"></path><path d="M304.34 176.52C304.56 177.45 304.81 178.41 305.27 179.22C305.82 180 306.47 180.72 307.1 181.45C309.64 184.34 312.29 187.17 314.92 190C316.5 191.69 329.16 205.25 330.74 206.94C336.02 212.59 341.25 218.28 346.44 223.99C351.63 229.73 356.81 235.48 361.75 241.43C362.98 242.92 364.18 244.44 365.34 246.01C365.91 246.8 366.48 247.6 366.98 248.45C367.22 248.86 367.47 249.38 367.6 249.88C367.74 250.36 367.85 250.85 367.92 251.35C368.49 255.26 368.33 259.14 368.18 263.01C367.79 270.75 367 278.44 366.05 286.12C364.16 301.47 361.74 316.74 359.03 331.96C360.23 324.33 361.34 316.68 362.39 309.02C363.46 301.37 364.47 293.72 365.32 286.04C366.16 278.36 366.98 270.68 367.31 262.97C367.44 259.13 367.58 255.24 367.01 251.49C366.94 251.03 366.85 250.57 366.72 250.13C366.6 249.71 366.41 249.34 366.17 248.92C365.7 248.11 365.14 247.33 364.58 246.56C363.44 245.02 362.24 243.51 361.01 242.03C351.14 230.16 340.58 218.86 330.19 207.43C328.63 205.72 316.13 192.02 314.57 190.3C312 187.42 309.41 184.54 306.92 181.6C306.3 180.86 305.68 180.13 305.13 179.31C304.64 178.44 304.43 177.48 304.23 176.53C303.87 174.64 303.79 172.69 303.92 170.76C303.83 172.69 303.95 174.62 304.34 176.52Z" id="b26CnXoeyS"></path><path d="M353.89 337.66C350.82 337.62 330.6 337.36 327.73 338.04C327.67 338.05 327.67 338.21 327.73 338.22C330.61 338.9 350.82 338.64 353.89 338.6C360.18 338.52 358.37 338.45 364.66 338.26C364.79 338.26 364.79 338 364.66 338C358.37 337.82 360.18 337.75 353.89 337.66Z" id="e18yV0sxvm"></path><path d="M315.88 166.87C315.88 166.87 281.98 170.46 265.51 166.87C265.51 166.87 277.13 126.59 296.19 115.46C305.73 109.89 313.94 113.06 317.62 120.12C318.55 121.91 325.31 139.1 325.31 146.32C325.32 154 318.37 158.97 318.37 158.97C317.87 160.55 316.13 166.08 315.88 166.87Z" id="a3A0BD5nqo"></path><path d="M303.15 154.49C301.84 154.84 300.56 155.24 299.26 155.68C298.62 155.9 297.97 156.09 297.33 156.28C296.66 156.47 295.95 156.67 295.24 156.69C295.18 156.69 295.18 156.79 295.24 156.79C295.92 156.81 296.58 156.82 297.25 156.74C297.89 156.67 298.53 156.52 299.16 156.36C300.49 156.01 301.82 155.62 303.15 155.26C305.84 154.54 308.53 153.82 311.27 153.3C311.4 153.3 311.36 153.08 311.23 153.09C308.52 153.4 305.79 153.8 303.15 154.49Z" id="e64bXszl7"></path><path d="M311.23 155.18C310.1 155.21 308.98 155.3 307.85 155.41C307.31 155.46 306.78 155.54 306.25 155.6C305.66 155.68 305.09 155.85 304.5 155.91C304.43 155.92 304.43 156.01 304.5 156.01C305.06 155.96 305.62 156 306.19 155.99C306.75 155.97 307.31 155.95 307.88 155.92C309 155.88 310.13 155.86 311.26 155.81C313.51 155.72 315.75 155.64 318 155.62C318.12 155.63 318.1 155.46 317.99 155.45C315.75 155.24 313.47 155.14 311.23 155.18Z" id="d2HJSQpxxE"></path><path d="M249.75 155.77C249.32 166.79 260.18 190.5 266.97 202.27C268.97 205.73 295.58 189.68 293.45 185.98C290.88 181.5 277.22 158.57 277.11 158.06C276.86 156.97 294.77 131.87 299.2 125.97C306.58 116.13 304.75 110.65 294.49 116.67C271.37 130.22 250.09 147.56 249.75 155.77Z" id="c3TmNYF5T"></path><path d="M307.67 220.61C307.67 220.61 307.51 223.25 305.62 224.95C303.47 226.9 299.47 224.38 299.47 224.38C299.47 224.38 298.75 227.01 296.58 228.61C294.32 230.28 289.92 228.31 289.92 228.31C289.92 228.31 287.9 230.39 285.03 230.43C280.13 230.5 276.08 224.21 273.46 220.23C270.85 216.26 267.14 202.54 266.18 199.99C268.71 198.29 289 184.68 291.53 182.98C291.53 182.98 308.34 197.46 310.74 202.57C312.79 206.88 315.15 216.19 312.9 219.14C310.9 221.78 308.72 220.32 307.67 220.61Z" id="bCENQrRde"></path><path d="M302.14 205.93C302.09 205.83 301.93 205.91 301.99 206.01C304.28 210.59 305.64 215.57 307.74 220.24C307.79 220.37 307.99 220.31 307.97 220.17C306.9 215.07 304.4 210.57 302.14 205.93Z" id="a10RCpnbhU"></path><path d="M298.26 220.86C297.66 219.76 297.04 218.67 296.4 217.58C295.12 215.42 293.78 213.28 292.39 211.18C292.33 211.09 292.17 211.16 292.24 211.26C293.52 213.42 294.76 215.6 295.94 217.81C296.52 218.91 297.11 220.03 297.69 221.15C298.23 222.19 298.7 223.33 299.46 224.22C299.56 224.36 299.79 224.25 299.75 224.08C299.47 222.94 298.83 221.88 298.26 220.86Z" id="b2Lgf6A7D"></path><path d="M288.38 225.39C287.78 224.42 287.18 223.44 286.58 222.46C285.39 220.5 284.2 218.53 283.08 216.53C283.03 216.43 282.87 216.51 282.93 216.61C284.06 218.64 285.16 220.7 286.3 222.73C286.86 223.72 287.42 224.71 288 225.71C288.49 226.55 289 227.65 289.78 228.27C289.83 228.32 289.89 228.27 289.88 228.22C289.68 227.21 288.92 226.25 288.38 225.39Z" id="f1G9JlsmvF"></path><path d="M254.42 182.04C254.42 182.04 247.33 160.45 249.94 153.53C252.56 146.6 273.79 127.32 290.12 118.28C306.44 109.24 308.45 114.81 297.22 130.08C285.98 145.35 278.07 157.46 278.26 157.95C278.45 158.43 284.34 169.44 284.34 169.44C278.36 171.96 257.42 180.78 254.42 182.04Z" id="b1LN7rfXxz"></path><path d="M279.5 163.59C270.81 166.61 262.3 170.26 253.98 174.21C253.89 174.25 253.95 174.42 254.05 174.38C262.72 171.26 271.3 167.8 279.58 163.76C279.67 163.72 279.6 163.56 279.5 163.59Z" id="epTIItmh9"></path><path d="M281.06 163.81C280.85 163.43 279.79 161.53 277.89 158.12L277.77 157.92L277.91 157.72C280.58 153.71 282.06 151.49 282.35 151.05C283.83 148.82 285.38 146.64 286.89 144.43C288.38 142.21 289.94 140.05 291.49 137.88C293.03 135.7 294.63 133.55 296.23 131.41C294.83 133.7 293.43 135.97 291.98 138.21C290.53 140.46 289.09 142.7 287.6 144.92C286.12 147.13 284.66 149.37 283.14 151.57C282.83 152.01 281.32 154.21 278.59 158.16L278.62 157.74C280.37 161.24 281.34 163.18 281.54 163.56C282.47 165.51 283.43 167.47 284.34 169.44C283.22 167.58 282.15 165.69 281.06 163.81Z" id="aMehC7CuB"></path><path d="M293.93 135.62C294.66 134.96 295.4 134.33 296.24 133.77C296.01 134.23 295.7 134.62 295.38 135.01C295.08 135.39 294.72 135.75 294.36 136.08C293.62 136.75 292.85 137.38 291.95 137.85C292.53 137 293.21 136.3 293.93 135.62Z" id="a2gNf086OL"></path><path d="M314.39 123.35C316.03 123.46 317.08 114.57 317.08 114.57C317.1 114.52 317.17 114.31 317.31 113.93L320.49 104.97L310.51 96.71C309.65 96.04 309.16 95.67 309.07 95.6C309.07 95.6 308.36 98.11 307.51 101.24C307.47 101.38 307.43 101.54 307.39 101.69C307.34 101.87 307.29 102.04 307.25 102.2C307.12 102.66 306.98 103.15 306.85 103.62C306.76 103.98 306.66 104.34 306.57 104.72C306.47 105.11 306.39 105.48 306.29 105.86C305.43 109.66 304.86 113.64 304.9 114.12C305.02 115.24 309.38 122.98 314.39 123.35Z" id="a3U2m9U5le"></path><path d="M317.31 113.93C317.52 113.33 318.58 110.34 320.49 104.97L310.51 96.71C309.65 96.04 309.16 95.67 309.07 95.6C309.07 95.6 308.36 98.11 307.51 101.24C309.25 108.88 314.74 112.6 317.31 113.93Z" id="d2JjOTRAI4"></path><path d="M323.78 109.54C320.55 110.04 309.5 111.33 305.24 95.2C300.98 79.07 307.83 72.67 315.15 71.14C322.46 69.6 331.76 72.62 334.34 89.11C336.91 105.58 327.32 108.99 323.78 109.54Z" id="cWqUVXFE6"></path><path d="M329.45 84.86C329.01 84.83 328.65 84.86 328.28 84.58C328.09 84.42 328.04 84.06 328.17 83.86C328.46 83.39 329.01 83.28 329.55 83.3C330.12 83.31 330.57 83.46 331.01 83.85C331.43 84.2 331.11 84.91 330.6 84.92C330.2 84.93 329.84 84.88 329.45 84.86Z" id="a1EbIyge65"></path><path d="M321.1 88.07C321.54 88.03 321.89 88.04 322.25 87.76C322.44 87.61 322.48 87.25 322.35 87.05C322.05 86.57 321.5 86.48 320.96 86.51C320.38 86.53 319.95 86.7 319.51 87.08C319.1 87.44 319.44 88.13 319.95 88.15C320.34 88.16 320.7 88.1 321.1 88.07Z" id="au77ouxx"></path><path d="M322.88 91.56C323.12 92.68 323.2 93.98 322.25 94.55C322.23 94.56 322.24 94.62 322.28 94.61C323.48 94.2 323.34 92.46 322.94 91.45C322.93 91.41 322.87 91.51 322.88 91.56Z" id="a2uF4idcM"></path><path d="M322.11 94.11C323.78 93.93 323.26 90.31 321.74 90.46C319.92 90.66 320.43 94.28 322.11 94.11Z" id="a7BwL6qU"></path><path d="M320.13 91.5C319.69 91.6 319.31 91.27 318.96 90.95C318.92 90.91 318.9 90.95 318.91 91C319 91.69 319.37 92.37 320.13 92.37C320.82 92.37 321.23 91.68 321.29 90.96C321.3 90.84 321.16 90.66 321.05 90.76C320.75 91.01 320.5 91.41 320.13 91.5Z" id="b2fzxSVTUL"></path><path d="M329.18 90.28C329.29 91.41 329.61 92.69 330.67 92.93C330.71 92.95 330.71 93 330.67 93C329.41 92.97 329 91.28 329.07 90.2C329.07 90.16 329.16 90.23 329.18 90.28Z" id="a2Qpy8QyOI"></path><path d="M330.67 92.46C329.04 92.81 328.41 89.2 329.92 88.88C331.71 88.49 332.34 92.12 330.67 92.46Z" id="a3S3b35WtC"></path><path d="M331.72 89.4C332.12 89.36 332.35 88.92 332.53 88.51C332.56 88.47 332.58 88.49 332.59 88.53C332.74 89.22 332.63 89.98 331.99 90.22C331.4 90.45 330.87 89.93 330.58 89.27C330.52 89.15 330.58 88.93 330.71 88.99C331.03 89.13 331.38 89.43 331.72 89.4Z" id="a1KFtL7EIW"></path><path d="M325.26 100.91C325.66 100.91 326.1 100.68 326.45 100.51C326.49 100.5 326.53 100.52 326.5 100.56C326.25 101.02 325.66 101.36 325.12 101.32C324.59 101.28 324.3 100.86 324.13 100.4C324.12 100.33 324.2 100.29 324.25 100.33C324.54 100.58 324.85 100.91 325.26 100.91Z" id="d1t038jxQJ"></path><path d="M328.93 97.99C328.95 98.07 328.75 98.13 328.5 98.18C328.49 98.18 328.49 98.2 328.47 98.18C327.12 98.62 325.63 98.35 324.61 97.34C324.54 97.27 324.63 97.17 324.71 97.21C325.87 97.81 327.05 97.84 328.29 97.67C328.32 97.44 327.36 94.89 327.49 94.85C327.91 94.75 328.81 94.92 329.34 94.98C328.42 91.54 326.96 88.26 326.1 84.82C326.08 84.69 326.25 84.63 326.31 84.74C328.09 88.07 329.23 92.01 330.26 95.55C330.37 95.98 328.65 95.64 328.32 95.56C328.44 96.04 328.81 97.2 328.93 97.99Z" id="ez7ut08kr"></path><path d="M308.07 90.39C308.07 90.39 313.8 89.76 314.76 81.3C314.76 81.3 315.07 85.15 313 88.4C313 88.4 322.98 86.19 326.27 77.25C326.27 77.25 325.06 81.75 323.65 83.46C323.65 83.46 327.76 81.8 329.43 78.12C329.43 78.12 331.75 82.81 333.27 84C333.27 84 330.85 66.37 314.69 70.1C314.69 70.1 304.51 71.94 301.75 80.48C298.97 89.02 305.24 96.48 305.24 96.48C308.08 96.38 307.5 91.61 308.07 90.39Z" id="d1W3bEeVPz"></path><path d="M302.5 92C300.17 93.34 303.05 100.83 305.84 101.82C308.63 102.79 309.59 100.23 309.59 100.23C309.53 99.93 309.19 98.45 308.58 95.79C306.08 92.37 304.05 91.1 302.5 92Z" id="a13KnuOcJg"></path><path d="M303.36 94.21C305.32 94.96 306.38 96.75 307.14 98.6C306.55 97.9 305.75 97.52 304.79 98.22C304.74 98.26 304.79 98.34 304.84 98.32C305.64 98.13 306.21 98.26 306.76 98.89C307.15 99.33 307.43 99.9 307.71 100.41C307.8 100.58 308.12 100.49 308.04 100.28C308.04 100.27 308.03 100.26 308.03 100.24C308.04 97.76 306.05 94.33 303.37 94.14C303.33 94.14 303.32 94.2 303.36 94.21Z" id="eqQriuZu1"></path><path d="M313.3 121.72L305.23 111.42C303.48 113.03 302.5 113.93 302.31 114.11C302.31 114.11 309.58 129.86 309.71 129.2C309.96 128.8 311.2 126.8 313.45 123.21L317.31 128.1L318.19 117.01L317.08 114.72L313.3 121.72Z" id="gcdGHA5by"></path><path d="M318.28 117.14C318.28 117.08 318.18 117.04 318.16 117.11C317.59 118.83 317.31 125.86 317.11 127.52C317.11 127.51 317.09 127.51 317.09 127.49C316.93 127.29 313.48 123.17 313.43 123.22C312.66 124.15 309.93 128.51 309.73 128.9C308.58 126.41 304.14 117.28 302.72 114.87C302.68 114.81 302.58 114.85 302.6 114.92C303.58 117.54 309.44 129.81 309.55 129.79C309.62 129.85 313.02 124.49 313.47 123.45C314.03 124.32 317.46 128.92 317.52 128.65C317.81 126.84 317.98 124.49 318.07 122.66C318.16 120.83 318.28 118.97 318.28 117.14Z" id="cghgl3XGR"></path></defs><g><g><g><use xlink:href="#ctA01RydV" opacity="1" fill="#ebebeb" fill-opacity="1"></use><g><use xlink:href="#ctA01RydV" opacity="1" fill-opacity="0" stroke="#000000" stroke-width="1" stroke-opacity="0"></use></g></g><g><use xlink:href="#dgRMhUh8c" opacity="1" fill="#ebebeb" fill-opacity="1"></use><g><use xlink:href="#dgRMhUh8c" opacity="1" fill-opacity="0" stroke="#000000" stroke-width="1" stroke-opacity="0"></use></g></g><g><use xlink:href="#cWB9gQvdD" opacity="1" fill="#ebebeb" fill-opacity="1"></use><g><use xlink:href="#cWB9gQvdD" opacity="1" fill-opacity="0" stroke="#000000" stroke-width="1" stroke-opacity="0"></use></g></g><g><use xlink:href="#a1eqevFPGS" opacity="1" fill="#ebebeb" fill-opacity="1"></use><g><use xlink:href="#a1eqevFPGS" opacity="1" fill-opacity="0" stroke="#000000" stroke-width="1" stroke-opacity="0"></use></g></g><g><use xlink:href="#j6krVscfc9" opacity="1" fill="#ebebeb" fill-opacity="1"></use><g><use xlink:href="#j6krVscfc9" opacity="1" fill-opacity="0" stroke="#000000" stroke-width="1" stroke-opacity="0"></use></g></g><g><use xlink:href="#a2epyW4MI" opacity="1" fill="#ebebeb" fill-opacity="1"></use><g><use xlink:href="#a2epyW4MI" opacity="1" fill-opacity="0" stroke="#000000" stroke-width="1" stroke-opacity="0"></use></g></g><g><use xlink:href="#b1h4QOAl4w" opacity="1" fill="#ebebeb" fill-opacity="1"></use><g><use xlink:href="#b1h4QOAl4w" opacity="1" fill-opacity="0" stroke="#000000" stroke-width="1" stroke-opacity="0"></use></g></g><g><use xlink:href="#b5beMDMPc8" opacity="1" fill="#ebebeb" fill-opacity="1"></use><g><use xlink:href="#b5beMDMPc8" opacity="1" fill-opacity="0" stroke="#000000" stroke-width="1" stroke-opacity="0"></use></g></g><g><use xlink:href="#cn644PC6a" opacity="1" fill="#ebebeb" fill-opacity="1"></use><g><use xlink:href="#cn644PC6a" opacity="1" fill-opacity="0" stroke="#000000" stroke-width="1" stroke-opacity="0"></use></g></g><g><use xlink:href="#b1C1tj2yjS" opacity="1" fill="#ebebeb" fill-opacity="1"></use><g><use xlink:href="#b1C1tj2yjS" opacity="1" fill-opacity="0" stroke="#000000" stroke-width="1" stroke-opacity="0"></use></g></g><g><use xlink:href="#c3YO8kjn6P" opacity="1" fill="#7961aa" fill-opacity="1"></use><g><use xlink:href="#c3YO8kjn6P" opacity="1" fill-opacity="0" stroke="#000000" stroke-width="1" stroke-opacity="0"></use></g></g><g><use xlink:href="#j1cJtkJa41" opacity="1" fill="#9379c8" fill-opacity="1"></use><g><use xlink:href="#j1cJtkJa41" opacity="1" fill-opacity="0" stroke="#000000" stroke-width="1" stroke-opacity="0"></use></g></g><g><use xlink:href="#aaHoHwDT8" opacity="1" fill="#7961aa" fill-opacity="1"></use><g><use xlink:href="#aaHoHwDT8" opacity="1" fill-opacity="0" stroke="#000000" stroke-width="1" stroke-opacity="0"></use></g></g><g><use xlink:href="#a1SpDHiR6B" opacity="1" fill="#9379c8" fill-opacity="1"></use><g><use xlink:href="#a1SpDHiR6B" opacity="1" fill-opacity="0" stroke="#000000" stroke-width="1" stroke-opacity="0"></use></g></g><g><use xlink:href="#dGhJzLoAK" opacity="1" fill="#7961aa" fill-opacity="1"></use><g><use xlink:href="#dGhJzLoAK" opacity="1" fill-opacity="0" stroke="#000000" stroke-width="1" stroke-opacity="0"></use></g></g><g><use xlink:href="#bniHkpSRC" opacity="1" fill="#9379c8" fill-opacity="1"></use><g><use xlink:href="#bniHkpSRC" opacity="1" fill-opacity="0" stroke="#000000" stroke-width="1" stroke-opacity="0"></use></g></g><g><use xlink:href="#a48ghfy4Dy" opacity="1" fill="#7961aa" fill-opacity="1"></use><g><use xlink:href="#a48ghfy4Dy" opacity="1" fill-opacity="0" stroke="#000000" stroke-width="1" stroke-opacity="0"></use></g></g><g><use xlink:href="#eL47vLiqn" opacity="1" fill="#9379c8" fill-opacity="1"></use><g><use xlink:href="#eL47vLiqn" opacity="1" fill-opacity="0" stroke="#000000" stroke-width="1" stroke-opacity="0"></use></g></g><g><use xlink:href="#c3HQKt7wqi" opacity="1" fill="#7961aa" fill-opacity="1"></use><g><use xlink:href="#c3HQKt7wqi" opacity="1" fill-opacity="0" stroke="#000000" stroke-width="1" stroke-opacity="0"></use></g></g><g><use xlink:href="#f2PEHKE2nX" opacity="1" fill="#9379c8" fill-opacity="1"></use><g><use xlink:href="#f2PEHKE2nX" opacity="1" fill-opacity="0" stroke="#000000" stroke-width="1" stroke-opacity="0"></use></g></g><g><use xlink:href="#a19Nd7CJw" opacity="1" fill="#ffc727" fill-opacity="1"></use><g><use xlink:href="#a19Nd7CJw" opacity="1" fill-opacity="0" stroke="#000000" stroke-width="1" stroke-opacity="0"></use></g></g><g><use xlink:href="#b2kwhHob7c" opacity="1" fill="#000000" fill-opacity="1"></use><g><use xlink:href="#b2kwhHob7c" opacity="1" fill-opacity="0" stroke="#000000" stroke-width="1" stroke-opacity="0"></use></g></g><g><use xlink:href="#f1r05H4Ash" opacity="1" fill="#37474f" fill-opacity="1"></use><g><use xlink:href="#f1r05H4Ash" opacity="1" fill-opacity="0" stroke="#000000" stroke-width="1" stroke-opacity="0"></use></g></g><g><use xlink:href="#j69f7I5t4g" opacity="1" fill="#37474f" fill-opacity="1"></use><g><use xlink:href="#j69f7I5t4g" opacity="1" fill-opacity="0" stroke="#000000" stroke-width="1" stroke-opacity="0"></use></g></g><g><use xlink:href="#c2QmiTSGc7" opacity="1" fill="#37474f" fill-opacity="1"></use><g><use xlink:href="#c2QmiTSGc7" opacity="1" fill-opacity="0" stroke="#000000" stroke-width="1" stroke-opacity="0"></use></g></g><g><use xlink:href="#aazmmSBkK" opacity="1" fill="#37474f" fill-opacity="1"></use><g><use xlink:href="#aazmmSBkK" opacity="1" fill-opacity="0" stroke="#000000" stroke-width="1" stroke-opacity="0"></use></g></g><g><use xlink:href="#bjnrUU0v4" opacity="1" fill="#37474f" fill-opacity="1"></use><g><use xlink:href="#bjnrUU0v4" opacity="1" fill-opacity="0" stroke="#000000" stroke-width="1" stroke-opacity="0"></use></g></g><g><use xlink:href="#b3vYOfevF" opacity="1" fill="#455a64" fill-opacity="1"></use><g><use xlink:href="#b3vYOfevF" opacity="1" fill-opacity="0" stroke="#000000" stroke-width="1" stroke-opacity="0"></use></g></g><g><use xlink:href="#d7574is9Z0" opacity="1" fill="#263238" fill-opacity="1"></use><g><use xlink:href="#d7574is9Z0" opacity="1" fill-opacity="0" stroke="#000000" stroke-width="1" stroke-opacity="0"></use></g></g><g><use xlink:href="#eXWUn0dW5" opacity="1" fill="#455a64" fill-opacity="1"></use><g><use xlink:href="#eXWUn0dW5" opacity="1" fill-opacity="0" stroke="#000000" stroke-width="1" stroke-opacity="0"></use></g></g><g><use xlink:href="#a36euWgWeN" opacity="1" fill="#ffc727" fill-opacity="1"></use><g><use xlink:href="#a36euWgWeN" opacity="1" fill-opacity="0" stroke="#000000" stroke-width="1" stroke-opacity="0"></use></g></g><g><use xlink:href="#c8CxcXjWjC" opacity="1" fill="#000000" fill-opacity="1"></use><g><use xlink:href="#c8CxcXjWjC" opacity="1" fill-opacity="0" stroke="#000000" stroke-width="1" stroke-opacity="0"></use></g></g><g><use xlink:href="#aErSSkkkS" opacity="1" fill="#37474f" fill-opacity="1"></use><g><use xlink:href="#aErSSkkkS" opacity="1" fill-opacity="0" stroke="#000000" stroke-width="1" stroke-opacity="0"></use></g></g><g><use xlink:href="#a2ci9nAEk" opacity="1" fill="#37474f" fill-opacity="1"></use><g><use xlink:href="#a2ci9nAEk" opacity="1" fill-opacity="0" stroke="#000000" stroke-width="1" stroke-opacity="0"></use></g></g><g><use xlink:href="#a1FEAiiI1w" opacity="1" fill="#37474f" fill-opacity="1"></use><g><use xlink:href="#a1FEAiiI1w" opacity="1" fill-opacity="0" stroke="#000000" stroke-width="1" stroke-opacity="0"></use></g></g><g><use xlink:href="#a1dCbrzyT" opacity="1" fill="#37474f" fill-opacity="1"></use><g><use xlink:href="#a1dCbrzyT" opacity="1" fill-opacity="0" stroke="#000000" stroke-width="1" stroke-opacity="0"></use></g></g><g><use xlink:href="#a14znubB6" opacity="1" fill="#455a64" fill-opacity="1"></use><g><use xlink:href="#a14znubB6" opacity="1" fill-opacity="0" stroke="#000000" stroke-width="1" stroke-opacity="0"></use></g></g><g><use xlink:href="#a9JwU6TD1h" opacity="1" fill="#263238" fill-opacity="1"></use><g><use xlink:href="#a9JwU6TD1h" opacity="1" fill-opacity="0" stroke="#000000" stroke-width="1" stroke-opacity="0"></use></g></g><g><use xlink:href="#i2caHJSDdE" opacity="1" fill="#455a64" fill-opacity="1"></use><g><use xlink:href="#i2caHJSDdE" opacity="1" fill-opacity="0" stroke="#000000" stroke-width="1" stroke-opacity="0"></use></g></g><g><use xlink:href="#h1wZ5ZvlGo" opacity="1" fill="#ffc727" fill-opacity="1"></use><g><use xlink:href="#h1wZ5ZvlGo" opacity="1" fill-opacity="0" stroke="#000000" stroke-width="1" stroke-opacity="0"></use></g></g><g><use xlink:href="#awPG8SsQI" opacity="1" fill="#000000" fill-opacity="1"></use><g><use xlink:href="#awPG8SsQI" opacity="1" fill-opacity="0" stroke="#000000" stroke-width="1" stroke-opacity="0"></use></g></g><g><use xlink:href="#b3V9W1757C" opacity="1" fill="#37474f" fill-opacity="1"></use><g><use xlink:href="#b3V9W1757C" opacity="1" fill-opacity="0" stroke="#000000" stroke-width="1" stroke-opacity="0"></use></g></g><g><use xlink:href="#a61rnOMd4" opacity="1" fill="#37474f" fill-opacity="1"></use><g><use xlink:href="#a61rnOMd4" opacity="1" fill-opacity="0" stroke="#000000" stroke-width="1" stroke-opacity="0"></use></g></g><g><use xlink:href="#a3ud0dQjZE" opacity="1" fill="#37474f" fill-opacity="1"></use><g><use xlink:href="#a3ud0dQjZE" opacity="1" fill-opacity="0" stroke="#000000" stroke-width="1" stroke-opacity="0"></use></g></g><g><use xlink:href="#eOE94RXUH" opacity="1" fill="#455a64" fill-opacity="1"></use><g><use xlink:href="#eOE94RXUH" opacity="1" fill-opacity="0" stroke="#000000" stroke-width="1" stroke-opacity="0"></use></g></g><g><use xlink:href="#a1uCIjBPv0" opacity="1" fill="#263238" fill-opacity="1"></use><g><use xlink:href="#a1uCIjBPv0" opacity="1" fill-opacity="0" stroke="#000000" stroke-width="1" stroke-opacity="0"></use></g></g><g><use xlink:href="#cApqM6eGx" opacity="1" fill="#455a64" fill-opacity="1"></use><g><use xlink:href="#cApqM6eGx" opacity="1" fill-opacity="0" stroke="#000000" stroke-width="1" stroke-opacity="0"></use></g></g><g><use xlink:href="#a1WRa87tP2" opacity="1" fill="#ffc727" fill-opacity="1"></use><g><use xlink:href="#a1WRa87tP2" opacity="1" fill-opacity="0" stroke="#000000" stroke-width="1" stroke-opacity="0"></use></g></g><g><use xlink:href="#aiyR9Q723" opacity="1" fill="#000000" fill-opacity="1"></use><g><use xlink:href="#aiyR9Q723" opacity="1" fill-opacity="0" stroke="#000000" stroke-width="1" stroke-opacity="0"></use></g></g><g><use xlink:href="#a5NQ1iESb" opacity="1" fill="#455a64" fill-opacity="1"></use><g><use xlink:href="#a5NQ1iESb" opacity="1" fill-opacity="0" stroke="#000000" stroke-width="1" stroke-opacity="0"></use></g></g><g><use xlink:href="#afwWBNeMB" opacity="1" fill="#263238" fill-opacity="1"></use><g><use xlink:href="#afwWBNeMB" opacity="1" fill-opacity="0" stroke="#000000" stroke-width="1" stroke-opacity="0"></use></g></g><g><use xlink:href="#bnLdWI3ZT" opacity="1" fill="#455a64" fill-opacity="1"></use><g><use xlink:href="#bnLdWI3ZT" opacity="1" fill-opacity="0" stroke="#000000" stroke-width="1" stroke-opacity="0"></use></g></g><g><use xlink:href="#a3N3rSXrVN" opacity="1" fill="#263238" fill-opacity="1"></use><g><use xlink:href="#a3N3rSXrVN" opacity="1" fill-opacity="0" stroke="#000000" stroke-width="1" stroke-opacity="0"></use></g></g><g><use xlink:href="#avvzAJkgu" opacity="1" fill="#263238" fill-opacity="1"></use><g><use xlink:href="#avvzAJkgu" opacity="1" fill-opacity="0" stroke="#000000" stroke-width="1" stroke-opacity="0"></use></g></g><g><use xlink:href="#a7OvnAJkf" opacity="1" fill="#f7a9a0" fill-opacity="1"></use><g><use xlink:href="#a7OvnAJkf" opacity="1" fill-opacity="0" stroke="#000000" stroke-width="1" stroke-opacity="0"></use></g></g><g><use xlink:href="#b1nWGUleuT" opacity="1" fill="#f7a9a0" fill-opacity="1"></use><g><use xlink:href="#b1nWGUleuT" opacity="1" fill-opacity="0" stroke="#000000" stroke-width="1" stroke-opacity="0"></use></g></g><g><use xlink:href="#eHNWbvfo0" opacity="1" fill="#37474f" fill-opacity="1"></use><g><use xlink:href="#eHNWbvfo0" opacity="1" fill-opacity="0" stroke="#000000" stroke-width="1" stroke-opacity="0"></use></g></g><g><use xlink:href="#a3PW7IdIe" opacity="1" fill="#455a64" fill-opacity="1"></use><g><use xlink:href="#a3PW7IdIe" opacity="1" fill-opacity="0" stroke="#000000" stroke-width="1" stroke-opacity="0"></use></g></g><g><use xlink:href="#bXcuIlb8X" opacity="1" fill="#455a64" fill-opacity="1"></use><g><use xlink:href="#bXcuIlb8X" opacity="1" fill-opacity="0" stroke="#000000" stroke-width="1" stroke-opacity="0"></use></g></g><g><use xlink:href="#b1Dhx8f5B6" opacity="1" fill="#37474f" fill-opacity="1"></use><g><use xlink:href="#b1Dhx8f5B6" opacity="1" fill-opacity="0" stroke="#000000" stroke-width="1" stroke-opacity="0"></use></g></g><g><use xlink:href="#c7ghhxnxSe" opacity="1" fill="#455a64" fill-opacity="1"></use><g><use xlink:href="#c7ghhxnxSe" opacity="1" fill-opacity="0" stroke="#000000" stroke-width="1" stroke-opacity="0"></use></g></g><g><use xlink:href="#b2Yh3Lydat" opacity="1" fill="#455a64" fill-opacity="1"></use><g><use xlink:href="#b2Yh3Lydat" opacity="1" fill-opacity="0" stroke="#000000" stroke-width="1" stroke-opacity="0"></use></g></g><g><use xlink:href="#g1WJzOGrM" opacity="1" fill="#455a64" fill-opacity="1"></use><g><use xlink:href="#g1WJzOGrM" opacity="1" fill-opacity="0" stroke="#000000" stroke-width="1" stroke-opacity="0"></use></g></g><g><use xlink:href="#b343blixgt" opacity="1" fill="#455a64" fill-opacity="1"></use><g><use xlink:href="#b343blixgt" opacity="1" fill-opacity="0" stroke="#000000" stroke-width="1" stroke-opacity="0"></use></g></g><g><use xlink:href="#aIC0B5Sn9" opacity="1" fill="#455a64" fill-opacity="1"></use><g><use xlink:href="#aIC0B5Sn9" opacity="1" fill-opacity="0" stroke="#000000" stroke-width="1" stroke-opacity="0"></use></g></g><g><use xlink:href="#m4BXQYIEJe" opacity="1" fill="#455a64" fill-opacity="1"></use><g><use xlink:href="#m4BXQYIEJe" opacity="1" fill-opacity="0" stroke="#000000" stroke-width="1" stroke-opacity="0"></use></g></g><g><use xlink:href="#demXT5H85" opacity="1" fill="#455a64" fill-opacity="1"></use><g><use xlink:href="#demXT5H85" opacity="1" fill-opacity="0" stroke="#000000" stroke-width="1" stroke-opacity="0"></use></g></g><g><use xlink:href="#b1Y1ktzu1z" opacity="1" fill="#455a64" fill-opacity="1"></use><g><use xlink:href="#b1Y1ktzu1z" opacity="1" fill-opacity="0" stroke="#000000" stroke-width="1" stroke-opacity="0"></use></g></g><g><use xlink:href="#c2QAiP1bv" opacity="1" fill="#455a64" fill-opacity="1"></use><g><use xlink:href="#c2QAiP1bv" opacity="1" fill-opacity="0" stroke="#000000" stroke-width="1" stroke-opacity="0"></use></g></g><g><use xlink:href="#hxhAuE4Si" opacity="1" fill="#455a64" fill-opacity="1"></use><g><use xlink:href="#hxhAuE4Si" opacity="1" fill-opacity="0" stroke="#000000" stroke-width="1" stroke-opacity="0"></use></g></g><g><use xlink:href="#biyYgBdTd" opacity="1" fill="#455a64" fill-opacity="1"></use><g><use xlink:href="#biyYgBdTd" opacity="1" fill-opacity="0" stroke="#000000" stroke-width="1" stroke-opacity="0"></use></g></g><g><use xlink:href="#c838bzBrfH" opacity="1" fill="#455a64" fill-opacity="1"></use><g><use xlink:href="#c838bzBrfH" opacity="1" fill-opacity="0" stroke="#000000" stroke-width="1" stroke-opacity="0"></use></g></g><g><use xlink:href="#a3Mbhvcq0p" opacity="1" fill="#f7a9a0" fill-opacity="1"></use><g><use xlink:href="#a3Mbhvcq0p" opacity="1" fill-opacity="0" stroke="#000000" stroke-width="1" stroke-opacity="0"></use></g></g><g><use xlink:href="#e1mRr8RZzf" opacity="1" fill="#263238" fill-opacity="1"></use><g><use xlink:href="#e1mRr8RZzf" opacity="1" fill-opacity="0" stroke="#000000" stroke-width="1" stroke-opacity="0"></use></g></g><g><use xlink:href="#exBLLmmi7" opacity="1" fill="#263238" fill-opacity="1"></use><g><use xlink:href="#exBLLmmi7" opacity="1" fill-opacity="0" stroke="#000000" stroke-width="1" stroke-opacity="0"></use></g></g><g><use xlink:href="#c1V1BKszs" opacity="1" fill="#263238" fill-opacity="1"></use><g><use xlink:href="#c1V1BKszs" opacity="1" fill-opacity="0" stroke="#000000" stroke-width="1" stroke-opacity="0"></use></g></g><g><use xlink:href="#baDq1WpOD" opacity="1" fill="#263238" fill-opacity="1"></use><g><use xlink:href="#baDq1WpOD" opacity="1" fill-opacity="0" stroke="#000000" stroke-width="1" stroke-opacity="0"></use></g></g><g><use xlink:href="#bdRo4roHT" opacity="1" fill="#f7a9a0" fill-opacity="1"></use><g><use xlink:href="#bdRo4roHT" opacity="1" fill-opacity="0" stroke="#000000" stroke-width="1" stroke-opacity="0"></use></g></g><g><use xlink:href="#a8fdS06gHi" opacity="1" fill="#263238" fill-opacity="1"></use><g><use xlink:href="#a8fdS06gHi" opacity="1" fill-opacity="0" stroke="#000000" stroke-width="1" stroke-opacity="0"></use></g></g><g><use xlink:href="#jxvvwGZI" opacity="1" fill="#9379c8" fill-opacity="1"></use><g><use xlink:href="#jxvvwGZI" opacity="1" fill-opacity="0" stroke="#000000" stroke-width="1" stroke-opacity="0"></use></g></g><g><use xlink:href="#a35vKG75Q7" opacity="1" fill="#263238" fill-opacity="1"></use><g><use xlink:href="#a35vKG75Q7" opacity="1" fill-opacity="0" stroke="#000000" stroke-width="1" stroke-opacity="0"></use></g></g><g><use xlink:href="#d1A8P52KvX" opacity="1" fill="#000000" fill-opacity="1"></use><g><use xlink:href="#d1A8P52KvX" opacity="1" fill-opacity="0" stroke="#000000" stroke-width="1" stroke-opacity="0"></use></g></g><g><use xlink:href="#b2SlZs5wZ4" opacity="1" fill="#f7a9a0" fill-opacity="1"></use><g><use xlink:href="#b2SlZs5wZ4" opacity="1" fill-opacity="0" stroke="#000000" stroke-width="1" stroke-opacity="0"></use></g></g><g><use xlink:href="#dDafKBNbD" opacity="1" fill="#263238" fill-opacity="1"></use><g><use xlink:href="#dDafKBNbD" opacity="1" fill-opacity="0" stroke="#000000" stroke-width="1" stroke-opacity="0"></use></g></g><g><use xlink:href="#afGotD6np" opacity="1" fill="#37474f" fill-opacity="1"></use><g><use xlink:href="#afGotD6np" opacity="1" fill-opacity="0" stroke="#000000" stroke-width="1" stroke-opacity="0"></use></g></g><g><use xlink:href="#c1HJbGxK7b" opacity="1" fill="#263238" fill-opacity="1"></use><g><use xlink:href="#c1HJbGxK7b" opacity="1" fill-opacity="0" stroke="#000000" stroke-width="1" stroke-opacity="0"></use></g></g><g><use xlink:href="#b1PZ0g48Nq" opacity="1" fill="#263238" fill-opacity="1"></use><g><use xlink:href="#b1PZ0g48Nq" opacity="1" fill-opacity="0" stroke="#000000" stroke-width="1" stroke-opacity="0"></use></g></g><g><use xlink:href="#a2TbJ5KrMb" opacity="1" fill="#263238" fill-opacity="1"></use><g><use xlink:href="#a2TbJ5KrMb" opacity="1" fill-opacity="0" stroke="#000000" stroke-width="1" stroke-opacity="0"></use></g></g><g><use xlink:href="#chjpWyDQV" opacity="1" fill="#f7a9a0" fill-opacity="1"></use><g><use xlink:href="#chjpWyDQV" opacity="1" fill-opacity="0" stroke="#000000" stroke-width="1" stroke-opacity="0"></use></g></g><g><use xlink:href="#bRZ5ol1nu" opacity="1" fill="#263238" fill-opacity="1"></use><g><use xlink:href="#bRZ5ol1nu" opacity="1" fill-opacity="0" stroke="#000000" stroke-width="1" stroke-opacity="0"></use></g></g><g><use xlink:href="#a23xDCvYLB" opacity="1" fill="#37474f" fill-opacity="1"></use><g><use xlink:href="#a23xDCvYLB" opacity="1" fill-opacity="0" stroke="#000000" stroke-width="1" stroke-opacity="0"></use></g></g><g><use xlink:href="#b2Qowa04r" opacity="1" fill="#263238" fill-opacity="1"></use><g><use xlink:href="#b2Qowa04r" opacity="1" fill-opacity="0" stroke="#000000" stroke-width="1" stroke-opacity="0"></use></g></g><g><use xlink:href="#b26CnXoeyS" opacity="1" fill="#263238" fill-opacity="1"></use><g><use xlink:href="#b26CnXoeyS" opacity="1" fill-opacity="0" stroke="#000000" stroke-width="1" stroke-opacity="0"></use></g></g><g><use xlink:href="#e18yV0sxvm" opacity="1" fill="#263238" fill-opacity="1"></use><g><use xlink:href="#e18yV0sxvm" opacity="1" fill-opacity="0" stroke="#000000" stroke-width="1" stroke-opacity="0"></use></g></g><g><use xlink:href="#a3A0BD5nqo" opacity="1" fill="#9379c8" fill-opacity="1"></use><g><use xlink:href="#a3A0BD5nqo" opacity="1" fill-opacity="0" stroke="#000000" stroke-width="1" stroke-opacity="0"></use></g></g><g><use xlink:href="#e64bXszl7" opacity="1" fill="#263238" fill-opacity="1"></use><g><use xlink:href="#e64bXszl7" opacity="1" fill-opacity="0" stroke="#000000" stroke-width="1" stroke-opacity="0"></use></g></g><g><use xlink:href="#d2HJSQpxxE" opacity="1" fill="#263238" fill-opacity="1"></use><g><use xlink:href="#d2HJSQpxxE" opacity="1" fill-opacity="0" stroke="#000000" stroke-width="1" stroke-opacity="0"></use></g></g><g><use xlink:href="#c3TmNYF5T" opacity="1" fill="#f7a9a0" fill-opacity="1"></use><g><use xlink:href="#c3TmNYF5T" opacity="1" fill-opacity="0" stroke="#000000" stroke-width="1" stroke-opacity="0"></use></g></g><g><use xlink:href="#bCENQrRde" opacity="1" fill="#f7a9a0" fill-opacity="1"></use><g><use xlink:href="#bCENQrRde" opacity="1" fill-opacity="0" stroke="#000000" stroke-width="1" stroke-opacity="0"></use></g></g><g><use xlink:href="#a10RCpnbhU" opacity="1" fill="#263238" fill-opacity="1"></use><g><use xlink:href="#a10RCpnbhU" opacity="1" fill-opacity="0" stroke="#000000" stroke-width="1" stroke-opacity="0"></use></g></g><g><use xlink:href="#b2Lgf6A7D" opacity="1" fill="#263238" fill-opacity="1"></use><g><use xlink:href="#b2Lgf6A7D" opacity="1" fill-opacity="0" stroke="#000000" stroke-width="1" stroke-opacity="0"></use></g></g><g><use xlink:href="#f1G9JlsmvF" opacity="1" fill="#263238" fill-opacity="1"></use><g><use xlink:href="#f1G9JlsmvF" opacity="1" fill-opacity="0" stroke="#000000" stroke-width="1" stroke-opacity="0"></use></g></g><g><use xlink:href="#b1LN7rfXxz" opacity="1" fill="#9379c8" fill-opacity="1"></use><g><use xlink:href="#b1LN7rfXxz" opacity="1" fill-opacity="0" stroke="#000000" stroke-width="1" stroke-opacity="0"></use></g></g><g><use xlink:href="#epTIItmh9" opacity="1" fill="#263238" fill-opacity="1"></use><g><use xlink:href="#epTIItmh9" opacity="1" fill-opacity="0" stroke="#000000" stroke-width="1" stroke-opacity="0"></use></g></g><g><use xlink:href="#aMehC7CuB" opacity="1" fill="#263238" fill-opacity="1"></use><g><use xlink:href="#aMehC7CuB" opacity="1" fill-opacity="0" stroke="#000000" stroke-width="1" stroke-opacity="0"></use></g></g><g><use xlink:href="#a2gNf086OL" opacity="1" fill="#263238" fill-opacity="1"></use><g><use xlink:href="#a2gNf086OL" opacity="1" fill-opacity="0" stroke="#000000" stroke-width="1" stroke-opacity="0"></use></g></g><g><use xlink:href="#a3U2m9U5le" opacity="1" fill="#f7a9a0" fill-opacity="1"></use><g><use xlink:href="#a3U2m9U5le" opacity="1" fill-opacity="0" stroke="#000000" stroke-width="1" stroke-opacity="0"></use></g></g><g><use xlink:href="#d2JjOTRAI4" opacity="1" fill="#263238" fill-opacity="1"></use><g><use xlink:href="#d2JjOTRAI4" opacity="1" fill-opacity="0" stroke="#000000" stroke-width="1" stroke-opacity="0"></use></g></g><g><use xlink:href="#cWqUVXFE6" opacity="1" fill="#f7a9a0" fill-opacity="1"></use><g><use xlink:href="#cWqUVXFE6" opacity="1" fill-opacity="0" stroke="#000000" stroke-width="1" stroke-opacity="0"></use></g></g><g><use xlink:href="#a1EbIyge65" opacity="1" fill="#263238" fill-opacity="1"></use><g><use xlink:href="#a1EbIyge65" opacity="1" fill-opacity="0" stroke="#000000" stroke-width="1" stroke-opacity="0"></use></g></g><g><use xlink:href="#au77ouxx" opacity="1" fill="#263238" fill-opacity="1"></use><g><use xlink:href="#au77ouxx" opacity="1" fill-opacity="0" stroke="#000000" stroke-width="1" stroke-opacity="0"></use></g></g><g><use xlink:href="#a2uF4idcM" opacity="1" fill="#263238" fill-opacity="1"></use><g><use xlink:href="#a2uF4idcM" opacity="1" fill-opacity="0" stroke="#000000" stroke-width="1" stroke-opacity="0"></use></g></g><g><use xlink:href="#a7BwL6qU" opacity="1" fill="#263238" fill-opacity="1"></use><g><use xlink:href="#a7BwL6qU" opacity="1" fill-opacity="0" stroke="#000000" stroke-width="1" stroke-opacity="0"></use></g></g><g><use xlink:href="#b2fzxSVTUL" opacity="1" fill="#263238" fill-opacity="1"></use><g><use xlink:href="#b2fzxSVTUL" opacity="1" fill-opacity="0" stroke="#000000" stroke-width="1" stroke-opacity="0"></use></g></g><g><use xlink:href="#a2Qpy8QyOI" opacity="1" fill="#263238" fill-opacity="1"></use><g><use xlink:href="#a2Qpy8QyOI" opacity="1" fill-opacity="0" stroke="#000000" stroke-width="1" stroke-opacity="0"></use></g></g><g><use xlink:href="#a3S3b35WtC" opacity="1" fill="#263238" fill-opacity="1"></use><g><use xlink:href="#a3S3b35WtC" opacity="1" fill-opacity="0" stroke="#000000" stroke-width="1" stroke-opacity="0"></use></g></g><g><use xlink:href="#a1KFtL7EIW" opacity="1" fill="#263238" fill-opacity="1"></use><g><use xlink:href="#a1KFtL7EIW" opacity="1" fill-opacity="0" stroke="#000000" stroke-width="1" stroke-opacity="0"></use></g></g><g><use xlink:href="#d1t038jxQJ" opacity="1" fill="#263238" fill-opacity="1"></use><g><use xlink:href="#d1t038jxQJ" opacity="1" fill-opacity="0" stroke="#000000" stroke-width="1" stroke-opacity="0"></use></g></g><g><use xlink:href="#ez7ut08kr" opacity="1" fill="#263238" fill-opacity="1"></use><g><use xlink:href="#ez7ut08kr" opacity="1" fill-opacity="0" stroke="#000000" stroke-width="1" stroke-opacity="0"></use></g></g><g><use xlink:href="#d1W3bEeVPz" opacity="1" fill="#263238" fill-opacity="1"></use><g><use xlink:href="#d1W3bEeVPz" opacity="1" fill-opacity="0" stroke="#000000" stroke-width="1" stroke-opacity="0"></use></g></g><g><use xlink:href="#a13KnuOcJg" opacity="1" fill="#f7a9a0" fill-opacity="1"></use><g><use xlink:href="#a13KnuOcJg" opacity="1" fill-opacity="0" stroke="#000000" stroke-width="1" stroke-opacity="0"></use></g></g><g><use xlink:href="#eqQriuZu1" opacity="1" fill="#263238" fill-opacity="1"></use><g><use xlink:href="#eqQriuZu1" opacity="1" fill-opacity="0" stroke="#000000" stroke-width="1" stroke-opacity="0"></use></g></g><g><use xlink:href="#gcdGHA5by" opacity="1" fill="#ffffff" fill-opacity="1"></use><g><use xlink:href="#gcdGHA5by" opacity="1" fill-opacity="0" stroke="#000000" stroke-width="1" stroke-opacity="0"></use></g></g><g><use xlink:href="#cghgl3XGR" opacity="1" fill="#263238" fill-opacity="1"></use><g><use xlink:href="#cghgl3XGR" opacity="1" fill-opacity="0" stroke="#000000" stroke-width="1" stroke-opacity="0"></use></g></g></g></g></svg>