<?xml version="1.0" encoding="UTF-8" standalone="no"?>
<!DOCTYPE svg PUBLIC "-//W3C//DTD SVG 1.1//EN" "http://www.w3.org/Graphics/SVG/1.1/DTD/svg11.dtd">
<svg version="1.1" xmlns="http://www.w3.org/2000/svg" xmlns:xlink="http://www.w3.org/1999/xlink" preserveAspectRatio="xMidYMid meet" viewBox="0 0 640 640" width="640" height="640"><defs><path d="M568.83 298.69C489.6 199.68 445.58 144.68 436.78 133.68C430.78 139.16 423.4 142.89 415.42 144.46C390.56 149.36 366.29 132.38 361.2 106.54C357.62 89.13 363.99 71.17 377.73 59.89C374.73 56.14 359.72 37.38 332.7 3.62L76.19 222.86L312.31 517.92L568.83 298.69Z" id="kkYyas3RX"></path><path d="M404.75 62.17C384.19 62.17 367.52 78.83 367.52 99.39C367.52 119.95 384.19 136.62 404.75 136.62C425.31 136.62 441.98 119.95 441.98 99.39C441.98 78.83 425.31 62.17 404.75 62.17Z" id="f7UtTMrwj"></path><path d="M171.81 265.27C171.81 265.27 171.81 265.27 171.81 265.27C194.84 285.17 207.63 296.22 210.19 298.43C210.19 298.43 210.19 298.43 210.19 298.43C203.36 306.34 199.56 310.73 198.8 311.61C198.8 311.61 198.8 311.61 198.8 311.61C175.77 291.72 162.98 280.66 160.42 278.45C160.42 278.45 160.42 278.45 160.42 278.45C167.26 270.54 171.06 266.15 171.81 265.27Z" id="f2kpU32IZ9"></path><path d="M418.5 501.02C418.5 501.02 418.5 501.02 418.5 501.02C438.91 518.65 450.25 528.45 452.52 530.41C452.52 530.41 452.52 530.41 452.52 530.41C445.68 538.32 441.89 542.71 441.13 543.59C441.13 543.59 441.13 543.59 441.13 543.59C420.72 525.96 409.38 516.16 407.11 514.2C407.11 514.2 407.11 514.2 407.11 514.2C413.95 506.29 417.74 501.9 418.5 501.02Z" id="c1s6D25MzT"></path><path d="M484.35 409.85C484.31 413.7 484.15 416.75 484.12 417.52C479.33 511.69 399.11 584.15 304.94 579.36C218.32 574.95 148.77 506.3 143.23 419.75C142.88 414.33 142.91 409.92 142.88 408.83C142.82 373.47 153.79 338.97 174.27 310.14C176.73 306.66 178.87 303.99 179.38 303.3C180.6 301.75 181.86 300.22 183.12 298.71C243.08 227.69 348.82 217.66 421.06 276.14C423.11 277.8 425.13 279.52 427.11 281.27C429.48 283.38 431.3 285.15 431.77 285.58C461.81 314.31 480.3 353.05 483.75 394.48C484.15 399.21 484.35 404 484.35 408.83C484.35 409.44 484.35 409.78 484.35 409.85Z" id="b3L60FDE1m"></path><path d="M117.01 402.83C116.95 354.34 135.28 307.62 168.3 272.11C168.73 272.51 172.13 275.67 172.56 276.06C140.53 310.5 122.76 355.8 122.82 402.83C122.82 505.62 206.44 589.24 309.23 589.24C359.7 589.41 408.04 568.95 443.06 532.6C443.47 533.01 446.81 536.24 447.23 536.65C411.12 574.13 361.27 595.23 309.23 595.05C203.24 595.05 117.01 508.82 117.01 402.83Z" id="a9xZcme5PE"></path><path d="M337.11 595.05C337.11 595.05 337.11 595.05 337.11 595.05C337.11 624.32 337.11 640.58 337.11 643.83C337.11 643.83 337.11 643.83 337.11 643.83C307.84 643.83 291.58 643.83 288.33 643.83C288.33 643.83 288.33 643.83 288.33 643.83C288.33 614.56 288.33 598.3 288.33 595.05C288.33 595.05 288.33 595.05 288.33 595.05C317.59 595.05 333.85 595.05 337.11 595.05Z" id="gF1l6dKvx"></path><path d="M181.38 305.3C181.47 305.34 181.55 305.38 181.62 305.44C182.53 306.2 181.38 307.65 181.52 308.84C181.69 310.38 183.73 310.71 185.28 310.86C186.82 311.03 188.77 312.27 188.04 313.64C184.16 314.98 180.23 313.66 176.27 312.14C155.79 340.97 144.82 375.47 144.88 410.83C144.88 416.34 145.19 420.66 145.23 421.75C145.55 421.99 145.91 422.18 146.29 422.32C147.45 422.76 148.79 422.68 149.86 423.3C150.71 423.8 151.28 424.69 152.13 425.15C154.55 426.48 157.92 423.93 160.19 425.51C160.77 426.04 161.33 426.61 161.85 427.21C163.94 429.02 167.38 427.8 169.79 429.16C171.35 430.03 172.15 431.77 172.99 433.35C175.07 437.3 178.43 441.18 182.88 441.49C184.29 441.43 185.69 441.47 187.09 441.63C188.46 441.95 189.8 443.14 189.58 444.52C189.2 446.91 190.37 449.51 190.06 451.89C189.49 456.24 183.32 458.15 182.8 462.5C182.8 463.46 182.75 464.42 182.64 465.37C182.36 466.51 181.5 467.44 181.2 468.58C180.62 470.73 182.16 472.88 183.85 474.32C185.54 475.77 187.56 477.02 188.49 479.04C189.47 481.19 188.99 483.69 189.31 486.02C190 491.12 194.4 494.9 198.93 497.34C200.39 497.94 201.67 498.88 202.7 500.08C203.86 501.76 203.74 503.98 204.14 505.99C205.09 510.9 209.22 514.95 209.34 519.96C209.42 523.53 207.45 526.75 206.26 530.11C205.04 533.63 204.68 537.39 205.21 541.08C211.83 546.69 218.87 551.8 226.26 556.35C226.66 555.75 226.96 555.09 227.13 554.4C227.42 552.82 226.7 551.23 225.33 550.4C226.58 549.93 227.72 549.2 228.67 548.26C229.62 547.28 229.86 545.81 229.27 544.57C231.31 544.83 233.74 544.95 235.09 543.39C236.17 542.13 236.1 540.25 235.67 538.66C235.08 537.11 234.69 535.5 234.51 533.85C239.24 534.08 243.99 533.92 248.7 533.37C248.02 531.08 246.47 529.14 244.38 527.96C246.52 527.6 248.46 525.05 249.13 522.99C249.71 520.89 249.75 518.68 249.22 516.57C249.06 516.03 249.04 515.45 249.15 514.9C249.5 514.16 250.1 513.58 250.85 513.26C256.15 510.21 260.38 507.78 261.44 507.17C262.07 506.85 262.65 506.43 263.14 505.93C264.24 504.62 264.08 502.65 263.51 501.04C262.94 499.43 262.04 497.9 261.81 496.21C261.16 491.13 266.6 487.49 268.43 482.7C269.06 480.79 269.4 478.8 269.43 476.79C269.58 474.63 269.6 472.13 267.95 470.75C266.36 469.41 263.88 469.72 262.22 468.47C260.7 467.33 260.18 465.14 258.52 464.22C257.01 463.39 255.12 463.92 253.44 463.53C250.49 462.84 248.63 459.44 245.61 459.12C243.92 458.94 241.99 459.77 240.59 458.79C239.36 457.9 239.32 456.15 239.08 454.66C238.24 449.92 234.53 446.21 229.79 445.35C228.04 445.07 226.13 445.17 224.64 444.21C223.13 443.23 222.44 441.41 221.25 440.05C219.34 437.88 216.32 437.1 213.5 436.44C207.75 435.1 203.16 434.02 202.01 433.75C199.98 433.26 197.35 433 196.25 434.79C195.92 435.47 195.7 436.19 195.58 436.94C194.73 439.69 192.21 441.58 189.33 441.63C188.37 439.99 186.81 438.79 184.98 438.26C183.79 438.06 182.61 437.78 181.45 437.43C179 436.23 177.99 433.26 179.19 430.81C179.23 430.73 179.27 430.64 179.32 430.56C180.67 428.14 180.24 425.11 178.26 423.17C176.31 421.41 173.49 420.98 170.86 421.16C170.18 419.66 171.33 417.97 172.56 416.88C173.8 415.8 175.3 414.73 175.57 413.11C176 410.55 172.73 408.61 170.26 409.37C167.78 410.13 166.2 412.54 165.16 414.91C164.65 416.31 163.96 417.63 163.1 418.84C162.21 420.07 160.7 420.69 159.2 420.45C157.16 419.92 156.38 417.5 155.93 415.45C155.2 412.72 154.83 409.91 154.83 407.08C154.85 404.22 155.99 401.49 157.99 399.46C161.37 396.35 166.58 396.65 171.14 397.15C170.13 395.8 170.28 393.91 171.49 392.74C172.73 391.63 174.43 391.22 176.04 391.62C177.42 391.91 178.66 392.65 179.56 393.72C180.86 395.3 181.23 397.45 182.21 399.24C183.2 401.04 185.4 402.57 187.2 401.61C188.77 400.77 189.02 398.61 188.63 396.88C188.24 395.16 187.41 393.48 187.55 391.71C187.82 388.36 191.31 386.32 194.39 384.94C197.47 383.56 200.99 381.69 201.48 378.34C201.5 377.69 201.63 377.05 201.85 376.44C202.19 375.89 202.67 375.45 203.23 375.14C212.21 369.2 221.35 363.19 231.62 359.95C232.15 359.77 232.21 359.96 232.76 359.83C233.52 359.39 233.01 358.17 232.28 357.68C231.55 357.19 230.57 356.81 230.39 355.95C230.26 355.32 230.63 354.7 230.72 354.06C230.8 352.76 229.81 351.63 228.51 351.55C228.21 351.53 227.91 351.57 227.62 351.67C226.8 350.57 228.42 349.31 229.75 348.94C233.71 347.85 237.78 347.19 241.88 346.96C242.36 346.88 242.84 346.97 243.27 347.19C243.89 347.8 243.94 348.79 243.37 349.45C242.81 350.07 242.19 350.63 241.52 351.13C240.17 352.45 239.66 354.42 240.2 356.23C242.35 357.32 244.67 358.45 247.05 358.07C249.42 357.68 251.52 355.01 250.41 352.89C249.38 350.9 246.25 350.45 245.72 348.28C245.09 345.73 248.69 343.47 247.88 340.98C247.53 339.89 246.44 339.24 245.6 338.46C243.59 336.48 242.99 333.46 244.1 330.86C241.34 331.35 238.52 330.46 236.53 328.5C234.72 326.67 233.28 323.78 230.7 323.87C228.34 323.94 226.31 326.7 224.1 325.86C223.56 325.65 222.99 325.23 222.46 325.48C222.12 325.7 221.89 326.07 221.85 326.49C221.29 329.17 222.26 332.22 220.79 334.55C219.2 337.07 215.52 337.42 213.59 339.69C212.55 340.92 212.14 342.58 211.18 343.88C210.21 345.19 208.18 346.02 207.02 344.88C208.19 342.48 207.54 339.59 205.46 337.91C204.39 337.21 203.24 336.65 202.02 336.24C200.67 335.67 199.38 334.95 198.18 334.11C197.58 333.74 197.09 333.22 196.77 332.6C196.52 331.81 196.55 330.96 196.87 330.2C198.06 326.78 201.05 324.31 204.64 323.77C206.17 323.56 207.96 323.63 208.98 322.46C209.51 321.84 209.79 320.9 210.58 320.66C211.08 320.55 211.6 320.61 212.06 320.83C213.97 321.5 215.88 322.18 217.8 322.85C218.43 323.14 219.14 323.26 219.84 323.19C220.56 323.1 221.08 322.46 221.04 321.74C220.85 320.78 219.39 320.33 219.53 319.37C219.59 319.05 219.76 318.77 220 318.55C224.2 314.09 230.16 311.74 236.27 312.13C236.99 313.33 235.86 314.73 234.89 315.74C233.94 316.77 233.17 318.58 234.33 319.36C234.8 319.6 235.33 319.72 235.86 319.7C237.27 319.89 238.64 320.31 239.92 320.93C241.91 321.79 243.86 322.75 245.76 323.77C245.48 322.52 245.53 321.23 245.9 320.01C246.34 318.76 247.64 318.05 248.92 318.37C250.06 318.81 250.64 320.32 251.86 320.46C253.48 320.64 254.11 318.25 253.44 316.77C252.77 315.28 251.42 314.05 251.32 312.41C251.23 311.32 251.65 309.96 250.78 309.3C250.47 309.09 250.12 308.96 249.75 308.93C238.81 306.92 230.04 305.31 227.85 304.91C226.55 304.66 224.68 304.85 224.62 306.16C224.59 306.9 225.25 307.64 224.96 308.31C224.65 309.03 223.63 308.97 222.88 309.23C221.74 309.75 221.07 310.97 221.26 312.21C221.46 313.42 221.92 314.57 222.63 315.57C221.2 314.98 219.05 314.87 217.62 314.27C217.41 312.61 216.99 310.99 216.37 309.45C216.23 308.52 215.37 307.87 214.44 308.01C214.34 308.02 214.24 308.05 214.15 308.08C212.27 308.37 210.39 308.65 208.5 308.94C208.03 308.96 207.58 309.13 207.21 309.44C206.48 310.21 207.2 311.46 207.18 312.53C207.04 313.75 206.14 314.75 204.94 315.02C203.76 315.26 202.54 315.25 201.36 314.98C198.72 314.57 196.1 314.16 193.46 313.76C195.79 313.02 197.86 311.63 199.43 309.76C200.48 308.53 201.04 306.23 199.53 305.65C199.08 305.53 198.61 305.49 198.16 305.55C194.58 305.57 191.76 302.58 188.41 301.32C187.36 300.93 186.25 300.72 185.12 300.71C184.38 301.63 182.13 304.38 181.38 305.3Z" id="cANeTsi2p"></path><path d="M479.74 411.52C478.91 412.63 477.58 413.27 476.19 413.2C472.55 412.89 471.02 407.65 467.42 407.06C467.1 406.98 466.77 407.01 466.47 407.15C465.93 407.44 465.84 408.16 465.81 408.77C465.66 411.76 465.53 414.87 466.7 417.64C468.41 421.68 472.83 425.07 471.9 429.36C466.91 427.05 464.31 421.44 463.14 416.06C461.95 410.68 461.76 405.04 459.65 399.95C458.04 402.01 454.67 400.31 453.2 398.15C451.81 396.11 450.95 393.74 449.6 391.66C448.26 389.59 446.19 387.73 443.73 387.62C441.14 387.5 438.88 389.28 436.91 390.96C435.19 392.23 433.75 393.83 432.67 395.68C431.29 398.46 431.65 401.74 431.58 404.84C431.51 408.18 430.8 411.73 428.51 414.19C426.22 416.64 422.01 417.5 419.49 415.28C418.27 414.01 417.4 412.45 416.97 410.74C414.23 402.75 411.95 394.62 410.14 386.37C409.72 388.25 408.06 390.68 406.48 389.58C406.13 389.28 405.84 388.91 405.64 388.49C402.69 383.5 397.25 380.51 391.73 378.71C386.22 376.92 380.43 376.08 374.98 374.11C371.93 373 369.01 371.55 366.28 369.78C364.87 371.85 364.71 374.54 365.86 376.77C367.12 378.97 369.71 380.05 372.16 379.4C373.37 379.01 374.39 378.17 375.59 377.75C376.78 377.35 378.4 377.55 378.92 378.71C379.43 379.81 378.66 381.15 379.05 382.31C379.62 384.06 382.28 384.2 383.2 385.8C383.76 387.11 383.41 388.62 382.33 389.54C381.26 390.41 380.08 391.14 378.83 391.7C374.92 393.88 372.15 397.58 368.73 400.46C365.32 403.35 360.5 405.46 356.43 403.61C357.4 398.7 351.55 395.1 350.47 390.21C350.11 388.59 350.3 386.88 349.8 385.32C349.07 383.04 347.05 381.48 345.4 379.76C341.35 375.5 339.19 369.78 339.42 363.91C339.51 361.89 339.88 359.83 339.42 357.86C338.96 355.9 337.33 353.99 335.31 354.07C330.7 354.28 324.88 354.63 322.46 350.69C321.59 349.29 321.22 347.23 322.47 346.15C323.46 345.52 324.66 345.32 325.81 345.58C329.28 345.92 332.74 346.27 336.21 346.6C338.64 346.84 341.26 347.03 343.36 345.77C345.45 344.5 346.35 341.12 344.41 339.62C343.01 338.53 340.47 338.59 340.06 336.86C339.72 335.41 341.32 333.77 340.45 332.55C339.84 331.69 338.44 331.92 337.59 332.57C336.85 333.34 336.05 334.05 335.19 334.68C333.53 335.54 331.55 334.71 329.77 334.15C327.98 333.6 325.59 333.55 324.73 335.21C323.75 337.06 325.57 339.5 324.62 341.36C323.34 343.81 319.05 342.41 317.26 344.53C315.21 346.94 318.65 350.57 317.97 353.65C316.17 354.54 314.04 354.43 312.36 353.34C310.7 352.21 309.8 350.27 310.01 348.28C310.17 346.88 310.9 345.45 310.42 344.14C309.89 343.13 309.02 342.33 307.97 341.9C302.91 339.1 298.87 336.87 297.86 336.31C296.92 338.06 298.11 340.21 299.59 341.52C301.07 342.82 302.93 343.81 303.9 345.52C305.18 348 304.32 351.04 301.93 352.47C301.63 352.67 301.26 352.74 300.92 352.64C300.59 352.45 300.36 352.14 300.27 351.77C298.49 347.21 295.81 342.71 291.53 340.33C287.25 337.94 281.1 338.44 278.29 342.45C277.63 343.4 277.18 344.49 276.6 345.5C273.52 350.86 266.9 353.39 260.72 353.22C260.11 353.26 259.51 353.12 258.99 352.82C257.99 352.13 258.04 350.67 258.19 349.46C258.41 347.75 258.62 346.06 258.84 344.35C258.84 343.31 259.24 342.31 259.96 341.55C261.11 340.65 262.76 341.22 264.23 341.19C266.49 341.09 268.44 339.58 269.12 337.42C269.72 335.25 269.06 332.92 267.42 331.38C266.76 330.75 265.86 329.96 266.21 329.11C266.5 328.64 266.98 328.32 267.52 328.23C270.14 327.48 272.91 327.28 275.48 326.37C278.06 325.48 280.56 323.64 281.17 320.98C281.36 320.17 281.44 319.18 282.17 318.78C282.54 318.63 282.93 318.55 283.33 318.54C286.23 318.13 288.33 315.58 288.17 312.66C289.41 311.8 291.14 312.43 292.33 313.35C293.52 314.27 294.57 315.48 296.03 315.87C298.73 316.62 301.35 314.21 304.16 314.2C305.34 314.2 306.56 314.62 307.66 314.21C308.79 313.81 309.46 312.69 310.32 311.87C311.19 311.03 312.7 310.53 313.51 311.42C313.27 309.74 313.05 308.07 312.82 306.4C315.59 307.09 318.52 306.56 320.87 304.93C317.94 303.94 315.03 302.96 312.1 301.97C311.79 301.89 311.51 301.74 311.28 301.53C310.64 300.84 311.28 299.78 311.79 299C313.03 297.13 313.24 294.05 311.19 293.12C309.8 292.48 308.21 293.25 306.87 293.99C304.74 295.18 302.6 296.37 300.46 297.56C300.27 298.78 301.75 299.47 302.67 300.29C304.2 301.64 304.34 303.98 302.98 305.51C302.29 306.29 301.3 306.74 300.25 306.76C301.11 307.87 301.41 309.31 301.08 310.67C299.65 310.77 298.21 310.88 296.77 310.98C296.29 311.08 295.78 310.98 295.38 310.7C294.91 310.3 294.98 309.58 294.86 308.97C294.47 307.5 293.22 306.41 291.71 306.22C290.23 306.05 288.73 306.19 287.3 306.63C286.68 306.85 286.01 306.83 285.4 306.58C285.05 306.35 284.79 306.02 284.66 305.63C284.14 304.01 284.51 302.24 285.63 300.96C286.75 299.72 287.98 298.59 289.3 297.58C292.31 294.95 294.52 291.53 295.68 287.71C298.05 286.71 300.5 285.36 302.88 284.36C304.79 283.48 306.8 282.8 308.86 282.35C310.8 282.06 312.77 281.96 314.73 282.07C317.4 282.12 320.08 282.17 322.75 282.23C325.14 282.13 327.52 282.47 329.78 283.24C331.97 284.14 333.91 286.1 334.06 288.47C334.16 289.02 333.96 289.58 333.54 289.95C333.23 290.12 332.88 290.2 332.53 290.18C330.31 290.25 329.37 290.81 327.15 290.89C328.56 292.39 330.14 293.97 332.18 294.24C335.78 294.7 338.37 290.97 340.03 287.73C340.16 289.45 341.63 290.75 343.34 290.67C344.23 290.52 345.08 290.18 345.84 289.69C352.98 285.79 360.99 283.72 369.13 283.68C368.96 282.4 369.79 281.21 371.04 280.91C372.7 280.59 374.19 282.02 374.99 283.5C375.78 284.99 376.28 286.71 377.56 287.82C378.83 288.94 381.28 288.88 381.78 287.28C382.26 285.73 380.65 284.41 379.31 283.49C377.97 282.59 376.56 280.9 377.47 279.55C384.3 278.03 391.18 276.52 398.19 276.22C399.38 276.26 400.56 276.05 401.67 275.62C402.8 275.14 403.47 273.96 403.3 272.75C400.17 273.48 396.92 272.25 395.05 269.64C402.24 269.04 409.77 268.52 416.68 270.14C417.28 270.65 422.12 274.76 422.73 275.27C421.58 276.46 420.05 277.59 420.88 278.79C421.44 279.34 422.22 279.61 423.01 279.52C424.47 279.54 425.93 279.58 427.39 279.58C457.43 308.31 475.92 347.05 479.37 388.47C476.93 388.38 474.69 391.47 475.01 394.17C475.38 397.29 477.63 399.8 479.24 402.49C479.51 402.93 479.75 403.39 479.96 403.85C479.92 405.39 479.79 409.99 479.74 411.52Z" id="alB3O1xO4"></path><path d="M-206 639.62L680.66 639.62" id="fTXXNZR3S"></path><path d="M159.8 54.06C151.66 54.06 145.07 60.66 145.07 68.79C145.07 76.93 151.66 83.53 159.8 83.53C167.94 83.53 174.53 76.93 174.53 68.79C174.53 60.66 167.94 54.06 159.8 54.06Z" id="c1sFSNPItx"></path><path d="M595.14 334.64C587.01 334.64 580.41 341.23 580.41 349.37C580.41 357.51 587.01 364.1 595.14 364.1C603.28 364.1 609.88 357.51 609.88 349.37C609.88 341.23 603.28 334.64 595.14 334.64Z" id="a36fJZWF7u"></path><path d="M494.56 187.86C486.42 187.86 479.83 194.46 479.83 202.59C479.83 210.73 486.42 217.33 494.56 217.33C502.7 217.33 509.29 210.73 509.29 202.59C509.29 194.46 502.7 187.86 494.56 187.86Z" id="aiqfcRQ8j"></path><path d="M397.9 310.52C388.76 310.52 381.36 317.92 381.36 327.06C381.36 336.19 388.76 343.59 397.9 343.59C407.03 343.59 414.43 336.19 414.43 327.06C414.43 317.92 407.03 310.52 397.9 310.52Z" id="a2PXyyBGeQ"></path><path d="M451.01 252.12C438.97 252.12 429.21 261.88 429.21 273.91C429.21 285.95 438.97 295.71 451.01 295.71C463.04 295.71 472.8 285.95 472.8 273.91C472.8 261.88 463.04 252.12 451.01 252.12Z" id="g50yhXvCL"></path><path d="M429.48 251.86C417.59 264.04 400.63 325.56 400.63 325.56C400.63 325.56 461.7 307.07 473.59 294.89C485.47 282.71 485.23 263.2 473.05 251.32C460.87 239.43 441.36 239.68 429.48 251.86ZM440.79 263.94C446.29 258.3 455.33 258.18 460.98 263.69C466.62 269.2 466.74 278.24 461.23 283.88C461.23 283.88 461.23 283.88 461.23 283.88C455.72 289.53 446.68 289.64 441.04 284.13C435.39 278.63 435.28 269.59 440.79 263.94Z" id="jec3wE6JO"></path></defs><g><g><g><use xlink:href="#kkYyas3RX" opacity="1" fill="#f2f2f2" fill-opacity="1"></use><g><use xlink:href="#kkYyas3RX" opacity="1" fill-opacity="0" stroke="#000000" stroke-width="1" stroke-opacity="0"></use></g></g><g><use xlink:href="#f7UtTMrwj" opacity="1" fill="#f2f2f2" fill-opacity="1"></use><g><use xlink:href="#f7UtTMrwj" opacity="1" fill-opacity="0" stroke="#000000" stroke-width="1" stroke-opacity="0"></use></g></g><g><use xlink:href="#f2kpU32IZ9" opacity="1" fill="#7961aa" fill-opacity="1"></use><g><use xlink:href="#f2kpU32IZ9" opacity="1" fill-opacity="0" stroke="#000000" stroke-width="1" stroke-opacity="0"></use></g></g><g><use xlink:href="#c1s6D25MzT" opacity="1" fill="#7961aa" fill-opacity="1"></use><g><use xlink:href="#c1s6D25MzT" opacity="1" fill-opacity="0" stroke="#000000" stroke-width="1" stroke-opacity="0"></use></g></g><g><use xlink:href="#b3L60FDE1m" opacity="1" fill="#252432" fill-opacity="1"></use><g><use xlink:href="#b3L60FDE1m" opacity="1" fill-opacity="0" stroke="#000000" stroke-width="1" stroke-opacity="0"></use></g></g><g><use xlink:href="#a9xZcme5PE" opacity="1" fill="#7961aa" fill-opacity="1"></use><g><use xlink:href="#a9xZcme5PE" opacity="1" fill-opacity="0" stroke="#000000" stroke-width="1" stroke-opacity="0"></use></g></g><g><use xlink:href="#gF1l6dKvx" opacity="1" fill="#7961aa" fill-opacity="1"></use><g><use xlink:href="#gF1l6dKvx" opacity="1" fill-opacity="0" stroke="#000000" stroke-width="1" stroke-opacity="0"></use></g></g><g><use xlink:href="#cANeTsi2p" opacity="1" fill="#7961aa" fill-opacity="1"></use><g><use xlink:href="#cANeTsi2p" opacity="1" fill-opacity="0" stroke="#000000" stroke-width="1" stroke-opacity="0"></use></g></g><g><use xlink:href="#alB3O1xO4" opacity="1" fill="#7961aa" fill-opacity="1"></use><g><use xlink:href="#alB3O1xO4" opacity="1" fill-opacity="0" stroke="#000000" stroke-width="1" stroke-opacity="0"></use></g></g><g><use xlink:href="#fTXXNZR3S" opacity="1" fill="#000000" fill-opacity="0"></use><g><use xlink:href="#fTXXNZR3S" opacity="1" fill-opacity="0" stroke="#3f3d56" stroke-width="2" stroke-opacity="1"></use></g></g><g><use xlink:href="#c1sFSNPItx" opacity="1" fill="#000000" fill-opacity="0"></use><g><use xlink:href="#c1sFSNPItx" opacity="1" fill-opacity="0" stroke="#3f3d56" stroke-width="2" stroke-opacity="1"></use></g></g><g><use xlink:href="#a36fJZWF7u" opacity="1" fill="#000000" fill-opacity="0"></use><g><use xlink:href="#a36fJZWF7u" opacity="1" fill-opacity="0" stroke="#3f3d56" stroke-width="2" stroke-opacity="1"></use></g></g><g><use xlink:href="#aiqfcRQ8j" opacity="1" fill="#000000" fill-opacity="0"></use><g><use xlink:href="#aiqfcRQ8j" opacity="1" fill-opacity="0" stroke="#3f3d56" stroke-width="2" stroke-opacity="1"></use></g></g><g><use xlink:href="#a2PXyyBGeQ" opacity="1" fill="#3f3d56" fill-opacity="1"></use><g><use xlink:href="#a2PXyyBGeQ" opacity="1" fill-opacity="0" stroke="#000000" stroke-width="1" stroke-opacity="0"></use></g></g><g><use xlink:href="#g50yhXvCL" opacity="1" fill="#ffffff" fill-opacity="1"></use><g><use xlink:href="#g50yhXvCL" opacity="1" fill-opacity="0" stroke="#000000" stroke-width="1" stroke-opacity="0"></use></g></g><g><use xlink:href="#jec3wE6JO" opacity="1" fill="#57b894" fill-opacity="1"></use><g><use xlink:href="#jec3wE6JO" opacity="1" fill-opacity="0" stroke="#000000" stroke-width="1" stroke-opacity="0"></use></g></g></g></g></svg>