<?xml version="1.0" encoding="UTF-8" standalone="no"?>
<!DOCTYPE svg PUBLIC "-//W3C//DTD SVG 1.1//EN" "http://www.w3.org/Graphics/SVG/1.1/DTD/svg11.dtd">
<svg version="1.1" xmlns="http://www.w3.org/2000/svg" xmlns:xlink="http://www.w3.org/1999/xlink" preserveAspectRatio="xMidYMid meet" viewBox="0 0 640 640" width="640" height="640"><defs><path d="M182.91 250.14L182.91 306.32C113.28 306.32 74.59 306.32 66.86 306.32C53.63 306.32 42.88 293.72 42.88 278.23C42.88 262.74 53.63 250.14 66.86 250.14C82.33 250.14 121.01 250.14 182.91 250.14Z" id="a36ay3x1O"></path><path d="M183.98 308.05C172.06 308.05 76.71 308.05 64.79 308.05C51.31 308.05 40.38 294.79 40.38 278.44C40.38 262.09 51.31 248.84 64.79 248.84C76.71 248.84 172.06 248.84 183.98 248.84C184.96 248.84 185.76 249.81 185.76 251C185.76 252.19 184.96 253.16 183.98 253.16C172.06 253.16 76.71 253.16 64.79 253.16C53.28 253.16 43.94 264.48 43.94 278.44C43.94 292.41 53.28 303.72 64.79 303.72C76.71 303.72 172.06 303.72 183.98 303.72C184.96 303.72 185.76 304.69 185.76 305.88C185.76 307.08 184.96 308.04 183.98 308.05Z" id="alxMFMJMh"></path><path d="M58.2 263.1C58 263.1 57.84 262.91 57.84 262.67C57.84 262.43 58 262.24 58.2 262.24C70.67 262.24 170.44 262.24 182.91 262.24C183.11 262.24 183.26 262.43 183.26 262.67C183.26 262.91 183.11 263.1 182.91 263.1C157.97 263.1 70.67 263.1 58.2 263.1Z" id="a32qYAOdRt"></path><path d="M58.2 273.47C58 273.47 57.84 273.28 57.84 273.04C57.84 272.8 58 272.61 58.2 272.61C70.67 272.61 170.44 272.61 182.91 272.61C183.11 272.61 183.26 272.8 183.26 273.04C183.26 273.28 183.11 273.47 182.91 273.47C157.97 273.47 70.67 273.47 58.2 273.47Z" id="b1GirYr1qy"></path><path d="M58.2 283.84C58 283.84 57.84 283.65 57.84 283.41C57.84 283.17 58 282.98 58.2 282.98C70.67 282.98 170.44 282.98 182.91 282.98C183.11 282.98 183.26 283.17 183.26 283.41C183.26 283.65 183.11 283.84 182.91 283.84C157.97 283.84 70.67 283.84 58.2 283.84Z" id="d3glc7oWru"></path><path d="M58.2 294.22C58 294.22 57.84 294.02 57.84 293.78C57.84 293.55 58 293.35 58.2 293.35C70.67 293.35 170.44 293.35 182.91 293.35C183.11 293.35 183.26 293.55 183.26 293.78C183.26 294.02 183.11 294.22 182.91 294.22C157.97 294.22 70.67 294.22 58.2 294.22Z" id="b39N1J9d1t"></path><path d="M272.6 260.71L243.54 304.46C189.32 251.47 159.19 222.04 153.17 216.15C142.87 206.09 141.01 188.09 149.03 176.03C157.04 163.97 171.94 162.34 182.23 172.4C194.28 184.18 224.4 213.61 272.6 260.71Z" id="aaJ9fmThj"></path><path d="M243.48 306.62C234.19 297.55 159.95 224.99 150.67 215.92C140.17 205.66 138.52 187.03 146.97 174.3C155.43 161.57 170.8 159.56 181.29 169.82C190.57 178.89 264.82 251.45 274.1 260.52C274.87 261.26 274.99 262.62 274.37 263.55C273.76 264.48 272.64 264.63 271.87 263.88C271.87 263.88 271.87 263.88 271.87 263.88C262.59 254.81 188.34 182.25 179.06 173.18C170.1 164.42 156.97 166.13 149.75 176.99C142.52 187.86 143.93 203.78 152.89 212.54C152.89 212.55 152.9 212.55 152.9 212.56C162.18 221.63 236.43 294.18 245.71 303.25C246.48 304 246.6 305.36 245.98 306.29C245.36 307.22 244.24 307.37 243.48 306.62Z" id="bxilzDXn"></path><path d="M168.78 175.91C168.63 175.76 168.61 175.49 168.73 175.3C168.85 175.11 169.08 175.09 169.23 175.24C169.23 175.24 169.23 175.24 169.23 175.24C178.94 184.73 256.63 260.64 266.34 270.13C266.49 270.28 266.52 270.56 266.39 270.74C266.27 270.93 266.05 270.96 265.89 270.81C265.89 270.81 265.89 270.81 265.89 270.81C265.89 270.81 178.49 185.4 168.78 175.91Z" id="bv8SJUJw"></path><path d="M163.42 183.98C163.26 183.83 163.24 183.56 163.36 183.38C163.49 183.19 163.71 183.16 163.86 183.31C173.58 192.8 251.26 268.72 260.97 278.21C261.13 278.36 261.15 278.63 261.03 278.82C260.91 279 260.68 279.03 260.53 278.88C260.53 278.88 260.53 278.88 260.53 278.88C241.11 259.9 173.13 193.47 163.42 183.98Z" id="a4ky4kIaK"></path><path d="M158.05 192.06C157.9 191.91 157.87 191.64 158 191.45C158.12 191.27 158.35 191.24 158.5 191.39C168.21 200.88 245.9 276.8 255.61 286.29C255.76 286.44 255.79 286.71 255.66 286.89C255.54 287.08 255.32 287.11 255.16 286.96C255.16 286.96 255.16 286.96 255.16 286.96C255.16 286.96 167.76 201.55 158.05 192.06Z" id="aiyBR1BHI"></path><path d="M152.69 200.14C152.53 199.99 152.51 199.71 152.63 199.53C152.76 199.34 152.98 199.31 153.13 199.46C153.13 199.46 153.13 199.46 153.13 199.46C162.84 208.95 240.53 284.87 250.24 294.36C250.4 294.51 250.42 294.78 250.3 294.97C250.18 295.16 249.95 295.19 249.8 295.04C249.8 295.04 249.8 295.04 249.8 295.04C230.37 276.06 162.4 209.63 152.69 200.14Z" id="b8WpufMur"></path><path d="M14.33 308.48C14.13 308.48 13.97 308.28 13.97 308.05C13.97 307.81 14.13 307.61 14.33 307.61C40.77 307.61 252.28 307.61 278.72 307.61C278.91 307.61 279.07 307.81 279.07 308.05C279.07 308.28 278.91 308.48 278.72 308.48C225.84 308.48 40.77 308.48 14.33 308.48Z" id="b3TZJbbGS"></path><path d="M130.36 244.23L128.43 225.18L134.44 225.18L134.44 244.23L134.44 244.23L130.36 244.23Z" id="c1DPtnfLMv"></path><path d="M135.31 242.82L135.31 248.82L122.51 248.82C122.51 248.82 122.51 248.82 122.51 248.82C122.51 245.51 124.72 242.82 127.45 242.82C127.45 242.82 127.45 242.82 127.45 242.82C127.45 242.82 130.07 242.82 135.31 242.82Z" id="afM9xNU8"></path><path d="M88.75 244.23L86.81 225.18L92.82 225.18L92.82 244.23L92.82 244.23L88.75 244.23Z" id="azpUo4rZF"></path><path d="M93.69 242.82L93.69 248.82L80.89 248.82C80.89 248.82 80.89 248.82 80.89 248.82C80.89 245.51 83.11 242.82 85.84 242.82C85.84 242.82 85.84 242.82 85.84 242.82C85.84 242.82 88.46 242.82 93.69 242.82Z" id="bnRaHrj7t"></path><path d="M106.43 100.72C106.43 93.02 111.57 86.78 117.92 86.78C117.92 86.78 117.92 86.78 117.92 86.78C124.26 86.78 129.41 93.02 129.41 100.72C129.41 100.94 129.41 102.66 129.41 102.88C129.41 108.43 125.7 112.93 121.13 112.93C120.48 112.93 115.35 112.93 114.71 112.93C110.14 112.93 106.43 108.43 106.43 102.88C106.43 102.88 106.43 102.88 106.43 102.88C106.43 102.45 106.43 100.94 106.43 100.72Z" id="bbEwuXWQp"></path><path d="M117.92 92.44C113.08 92.44 109.17 97.2 109.17 103.06C109.17 108.92 113.08 113.67 117.92 113.67C122.75 113.67 126.67 108.92 126.67 103.06C126.67 97.2 122.75 92.44 117.92 92.44Z" id="a3sZsAE5w8"></path><path d="" id="ev5LWznkL"></path><path d="M75.04 139.7C75.17 139.87 75.3 140.06 75.4 140.26C75.9 140.15 78.4 139.57 82.91 138.54L84.88 143.81C78.51 145.16 74.97 145.91 74.26 146.06C72.64 147.17 70.59 146.48 69.68 144.52C68.92 142.88 69.18 140.82 70.32 139.54C71.66 138 73.77 138.07 75.04 139.7Z" id="a2zobRDOrA"></path><path d="M111.1 120.36L111.19 120.54L98.89 130.37C86.44 135.19 79.52 137.87 78.13 138.4C77.57 138.63 77.21 139.3 77.27 140.02C77.32 140.49 77.68 144.28 77.73 144.75C77.81 145.58 78.43 146.18 79.11 146.08C79.15 146.07 79.19 146.07 79.23 146.06C81.18 145.55 96.81 141.48 98.76 140.98C99.71 140.73 100.6 140.25 101.39 139.57C102.77 138.38 113.83 128.84 115.21 127.65C116.23 126.76 116.79 125.3 116.69 123.78C116.53 121.41 114.81 119.64 112.86 119.84C112.26 119.9 111.69 120.14 111.19 120.54C111.18 120.51 111.15 120.45 111.1 120.36Z" id="gXHwq7Sm2"></path><path d="M128.96 237.66C127.09 232.06 112.16 187.29 110.29 181.69C110.17 181.37 109.85 181.21 109.58 181.36C109.44 181.43 109.33 181.58 109.29 181.76C107.76 187.21 95.57 230.8 94.05 236.24C93.79 237.27 92.89 237.85 92.05 237.53C92.02 237.52 91.99 237.51 91.96 237.49C91.44 237.26 87.36 235.4 86.85 235.17C86.28 234.92 85.88 234.3 85.81 233.57C83.52 209.29 103.56 147.99 103.76 147.37C103.77 147.36 103.78 147.31 103.82 147.2L122.09 152.11C122.11 152.14 122.12 152.15 122.13 152.16C129.42 161.8 135.41 222.63 136.54 234.73C136.62 235.63 136.18 236.48 135.48 236.78C135.03 236.97 131.42 238.52 130.97 238.71C130.8 238.79 130.62 238.82 130.44 238.82C129.8 238.82 129.22 238.37 128.96 237.66Z" id="a4bqJ04jWn"></path><path d="M103.81 148.59C103.81 148.58 103.8 148.55 103.78 148.49C103.81 148.43 103.82 148.4 103.83 148.39C105.02 146.01 106.61 141.94 105.76 141.17C104.08 139.67 103.27 137.19 103.34 133.82C103.49 126.48 107.61 119.97 113.59 117.62C113.59 117.62 113.59 117.62 113.59 117.62C115.25 116.97 116.95 116.44 118.67 116.03C121.21 115.41 123.84 116.2 125.84 118.18C127.87 120.17 129.06 123.17 129.08 126.33C129.15 134.17 128.15 145.08 123.06 152.57C122.82 152.92 122.49 153.16 122.12 153.24C119.67 153.77 117.18 154.06 114.69 154.08C110.27 154.08 105.33 153.01 103.81 148.59Z" id="a3cjC5RDU"></path><path d="M117.21 150.91C117.39 150.97 117.56 151.04 117.72 151.14C118.1 150.72 120 148.62 123.42 144.85L127.38 148.09C122.49 153.33 119.78 156.25 119.24 156.83C118.48 158.48 116.89 159.3 115.38 158.81C113.6 158.22 112.55 155.99 113.04 153.82C113.04 153.81 113.04 153.8 113.05 153.79C113.55 151.6 115.41 150.32 117.21 150.91Z" id="c1KX0u6bxG"></path><path d="M121.5 153.43C121.28 153.2 119.48 151.42 119.26 151.2C118.57 150.52 118.47 149.3 119.03 148.46C119.11 148.35 119.2 148.24 119.3 148.15C120.24 147.27 127.78 140.26 128.72 139.39C128.95 139.17 129 138.77 128.82 138.48C128.24 137.55 123.59 130.09 123 129.16C121.61 126.93 121.74 123.8 123.32 121.76C123.32 121.76 123.32 121.76 123.32 121.76C124.99 119.58 127.76 119.31 129.69 121.14C129.7 121.15 129.71 121.16 129.73 121.19C133.37 127.52 135.4 131.03 135.8 131.74C138.16 133.97 138.57 138.1 136.72 140.95C136.42 141.42 136.07 141.84 135.68 142.19C134.46 143.32 124.69 152.35 123.47 153.48C123.2 153.73 122.86 153.86 122.52 153.86C122.15 153.87 121.79 153.71 121.5 153.43Z" id="a25IGNXTd7"></path><path d="M110.17 94.81L117.92 90.7L125.31 94.81C125.31 97.96 125.31 99.72 125.31 100.07C125.31 100.55 124.99 100.94 124.6 100.94C123.23 100.94 112.25 100.94 110.88 100.94C110.49 100.94 110.17 100.55 110.17 100.07C110.17 99.37 110.17 97.61 110.17 94.81Z" id="bkeJv6sNl"></path><path d="M122.36 76.23C125.89 74.48 130.13 75.71 133.11 78.6C136.1 81.49 137.95 85.83 138.93 90.31C139.92 94.79 140.1 99.46 140.28 104.09C144.63 105.06 147.59 111.31 146.08 116.35C144.58 121.39 139 123.9 135.15 121.26C131.3 118.63 130.19 111.55 132.97 107.38C136.23 102.48 135.6 95.31 131.56 91.35C128.88 88.72 125.22 88.08 122.03 89.7C119.89 90.79 117.2 87.96 117.56 87.48C116.42 83.06 118.82 77.99 122.36 76.23Z" id="b5Tl42dZyv"></path><path d="M53.62 115.1C53.04 114.79 52.67 114.09 52.67 113.33C52.67 111.75 52.67 99.16 52.67 97.59C52.67 96.51 53.39 95.64 54.28 95.64C57.16 95.64 80.25 95.64 83.14 95.64C84.02 95.64 84.74 96.51 84.74 97.59C84.74 99.16 84.74 111.75 84.74 113.33C84.75 114.09 84.37 114.79 83.8 115.1C83.8 115.1 83.8 115.1 83.8 115.1C79.05 117.7 73.91 119.07 68.71 119.11C63.5 119.07 58.36 117.7 53.62 115.1Z" id="ef41xXeed"></path><path d="M68.08 106.21C65.79 105.03 47.48 95.67 45.19 94.49C44.38 94.08 44 92.94 44.34 91.95C44.51 91.46 44.84 91.07 45.25 90.89C47.54 89.83 65.85 81.41 68.14 80.35C68.5 80.18 68.91 80.19 69.28 80.36C71.54 81.41 89.6 89.83 91.86 90.89C92.69 91.27 93.1 92.4 92.78 93.4C92.63 93.89 92.31 94.28 91.92 94.49C89.66 95.66 71.59 105.03 69.34 106.2C69.14 106.31 68.92 106.36 68.7 106.36C68.49 106.36 68.28 106.31 68.08 106.21Z" id="lkDUxWmzN"></path><path d="M55.35 110.98C54.17 110.98 53.21 112.15 53.21 113.58C53.21 115.01 54.17 116.17 55.35 116.17C56.53 116.17 57.48 115.01 57.48 113.58C57.48 112.15 56.53 110.98 55.35 110.98Z" id="b5ykPI94tf"></path><path d="M69.41 104.54C69.06 104.72 68.65 104.73 68.3 104.54C66.01 103.37 47.7 94 45.41 92.83C45.12 92.69 44.88 92.43 44.73 92.11C44.34 92.93 44.57 93.99 45.25 94.47C45.3 94.5 45.36 94.53 45.41 94.56C47.7 95.73 66.01 105.1 68.3 106.27C68.65 106.45 69.06 106.45 69.41 106.27C71.67 105.1 89.74 95.73 91.99 94.56C92.72 94.18 93.05 93.17 92.75 92.29C92.72 92.23 92.7 92.17 92.67 92.11C92.52 92.43 92.28 92.68 91.99 92.83C87.48 95.17 71.67 103.37 69.41 104.54Z" id="amB19iiCi"></path><path d="M55.88 113.14C55.88 112.17 55.88 107.35 55.88 98.67C62.93 95.56 66.85 93.83 67.63 93.48C67.83 93.49 67.99 93.3 68 93.06C68 92.82 67.84 92.62 67.64 92.62C66.47 93.14 57.07 97.29 55.89 97.81C55.7 97.81 55.52 97.89 55.38 98.06C55.25 98.22 55.17 98.44 55.17 98.67C55.17 100.12 55.17 111.69 55.17 113.14C55.17 113.37 55.33 113.57 55.53 113.57C55.72 113.57 55.88 113.37 55.88 113.14Z" id="e2kqO0kMxb"></path><path d="M617.34 251.43C613.82 266.6 611.87 275.02 611.47 276.71C611.47 276.71 611.55 283.08 611.75 290.07C612.5 290.07 618.51 290.07 619.26 290.07C619.52 282.08 619.4 275.33 619.4 275.33C619.12 272.15 618.44 264.18 617.34 251.43Z" id="ebOPcPAjs"></path><path d="M512.58 277.04C512.5 276.21 511.85 269.6 511.76 268.77C511.42 266.51 511.06 264.51 510.71 262.75C508.09 250.19 505.39 249.74 505.39 249.74C505.27 249.82 505.16 249.91 505.05 250.01C504.73 250.28 504.43 250.57 504.16 250.88C499.86 256 496.94 269.28 495.41 278.08C494.56 282.95 494.14 286.45 494.14 286.45C494.14 286.45 494.53 287.94 495.05 290.07C497.01 290.07 512.71 290.07 514.67 290.07C514.6 287.97 514.31 285.88 513.81 283.83C513.23 281.6 512.82 279.33 512.58 277.04Z" id="a2lcQIiRk"></path><path d="M461.14 118.43C461.14 137.27 443.22 152.54 421.11 152.54C399 152.54 381.08 137.27 381.08 118.43C381.08 99.59 399 84.32 421.11 84.32C443.22 84.32 461.14 99.59 461.14 118.43Z" id="b2y82OdD2Q"></path><path d="M487.05 229.9C487.05 229.9 500.54 221.22 500.54 217.27C500.54 217.27 509.81 187.68 514.86 199.12C514.86 199.12 507.7 226.74 507.7 226.74C507.7 226.74 494.22 249.62 486.21 253.57C486.21 253.57 471.46 255.15 471.46 255.15C471.46 254.44 471.46 250.89 471.46 244.5C476.09 238.09 478.65 234.53 479.17 233.82C480.94 231.37 483.89 229.9 487.05 229.9C487.05 229.9 487.05 229.9 487.05 229.9Z" id="a2nm9LeIo"></path><path d="M471.04 178.21C473.15 180.97 473.99 176.24 479.89 194.39C485.79 212.54 487.26 230.09 487.26 230.09C487.26 230.09 472.73 234.63 474.41 252.39C476.1 270.14 471.88 289.48 471.88 289.48C471.53 289.48 469.78 289.48 466.62 289.48L455.03 255.94C463.37 225.4 468.01 208.43 468.94 205.04C468.94 205.04 449.17 173.74 448.73 169.46C453.19 171.21 468.94 175.45 471.04 178.21Z" id="ac7tXSvoPR"></path><path d="M441.97 105.61C428.01 105.61 416.69 116.21 416.69 129.28C416.69 142.36 428.01 152.96 441.97 152.96C455.93 152.96 467.25 142.36 467.25 129.28C467.25 116.21 455.93 105.61 441.97 105.61Z" id="hjF587QIK"></path><path d="M450.82 172.29C450.82 172.29 464.3 189.65 464.3 189.65C463.57 190.41 459.92 194.23 453.34 201.09L428.06 201.09L416.69 189.26L412.05 169.13C415.84 166.29 417.95 164.71 418.37 164.4C418.37 164.4 425.11 148.62 425.11 140.33C425.11 132.04 451.66 147.04 451.66 147.04C451.49 152.09 444.5 169.13 450.82 172.29Z" id="byv0TmjDt"></path><path d="M451.66 175.05C451.66 175.05 457.56 188.47 447.02 188.86C447.02 188.86 425.96 184.13 422.59 173.47C422.59 173.47 417.95 163.61 416.69 164C416.69 164 401.94 177.42 401.94 177.42C402.25 179.05 403.79 187.2 406.57 201.88L408.26 289.48C445.17 289.48 465.68 289.48 469.78 289.48C469.78 289.48 472.31 264.22 468.09 258.3C468.09 258.3 471.88 237.39 471.88 237.39C471.88 237.39 479.05 227.13 473.57 207.41C468.09 187.68 455.87 171.5 453.77 171.5C453.34 172.21 448.71 170.32 451.66 175.05Z" id="alskFlPmS"></path><path d="M407.84 165.98C407.84 165.98 390.14 174.66 390.14 177.02C390.14 177.02 400.67 246.86 393.51 258.7C393.51 258.7 378.76 289.48 378.76 289.48C382.28 289.48 410.4 289.48 413.91 289.48C413.91 289.48 419.64 269.75 425.54 259.09C431.43 248.44 431.01 218.45 429.33 209.38C427.64 200.3 419.64 164 419.64 164C417.28 164.4 413.32 161.24 407.84 165.98Z" id="jIiRrvwJo"></path><path d="M384.61 289.48L407.38 289.48L405.31 263.43L382.56 268.56L382.56 268.56L384.61 289.48Z" id="f3iqwEwgrW"></path><path d="M491.69 289.48L613.46 289.48L624 225.16L486.21 257.52L486.21 257.52L491.69 289.48Z" id="di6TaWDsz"></path><path d="M629.89 226.74L472.31 262.25L472.31 257.12L628.63 220.82L628.63 220.82L629.89 226.74Z" id="gWvW8NTN"></path><path d="M561.21 238.18L570.48 237L566.69 230.29L562.06 231.47L562.06 231.47L561.21 238.18Z" id="c1c9dB3Lsx"></path><path d="M511.07 163.61C511.07 163.61 529.61 162.43 534.67 175.84C534.67 175.84 551.52 213.32 556.16 216.88C556.16 216.88 565.85 229.9 565.01 233.05" id="a15Pr2N1O9"></path><path d="M508.33 166.77C504.96 166.77 503.28 165.26 503.28 163.41C503.28 161.56 504.96 160.06 508.33 160.06C511.71 160.06 513.81 161.56 513.81 163.41C513.81 165.26 511.71 166.77 508.33 166.77Z" id="avPj4iRE5"></path><path d="M482.63 224.96C482.63 224.96 485.79 212.54 479.89 194.39C479.89 194.39 473.15 180.97 471.04 178.21C471.04 178.21 448.73 169.46 448.73 169.46C448.87 170.87 451.1 175.19 454.04 180.36C453.51 178.5 452.71 176.71 451.66 175.05C448.71 170.32 453.77 171.5 453.77 171.5C455.87 171.5 468.09 187.68 473.57 207.41C479.05 227.13 471.88 237.39 471.88 237.39C474.03 234.91 480.48 227.45 482.63 224.96Z" id="a1RBqusBEx"></path><path d="M448.92 169.33C448.92 169.33 451.42 178.19 453.54 179.48C453.54 179.48 468.26 193.03 468.26 193.03C468.15 192.37 467.6 189.07 466.62 183.14L459.88 173.67L458.08 172.45C453.2 170.79 450.14 169.75 448.92 169.33Z" id="ifsBFv3dk"></path><path d="M393.47 176.24C393.47 176.24 379.61 181.76 378.34 205.43C377.08 229.11 380.45 273.69 385.08 274.09C389.72 274.48 411.63 269.75 411.63 269.75C411.63 269.75 415 212.54 413.74 205.04C412.47 197.54 392.88 196.56 392.88 196.56C393 192.49 393.41 178.27 393.47 176.24Z" id="dYVwh5Bps"></path><path d="M390.52 176.24C390.52 176.24 376.66 181.76 375.39 205.43C374.13 229.11 377.5 273.69 382.13 274.09C386.77 274.48 408.68 269.75 408.68 269.75C408.68 269.75 412.05 212.54 410.79 205.04C409.52 197.54 393.93 176.24 393.93 176.24C393.25 176.24 390.86 176.24 390.52 176.24Z" id="a2Wbd7G5uI"></path><path d="M437.97 122.97C437.97 138.11 426.27 150.39 411.84 150.39C397.41 150.39 385.72 138.11 385.72 122.97C385.72 107.82 397.41 95.55 411.84 95.55C426.27 95.55 437.97 107.82 437.97 122.97Z" id="b1R9J07Ktq"></path><path d="M435.86 137.96C435.86 141.99 433.5 145.26 430.59 145.26C427.68 145.26 425.32 141.99 425.32 137.96C425.32 133.93 427.68 130.66 430.59 130.66C433.5 130.66 435.86 133.93 435.86 137.96Z" id="e4tejDQOBq"></path><path d="M385.72 75.42C373.85 75.42 364.23 84.43 364.23 95.55C364.23 106.66 373.85 115.67 385.72 115.67C397.58 115.67 407.21 106.66 407.21 95.55C407.21 84.43 397.58 75.42 385.72 75.42Z" id="f1xPLKiEzA"></path><path d="M359.6 102.86C358.37 100.61 357.61 98.16 357.36 95.64C355.57 106.63 363.63 116.89 375.36 118.57C387.09 120.24 398.05 112.69 399.84 101.71C400.11 100.07 400.16 98.41 399.99 96.76C398.95 103.18 394.67 108.73 388.49 111.67C377.92 116.71 364.98 112.76 359.6 102.86Z" id="bWB1MeAjU"></path><path d="M377.62 70.63C379.74 69.07 382.16 67.9 384.75 67.19C372.89 67.65 363.68 77.03 364.18 88.13C364.67 99.23 374.69 107.86 386.54 107.39C388.31 107.32 390.06 107.05 391.75 106.58C384.83 106.86 378.19 103.99 373.93 98.87C366.62 90.12 368.27 77.47 377.62 70.63Z" id="f1y5zoDmd8"></path><path d="M458.61 110.94C458.61 116.6 451.82 121.19 443.44 121.19C435.07 121.19 428.27 116.6 428.27 110.94C428.27 105.27 435.07 100.68 443.44 100.68C451.82 100.68 458.61 105.27 458.61 110.94Z" id="b2iKpNjmn"></path><path d="M215.31 436.55C215.31 434.7 216.53 433.19 218.04 433.19C219.56 433.19 220.78 434.7 220.78 436.55C220.78 442.79 220.78 492.7 220.78 498.94C220.78 500.8 219.56 502.3 218.04 502.3C216.53 502.3 215.31 500.8 215.31 498.94C215.31 486.46 215.31 442.79 215.31 436.55Z" id="aoHdJTFuH"></path><path d="M208.76 436.55C208.76 434.7 209.98 433.19 211.49 433.19C213 433.19 214.23 434.7 214.23 436.55C214.23 442.79 214.23 492.7 214.23 498.94C214.23 500.8 213 502.3 211.49 502.3C209.98 502.3 208.76 500.8 208.76 498.94C208.76 486.46 208.76 442.79 208.76 436.55Z" id="c75i3KPKI"></path><path d="M202.2 436.55C202.2 434.7 203.43 433.19 204.94 433.19C206.45 433.19 207.68 434.7 207.68 436.55C207.68 442.79 207.68 492.7 207.68 498.94C207.68 500.8 206.45 502.3 204.94 502.3C203.43 502.3 202.2 500.8 202.2 498.94C202.2 486.46 202.2 442.79 202.2 436.55Z" id="a1Ro4S5YJi"></path><path d="M446.3 597.9C446.29 597.9 446.24 597.87 446.14 597.83C446.19 597.57 446.21 597.42 446.22 597.39C444.36 592.79 445.01 586.48 447.88 581.29C450.49 576.57 454.46 573.14 457.96 570.11C459.19 569.05 460.89 569.41 461.76 570.92C462.19 571.66 462.35 572.59 462.21 573.48C462.08 574.27 461.08 580.58 460.95 581.37C460.05 587.06 458.97 592.45 455.78 595.8C454.03 597.6 451.82 598.59 449.54 598.59C448.43 598.59 447.34 598.36 446.3 597.9Z" id="b299DmbpZG"></path><path d="M451.65 608.11C451.65 608.1 451.62 608.04 451.56 607.93C451.69 607.79 451.76 607.71 451.78 607.7C452.34 603.95 454.98 600.6 458.51 599.17C461.73 597.86 465.28 598.07 468.41 598.26C468.41 598.26 468.41 598.26 468.41 598.26C469.57 598.33 470.46 599.53 470.4 600.95C470.38 601.63 470.13 602.27 469.71 602.73C469.36 603.12 466.54 606.24 466.19 606.63C463.63 609.47 461.08 612.03 458 612.21C457.91 612.22 457.83 612.22 457.74 612.22C454.57 611.17 452.54 609.8 451.65 608.11Z" id="c26TYENEis"></path><path d="M446.12 602.02C446.44 597.75 447.48 593.58 449.59 590.16C450.71 588.36 452.07 586.81 453.62 585.58C454.03 585.26 454.4 586.06 454 586.38C451.31 588.52 449.24 591.65 448.09 595.33C446.8 599.43 446.59 603.91 446.81 608.27C446.95 610.91 447.23 613.53 447.52 616.14C447.57 616.39 447.46 616.63 447.26 616.71C447.06 616.78 446.86 616.63 446.81 616.39C446.81 616.39 446.81 616.39 446.81 616.39C446.29 611.64 445.75 606.82 446.12 602.02Z" id="a1QQmN1weR"></path><path d="M455.94 605.41C457.38 604.86 458.89 604.67 460.39 604.83C460.87 604.89 460.75 605.8 460.28 605.75C457.75 605.49 455.23 606.33 453.16 608.11C451.16 609.82 449.59 612.2 448.27 614.73C447.46 616.28 446.74 617.89 446.01 619.5C445.78 620.01 445.1 619.64 445.34 619.12C447.84 613.56 450.75 607.39 455.94 605.41Z" id="g9FPrqgIx"></path><path d="M444.21 619.04L446.74 619.11L431.49 519.17L428.97 519.76L432.95 545.68L420.12 545.68L424.1 519.76L421.57 519.17L406.46 619.11L408.86 619.04L416.8 567.28L436.26 567.28L444.21 619.04ZM417.39 563.44L419.53 549.52L433.54 549.52L435.67 563.44L417.39 563.44Z" id="b5pULJPq8"></path><path d="M333.81 467.71C333.81 466.74 335.04 465.95 336.55 465.95C338.06 465.95 339.28 466.74 339.28 467.71C339.28 470.99 339.28 497.25 339.28 500.53C339.28 501.51 338.06 502.3 336.55 502.3C335.04 502.3 333.81 501.51 333.81 500.53C333.81 493.97 333.81 470.99 333.81 467.71Z" id="bezkplrbH"></path><path d="M327.26 467.71C327.26 466.74 328.49 465.95 330 465.95C331.51 465.95 332.73 466.74 332.73 467.71C332.73 470.99 332.73 497.25 332.73 500.53C332.73 501.51 331.51 502.3 330 502.3C328.49 502.3 327.26 501.51 327.26 500.53C327.26 493.97 327.26 470.99 327.26 467.71Z" id="f1UdS74JsY"></path><path d="M320.71 467.71C320.71 466.74 321.94 465.95 323.44 465.95C324.95 465.95 326.18 466.74 326.18 467.71C326.18 470.99 326.18 497.25 326.18 500.53C326.18 501.51 324.95 502.3 323.44 502.3C321.94 502.3 320.71 501.51 320.71 500.53C320.71 493.97 320.71 470.99 320.71 467.71Z" id="a17xx0e9m9"></path><path d="M375.56 475.9C373.5 474.23 356.99 460.86 354.92 459.18C355.23 459.02 355.49 458.74 355.66 458.39C355.66 458.39 355.66 458.39 355.66 458.39C356.09 457.47 355.84 456.3 355.09 455.76C354.92 455.64 353.57 454.68 353.4 454.56C352.65 454.04 351.69 454.35 351.26 455.27C351.15 455.51 351.08 455.78 351.06 456.06C349.57 454.85 337.65 445.19 336.16 443.99C335.15 440.98 333.11 438.67 330.58 437.67C330.58 437.32 330.58 435.54 330.58 432.35L325.11 432.35C325.11 435.54 325.11 437.32 325.11 437.67C321.38 439.14 318.85 443.39 318.85 448.19C318.85 448.28 318.85 448.76 318.85 449.63C322.13 449.63 323.96 449.63 324.32 449.63C324.32 452.01 325.9 453.95 327.84 453.95C329.79 453.95 331.36 452.01 331.36 449.63C331.73 449.63 333.55 449.63 336.84 449.63C336.84 448.76 336.84 448.28 336.84 448.19C336.84 447.5 336.79 446.81 336.68 446.13C339.19 448.17 351.76 458.34 374.37 476.66C364.98 490.68 359.76 498.46 358.72 500.02C358.59 500.02 358.47 500.02 358.35 500.02C357.1 500.02 355.89 500.06 354.74 500.12C354.81 499.88 354.84 499.63 354.83 499.38C354.78 498.32 354.05 497.51 353.18 497.56C352.99 497.57 351.43 497.67 351.23 497.69C350.37 497.74 349.71 498.64 349.75 499.7C349.76 500 349.84 500.29 349.96 500.55C346.51 501 344.27 501.62 344.27 501.94C344.27 502.46 350.28 501.96 357.8 501.94C357.91 502.31 358.24 502.51 358.55 502.38C358.65 502.34 358.74 502.26 358.8 502.16C358.82 502.14 358.93 501.96 358.95 501.94C366.45 501.97 372.43 502.46 372.43 501.94C372.43 501.45 367.11 500.24 360.22 500.05C361.76 497.74 374.14 479.27 375.69 476.96C375.8 476.8 375.84 476.6 375.82 476.4C375.79 476.2 375.7 476.02 375.56 475.9Z" id="ayLlej7PC"></path><path d="M328.19 619.28C326.17 619.28 324.52 617.26 324.52 614.77C324.52 605.07 324.52 527.43 324.52 517.73C324.52 515.5 323.05 513.7 321.24 513.7C309.97 513.7 219.79 513.7 208.52 513.7C206.71 513.7 205.24 515.5 205.24 517.73C205.24 527.43 205.24 605.07 205.24 614.77C205.23 617.26 203.59 619.28 201.56 619.28C201.4 619.28 200.08 619.28 199.91 619.28C197.89 619.28 196.24 617.26 196.24 614.77C196.24 604.55 196.24 522.73 196.24 512.5C196.25 506.54 200.18 501.71 205.04 501.7C221.66 501.7 354.63 501.7 371.26 501.7C376.11 501.71 380.05 506.54 380.06 512.5C380.06 522.73 380.06 604.55 380.06 614.77C380.05 617.26 378.41 619.28 376.38 619.28C376.38 619.28 333.01 619.28 328.19 619.28Z" id="b3o72NLVVb"></path><path d="M379.86 526.9C379.86 526.9 379.86 526.9 379.86 526.9C379.86 528.62 379.86 529.58 379.86 529.78C379.86 529.78 379.86 529.78 379.86 529.78C346.77 529.78 328.39 529.78 324.72 529.78C324.72 529.78 324.72 529.78 324.72 529.78C324.72 528.05 324.72 527.09 324.72 526.9C324.72 526.9 324.72 526.9 324.72 526.9C357.8 526.9 376.18 526.9 379.86 526.9Z" id="cUzuvCs0M"></path><path d="M379.86 565.77C379.86 565.77 379.86 565.77 379.86 565.77C379.86 567.5 379.86 568.46 379.86 568.65C379.86 568.65 379.86 568.65 379.86 568.65C346.77 568.65 328.39 568.65 324.72 568.65C324.72 568.65 324.72 568.65 324.72 568.65C324.72 566.92 324.72 565.96 324.72 565.77C324.72 565.77 324.72 565.77 324.72 565.77C357.8 565.77 376.18 565.77 379.86 565.77Z" id="g6Ww0Aga9"></path><path d="M277.48 500.41L276.4 490.66L261.92 490.66L260.74 500.37C259.89 500.89 259.42 501.18 259.32 501.24C259.15 501.34 259.09 501.59 259.17 501.79C259.23 501.93 259.34 502.02 259.47 502.02C261.42 502.02 276.99 502.02 278.94 502.02C279.12 502.02 279.27 501.83 279.27 501.61C279.27 501.44 279.19 501.29 279.07 501.23C278.86 501.12 278.33 500.84 277.48 500.41Z" id="b54LsMzGc"></path><path d="M233.68 491.95C232.9 491.95 232.27 491.18 232.27 490.23C232.27 489.41 232.27 485.3 232.27 477.92L306.2 477.92C306.2 485.3 306.2 489.41 306.2 490.23C306.2 491.18 305.57 491.95 304.8 491.95C304.8 491.95 240.79 491.95 233.68 491.95Z" id="m5hTZBjn5T"></path><path d="M306.28 483.74L232.2 483.74C232.2 452.14 232.2 434.59 232.2 431.08C232.21 429.93 232.97 428.99 233.9 428.99C240.97 428.99 297.51 428.99 304.58 428.99C305.52 428.99 306.28 429.93 306.28 431.08C306.28 438.1 306.28 455.65 306.28 483.74Z" id="c1dw6xWqpe"></path><path d="M236.63 479.91C235.91 479.91 235.32 479.19 235.32 478.31C235.32 473.92 235.32 438.81 235.32 434.42C235.32 433.53 235.91 432.81 236.63 432.81C243.15 432.81 295.33 432.81 301.85 432.81C302.58 432.81 303.16 433.53 303.16 434.42C303.16 438.81 303.16 473.92 303.16 478.31C303.16 479.19 302.58 479.91 301.85 479.91C288.81 479.91 243.15 479.91 236.63 479.91Z" id="g1y5dCHA4"></path><path d="M379.86 442.33C379.89 442.64 379.91 442.95 379.9 443.27C380.85 443.72 385.62 445.97 394.2 450.02L387.72 455.7C380.17 451.33 375.97 448.9 375.13 448.42C372.75 448.12 371.01 445.52 371.25 442.59C371.45 440.15 372.99 438.19 374.97 437.85C377.33 437.44 379.52 439.44 379.86 442.33Z" id="b5EicCVeZp"></path><path d="M429.27 434.54C430.72 437.77 431.53 439.57 431.69 439.93C431.11 443.36 429.6 446.44 427.4 448.67C423.7 452.51 404.33 466.78 404.33 466.78C402.7 465.78 394.55 460.76 379.88 451.72L384.16 444.75L403.35 452.64C403.35 452.64 403.35 452.64 403.35 452.64C410.48 444.39 419.07 438.29 428.45 434.84C428.56 434.8 428.83 434.7 429.27 434.54Z" id="b3cVf85ob8"></path><path d="M443.86 516.22C443.86 520.44 435.31 523.85 424.77 523.85C414.23 523.85 405.69 520.44 405.69 516.22C405.69 512.01 414.23 508.59 424.77 508.59C435.31 508.59 443.86 512.01 443.86 516.22Z" id="d2TzKWptZG"></path><path d="M376.9 610.86L379.89 586.05L387.37 588.59L381.96 612.57L381.96 612.57L376.9 610.86Z" id="c2RgLQnurc"></path><path d="M381.9 619.04L365.56 613.5C365.59 613.35 365.61 613.26 365.62 613.24C366.59 608.93 370.22 606.41 373.73 607.6C373.73 607.6 373.74 607.6 373.74 607.6L383.71 610.98L381.9 619.04Z" id="ecMTMlMbI"></path><path d="M362.46 610.05L368.37 586.05L375.46 589.89L367.27 612.66L367.27 612.66L362.46 610.05Z" id="e6iSp1Ce8"></path><path d="M366.44 619.04L350.93 610.64C350.99 610.49 351.02 610.41 351.02 610.4C352.49 606.31 356.39 604.46 359.72 606.26C359.72 606.26 359.72 606.26 359.72 606.26L369.19 611.39L366.44 619.04Z" id="e68bn4bnvT"></path><path d="M439.62 497.57C439.62 497.57 442.17 507.26 426.53 519.51C425.19 521.16 418.48 529.37 406.39 544.14L385.46 605.58L373.04 598.74L375.47 590.76L377.11 585.4L377.95 582.66L378.84 579.72L392.15 536.15L403.32 512.15L403.64 499.12L406.39 489.94L426.33 481.26C433.42 489.96 437.85 495.39 439.62 497.57Z" id="b3OZkR0hMt"></path><path d="M429.46 498.05C429.46 498.05 432 507.74 416.36 519.99C415.02 521.64 408.31 529.85 396.22 544.62L375.29 606.06L362.87 599.22L365.31 591.24L366.94 585.88L367.78 583.14L368.67 580.2L381.98 536.63C384.22 531.81 385.47 529.13 385.72 528.6C390.65 517.99 396.65 508.19 403.57 499.41C403.81 499.1 405.04 497.55 407.24 494.76L407.63 487.56L416.16 481.74C423.25 490.44 427.68 495.87 429.46 498.05Z" id="b1Ui6SNeIo"></path><path d="M417.41 450.6L423.66 434.29C430.22 433.19 433.86 432.58 434.58 432.46C434.58 432.46 443.11 445.79 440.87 464.52C440.03 471.55 439.35 478.54 439.31 484.68C439.3 486.31 440.46 487.04 440.48 488.52C440.5 489.97 438.27 492.33 438.92 493.32C439.84 494.68 440.38 496.36 440.48 498.12C439.71 500.38 416.25 488.12 406.39 489.94C407.86 484.69 411.53 471.58 417.41 450.6Z" id="a2vwJY60Ae"></path><path d="M415.94 411.86C413.15 417.61 414.69 425.05 419.38 428.47C424.07 431.89 430.13 430 432.92 424.24C435.7 418.49 434.16 411.05 429.47 407.63C424.78 404.21 418.72 406.1 415.94 411.86Z" id="f1KZneIpM7"></path><path d="M430.67 414.92C430.63 416.23 430.94 417.51 431.53 418.6C432.08 419.75 431.42 426.68 431.42 426.68C447.6 412.84 434.81 398.93 429.81 400.17C429.92 398.41 425.84 399.11 425.84 399.11C424.29 396.14 420.88 400.08 420.88 400.08C420.95 399.94 421.47 398.86 421.54 398.72C418.89 399.55 416.28 409.58 416.28 409.58C417.18 413.9 430.85 411.94 430.74 413.7C430.72 414.02 430.7 414.44 430.67 414.92Z" id="bd4K8Tgd"></path><path d="M381.01 427.18C381.38 425.85 380.91 424.4 379.91 423.74C378.01 422.49 362.79 412.48 360.88 411.23C360.26 410.81 359.52 410.78 358.87 411.13C358.21 411.48 357.72 412.19 357.54 413.04C355.32 423.36 351.16 432.89 345.39 440.87C344.9 441.53 344.7 442.42 344.82 443.29C344.95 444.15 345.38 444.89 346.01 445.3C347.91 446.55 363.13 456.55 365.03 457.81C366.04 458.46 367.28 458.13 367.98 457.02C373.54 447.95 377.93 437.88 381.01 427.18Z" id="c3NVS9H0P"></path><path d="M365.8 456.05C363.9 454.8 348.68 444.79 346.78 443.54C346.59 443.42 346.46 443.2 346.42 442.94C346.38 442.67 346.45 442.4 346.6 442.19C352.54 433.98 356.83 424.17 359.11 413.55C359.16 413.28 359.31 413.06 359.52 412.95C359.71 412.85 359.93 412.86 360.12 412.98C362.02 414.23 377.24 424.24 379.14 425.49C379.44 425.69 379.58 426.12 379.48 426.51C376.46 437.03 372.14 446.91 366.68 455.83C366.47 456.15 366.1 456.24 365.8 456.05Z" id="e1h7qTqQfB"></path><path d="M373.15 434.31C374.45 435.25 375.63 432.76 374.33 431.82C373.02 430.88 362.52 423.33 361.21 422.38C359.9 421.44 358.72 423.93 360.02 424.87C360.02 424.87 371.83 433.36 373.15 434.31Z" id="e38SREjpZS"></path><path d="M370.8 439.59C372.1 440.52 373.29 438.04 371.98 437.1C370.67 436.16 360.17 428.61 358.86 427.66C357.56 426.72 356.37 429.21 357.68 430.15C357.68 430.15 369.49 438.64 370.8 439.59Z" id="b1xDdD83Zj"></path><path d="M368.06 445.34C369.37 446.28 370.55 443.8 369.25 442.86C367.93 441.91 357.44 434.36 356.12 433.42C354.82 432.48 353.64 434.97 354.94 435.91C354.94 435.91 366.75 444.4 368.06 445.34Z" id="a2Fea5dzTp"></path><path d="M365.32 450.14C366.63 451.08 367.81 448.6 366.51 447.66C365.2 446.71 354.7 439.16 353.39 438.22C352.08 437.28 350.9 439.77 352.2 440.71C352.2 440.71 364.01 449.2 365.32 450.14Z" id="b4zHdM6fTp"></path><path d="M416.95 509.82C417.19 510.48 417.14 511.24 416.82 511.85C416.44 512.59 415.74 512.97 415.05 512.82C414.93 512.8 414.82 512.76 414.71 512.71C414.27 512.5 413.92 512.09 413.73 511.57C413.24 510.21 409.3 499.34 408.81 497.98C408.41 496.89 408.81 495.61 409.7 495.13C410.59 494.64 411.63 495.13 412.02 496.22C412.02 496.22 416.46 508.46 416.95 509.82Z" id="gz2rLmoCV"></path><path d="M416.55 508.72L417.54 511.46C417.84 513.8 418.01 515.09 418.04 515.35C418.13 515.99 417.77 516.6 417.25 516.7C416.91 516.77 416.56 516.61 416.35 516.28C416.21 516.07 415.53 515.03 414.31 513.16L413.33 510.47L416.55 508.72Z" id="bIkQhcpXT"></path><path d="M408.42 497.88C408.5 498.52 408.99 498.96 409.51 498.86C409.6 498.84 409.68 498.81 409.75 498.77C409.8 498.75 410.03 498.62 410.45 498.39C411.26 500.63 411.71 501.87 411.8 502.12C411.89 502.36 412.12 502.47 412.32 502.36C412.52 502.25 412.61 501.97 412.52 501.73C412.43 501.48 411.98 500.24 411.17 498C411.59 497.77 411.82 497.64 411.87 497.62C412.35 497.36 412.57 496.66 412.36 496.07C412.32 495.97 412.28 495.88 412.22 495.8C411.94 495.38 409.69 491.94 409.4 491.52C409.07 491.01 408.47 490.93 408.06 491.34C407.79 491.6 407.66 492.02 407.71 492.44C407.71 492.44 408.35 497.34 408.42 497.88Z" id="a2958YrIQt"></path><path d="M414.76 497.99C415.01 498.04 415.25 498.12 415.49 498.23C416.14 497.26 419.38 492.42 425.22 483.7L427.57 493.03C421.81 500.45 418.62 504.58 417.98 505.4C417 508.09 414.44 509.29 412.25 508.09C410.42 507.09 409.39 504.68 409.75 502.26C410.17 499.39 412.41 497.47 414.76 497.99Z" id="a5ubnJVYor"></path><path d="M422 501.32L417.71 493.73L429.88 473.83L423.61 457.35L424.07 437.75L429.24 436.58C429.28 436.6 429.3 436.62 429.31 436.62C431.83 438.4 433.77 441.18 434.82 444.5C436.12 448.46 439 463.34 440.6 471.85C441.24 475.21 440.42 478.73 438.43 481.16C436.24 483.85 430.76 490.57 422 501.32Z" id="a2KSzJgttf"></path><path d="M301.36 465.75C299.9 467.05 292.59 473.58 279.43 485.32L273.41 482.05L268.19 492.56C274.32 496.8 277.72 499.16 278.4 499.63C280.1 500.8 282.22 500.46 283.61 498.79C285.81 496.15 303.47 474.98 305.68 472.34C308.75 473.3 311.88 471.02 312.66 467.25C313.44 463.48 311.58 459.64 308.51 458.68C305.43 457.73 302.31 460.01 301.53 463.78C301.47 464.06 301.43 464.35 301.4 464.63C301.36 465 301.35 465.38 301.36 465.75Z" id="b8xbEVaBS"></path><path d="M272.33 499.12C271.63 500.55 270.12 501.01 268.95 500.15C268.85 500.08 268.75 499.99 268.66 499.9C267.7 498.93 260.04 491.21 259.08 490.25C255.86 487.84 254.83 482.68 256.79 478.72C258.74 474.78 262.92 473.52 266.15 475.89C267.29 476.47 276.42 481.12 277.56 481.7C278.81 482.34 279.41 484.1 278.89 485.64C278.84 485.78 278.78 485.91 278.72 486.04C278.72 486.04 272.97 497.81 272.33 499.12Z" id="a2jBHF6fih"></path><path d="M251.32 599.7C251.32 599.7 251.32 599.7 251.32 599.7C251.32 584.41 251.32 575.91 251.32 574.21C251.32 574.21 251.32 574.21 251.32 574.21C258.84 574.21 263.02 574.21 263.86 574.21C263.86 574.21 263.86 574.21 263.86 574.21C263.86 589.51 263.86 598 263.86 599.7C263.86 599.7 263.86 599.7 263.86 599.7C256.34 599.7 252.16 599.7 251.32 599.7Z" id="a16IaPI8pp"></path><path d="M263.23 587.7C263.23 587.7 263.23 587.7 263.23 587.7C281.28 602.73 291.31 611.08 293.31 612.75C293.31 612.75 293.31 612.75 293.31 612.75C292.35 614.5 291.81 615.47 291.71 615.66C291.71 615.66 291.71 615.66 291.71 615.66C273.65 600.63 263.63 592.28 261.62 590.61C261.62 590.61 261.62 590.61 261.62 590.61C262.58 588.86 263.12 587.89 263.23 587.7Z" id="a7xjjTx1k"></path><path d="M251.95 587.7C251.95 587.7 251.95 587.7 251.95 587.7C252.91 589.44 253.45 590.41 253.56 590.61C253.56 590.61 253.56 590.61 253.56 590.61C235.51 605.64 225.48 613.99 223.47 615.66C223.47 615.66 223.47 615.66 223.47 615.66C222.51 613.91 221.97 612.94 221.86 612.75C221.86 612.75 221.86 612.75 221.86 612.75C239.91 597.72 249.94 589.37 251.95 587.7Z" id="iaVJe5e7w"></path><path d="M292.51 609.37C290.33 609.37 288.57 611.54 288.57 614.21C288.57 616.88 290.33 619.04 292.51 619.04C294.69 619.04 296.45 616.88 296.45 614.21C296.45 611.54 294.69 609.37 292.51 609.37Z" id="cR1hkNFjL"></path><path d="M257.41 609.37C255.23 609.37 253.47 611.54 253.47 614.21C253.47 616.88 255.23 619.04 257.41 619.04C259.59 619.04 261.35 616.88 261.35 614.21C261.35 611.54 259.59 609.37 257.41 609.37Z" id="eVkR2vfQt"></path><path d="M222.67 609.37C220.49 609.37 218.73 611.54 218.73 614.21C218.73 616.88 220.49 619.04 222.67 619.04C224.84 619.04 226.61 616.88 226.61 614.21C226.61 611.54 224.84 609.37 222.67 609.37Z" id="beZUURMDH"></path><path d="M258.84 589.15C258.84 589.15 258.84 589.15 258.84 589.15C258.84 604.18 258.84 612.54 258.84 614.21C258.84 614.21 258.84 614.21 258.84 614.21C257.12 614.21 256.17 614.21 255.98 614.21C255.98 614.21 255.98 614.21 255.98 614.21C255.98 599.17 255.98 590.82 255.98 589.15C255.98 589.15 255.98 589.15 255.98 589.15C257.7 589.15 258.65 589.15 258.84 589.15Z" id="hEh4rofsI"></path><path d="M254.9 585.64C254.9 585.64 254.9 585.64 254.9 585.64C254.9 565.33 254.9 554.05 254.9 551.8C254.9 551.8 254.9 551.8 254.9 551.8C258.13 551.8 259.92 551.8 260.28 551.8C260.28 551.8 260.28 551.8 260.28 551.8C260.28 572.1 260.28 583.38 260.28 585.64C260.28 585.64 260.28 585.64 260.28 585.64C257.05 585.64 255.26 585.64 254.9 585.64Z" id="bbV5Cu4ww"></path><path d="M242.19 549.16C242.19 546.13 244.19 543.67 246.66 543.67C249.06 543.67 268.26 543.67 270.66 543.67C273.13 543.67 275.14 546.13 275.14 549.16C275.14 549.95 275.14 556.28 275.14 557.07C275.14 560.1 273.13 562.56 270.66 562.56C268.26 562.56 249.06 562.56 246.66 562.56C244.19 562.56 242.19 560.1 242.19 557.07C242.19 555.49 242.19 549.95 242.19 549.16Z" id="e4DxR3Yd6"></path><path d="M292.17 611.15L295.32 590.02L285.53 590.02L285.53 611.15L285.53 611.15L292.17 611.15Z" id="e21Any99Bl"></path><path d="M283.84 619.04L305.24 619.04C305.24 618.84 305.24 618.73 305.24 618.71C305.24 613.06 301.51 608.49 296.91 608.49C296.91 608.49 296.91 608.49 296.91 608.49C296.91 608.49 296.91 608.49 296.91 608.49L283.84 608.49L283.84 619.04Z" id="a3sWVHn5lf"></path><path d="M308.69 561.64C310.98 555.28 308.9 547.82 303.91 544.51C302 543.25 292.43 536.96 275.21 525.63L262.12 524.26L250.04 522.92C249.99 523.02 249.96 523.08 249.95 523.1C249.84 523.33 247.24 528.83 249 534.87C250.33 539.45 253.8 543.02 259.29 545.5C272.13 551.27 286.96 556.21 292.74 558.07C293.26 558.23 293.69 558.65 293.94 559.23C294.18 559.81 294.22 560.48 294.04 561.09C292.82 564.48 282.98 591.59 281.75 594.98C281.29 596.53 281.94 598.25 283.2 598.82C283.4 598.9 283.61 598.96 283.82 598.99C284.73 599.07 292.08 599.72 293 599.81C293.12 599.82 293.21 599.82 293.23 599.82C294.19 599.82 295.06 599.13 295.46 598.05C298.1 590.77 307.36 565.28 308.69 561.64Z" id="b1BwEqjUjt"></path><path d="M287.83 611.15L290.99 590.02L281.2 590.02L281.2 611.15L281.2 611.15L287.83 611.15Z" id="am5bnWM9J"></path><path d="M279.51 619.04L300.9 619.04C300.9 618.84 300.9 618.73 300.9 618.71C300.9 613.06 297.18 608.49 292.58 608.49C292.58 608.49 292.58 608.49 292.58 608.49C292.58 608.49 292.58 608.49 292.58 608.49L279.51 608.49L279.51 619.04Z" id="foma26rzW"></path><path d="M303.81 563.63C306.1 557.27 304.03 549.82 299.04 546.51C297.13 545.25 287.56 538.95 270.34 527.62L257.25 526.26L247.79 525.25C247.79 525.15 247.79 525.1 247.79 525.09C247.68 525.32 245.08 530.83 246.83 536.86C248.17 541.44 248.92 545.02 254.42 547.49C267.26 553.27 282.09 558.2 287.87 560.06C288.39 560.22 288.82 560.65 289.07 561.23C289.31 561.8 289.35 562.48 289.17 563.09C287.94 566.47 278.11 593.58 276.88 596.97C276.42 598.52 277.07 600.24 278.33 600.81C278.53 600.9 278.73 600.95 278.94 600.98C279.86 601.06 287.21 601.72 288.13 601.8C288.24 601.81 288.34 601.81 288.36 601.81C289.32 601.81 290.19 601.12 290.58 600.04C293.23 592.76 302.49 567.27 303.81 563.63Z" id="f5j6B2CD13"></path><path d="M256.41 435.68C254.72 444.44 259.13 453.24 266.27 455.32C273.42 457.41 280.59 451.99 282.28 443.23C283.98 434.46 279.57 425.66 272.43 423.58C265.28 421.5 258.11 426.91 256.41 435.68Z" id="a1GPtSjqTt"></path><path d="M328.21 472.29C328.58 470.97 328.11 469.51 327.11 468.85C325.21 467.6 309.99 457.59 308.09 456.34C307.46 455.93 306.72 455.89 306.07 456.24C305.41 456.59 304.92 457.3 304.74 458.15C302.52 468.47 298.36 478 292.59 485.98C292.11 486.64 291.9 487.53 292.03 488.4C292.15 489.26 292.58 490 293.21 490.41C295.11 491.66 310.33 501.67 312.24 502.92C313.24 503.58 314.49 503.24 315.18 502.14C320.74 493.06 325.13 483 328.21 472.29Z" id="akwNeRX04"></path><path d="M313 501.16C311.1 499.91 295.88 489.9 293.98 488.65C293.79 488.53 293.66 488.31 293.62 488.06C293.58 487.79 293.65 487.51 293.8 487.31C299.74 479.09 304.03 469.28 306.31 458.66C306.36 458.39 306.51 458.17 306.72 458.07C306.91 457.96 307.13 457.97 307.32 458.1C309.22 459.35 324.44 469.35 326.34 470.61C326.64 470.8 326.78 471.23 326.68 471.63C323.66 482.14 319.34 492.03 313.88 500.94C313.67 501.26 313.3 501.36 313 501.16Z" id="b1RsO0Tg6n"></path><path d="M320.35 479.42C321.65 480.36 322.83 477.87 321.53 476.93C320.22 475.99 309.72 468.44 308.41 467.49C307.1 466.56 305.92 469.04 307.22 469.98C307.22 469.98 319.03 478.48 320.35 479.42Z" id="b7KxG5jPAX"></path><path d="M318 484.7C319.31 485.64 320.49 483.15 319.18 482.21C317.87 481.27 307.37 473.72 306.06 472.77C304.76 471.83 303.57 474.32 304.88 475.26C304.88 475.26 316.69 483.75 318 484.7Z" id="cfgXi1slk"></path><path d="M314.97 489.21C316.16 490.08 317.43 488.29 316.24 487.43C315.05 486.56 305.5 479.6 304.31 478.73C303.12 477.87 301.85 479.66 303.03 480.52C305.42 482.26 313.78 488.34 314.97 489.21Z" id="bAwzoqDUf"></path><path d="M312.52 495.26C313.83 496.2 315.01 493.71 313.71 492.77C312.4 491.83 301.9 484.28 300.59 483.33C299.28 482.39 298.1 484.88 299.4 485.82C299.4 485.82 311.21 494.31 312.52 495.26Z" id="a2sccGckMX"></path><path d="M277.02 526.95L250.7 526.76C250.7 526.62 250.7 526.54 250.7 526.53C250.2 510.33 251.81 495.66 255.63 481.67C255.68 481.15 255.74 480.59 255.8 480.04C256.45 473.78 256.97 468.81 261.82 466.96C261.42 466.3 261.18 465.51 261.13 464.69C261.07 463.58 261.37 462.49 261.97 461.66C262.55 460.86 263.36 460.38 264.22 460.32C265.16 460.28 272.65 459.97 273.59 459.93C274.08 459.92 274.56 460.12 274.95 460.49C276.42 461.83 276.88 464.29 276.04 466.29C275.93 466.56 275.88 466.68 275.87 466.73C276.2 468.87 277.19 471.42 278.23 474.11C279.73 477.96 281.43 482.33 281.86 487C282.1 489.52 282 492.07 281.57 494.56C281.38 495.89 281.33 497.26 281.44 498.61C281.53 500.62 281.61 502.51 280.68 504.35C280.45 504.84 280.18 505.37 279.86 505.96C279.77 506.21 279.34 507.49 278.56 509.77L277.02 526.95Z" id="d1Bfl5p4ky"></path><path d="M237.53 483.65C237.54 479.17 240.49 475.55 244.14 475.54C244.32 475.54 245.78 475.54 245.97 475.54C249.61 475.55 252.57 479.17 252.57 483.65C252.57 490.25 252.57 543.02 252.57 549.62C252.57 554.1 249.61 557.72 245.97 557.73C245.78 557.73 244.32 557.73 244.14 557.73C240.49 557.72 237.54 554.1 237.53 549.62C237.53 536.43 237.53 490.25 237.53 483.65Z" id="ab0yNHCxA"></path><path d="M307.58 491.16C305.78 491.32 296.76 492.13 280.53 493.58L276.82 486.9L267.87 492.45C271.25 500.02 273.13 504.22 273.5 505.06C274.44 507.15 276.39 508.24 278.28 507.72C281.3 506.91 305.4 500.37 308.41 499.55C310.61 502.36 314.24 502.44 316.53 499.75C318.81 497.05 318.88 492.59 316.69 489.79C314.49 486.98 310.85 486.89 308.57 489.59C308.4 489.79 308.24 490.01 308.09 490.24C307.9 490.53 307.73 490.83 307.58 491.16Z" id="bVb91bv9C"></path><path d="M268.56 500.69C267.36 501.45 265.87 500.87 265.25 499.38C265.2 499.25 265.15 499.12 265.11 498.98C264.71 497.54 261.53 486.02 261.13 484.58C259.43 480.46 260.76 475.44 264.1 473.33C259.2 476.42 269.41 467.65 273.31 476.96C274.03 478.19 279.78 488.05 280.5 489.28C281.29 490.64 281.04 492.53 279.93 493.5C279.83 493.58 279.73 493.66 279.62 493.73C279.62 493.73 269.67 500 268.56 500.69Z" id="j4w3l8pKXN"></path><path d="M260.66 453.89C254.64 448.09 252.52 438.07 255.48 429.4C256.2 427.28 257.55 424.4 259.89 422.71C261.57 421.49 263.55 421.05 265.27 420.74C266.76 420.46 268.26 420.24 269.75 420.09C271.52 419.9 273.57 419.78 275.44 420.65C276.81 421.29 277.97 422.41 279.1 423.5C279.49 423.88 279.9 424.28 280.3 424.64C281.29 425.58 282.42 426.26 283.64 426.63C284.15 426.76 284.6 427.16 284.86 427.73C285.12 428.3 285.17 428.99 284.99 429.61C284.81 430.22 284.66 430.76 284.98 431.35C285.22 431.78 285.61 432.02 286.04 432.01C286.26 432.01 286.47 432.14 286.59 432.37C286.72 432.59 286.74 432.88 286.66 433.13C286.66 433.15 286.62 433.28 286.61 433.3C286.89 433.33 287.14 433.53 287.28 433.83C287.48 434.26 287.42 434.81 287.12 435.15C285.93 436.54 284.45 437.49 282.85 437.9C281.75 438.16 280.62 438.16 279.52 437.89C279.51 437.88 279.45 437.87 279.35 437.85C279.36 437.7 279.37 437.62 279.37 437.61C274.93 435.66 270.93 438.96 268.64 442.73C268.61 442.7 268.35 442.5 268.31 442.47C268.43 442.19 268.44 441.86 268.35 441.56C268.26 441.2 268.06 440.91 267.79 440.73C267.23 440.45 266.59 440.61 266.16 441.13C265.74 441.68 265.52 442.43 265.56 443.19C265.62 443.99 265.78 444.76 266.05 445.5C266.16 445.84 266.27 446.21 266.36 446.57C266.86 448.64 266.73 450.87 265.98 452.83C265.63 453.72 265.01 454.86 263.99 455.21C263.78 455.28 263.56 455.32 263.34 455.32C262.54 455.32 261.66 454.85 260.66 453.89Z" id="b6DoMivn5I"></path><path d="M163.72 620C163.46 620 163.26 619.74 163.26 619.43C163.26 619.11 163.47 618.86 163.72 618.86C195.29 618.86 447.88 618.86 479.45 618.86C479.71 618.86 479.92 619.11 479.92 619.43C479.92 619.74 479.71 620 479.45 620C416.31 620 195.29 620 163.72 620Z" id="b1gbyw7tnK"></path></defs><g><g><g><use xlink:href="#a36ay3x1O" opacity="1" fill="#f2f2f2" fill-opacity="1"></use><g><use xlink:href="#a36ay3x1O" opacity="1" fill-opacity="0" stroke="#000000" stroke-width="1" stroke-opacity="0"></use></g></g><g><use xlink:href="#alxMFMJMh" opacity="1" fill="#7961aa" fill-opacity="1"></use><g><use xlink:href="#alxMFMJMh" opacity="1" fill-opacity="0" stroke="#000000" stroke-width="1" stroke-opacity="0"></use></g></g><g><use xlink:href="#a32qYAOdRt" opacity="1" fill="#cccccc" fill-opacity="1"></use><g><use xlink:href="#a32qYAOdRt" opacity="1" fill-opacity="0" stroke="#000000" stroke-width="1" stroke-opacity="0"></use></g></g><g><use xlink:href="#b1GirYr1qy" opacity="1" fill="#cccccc" fill-opacity="1"></use><g><use xlink:href="#b1GirYr1qy" opacity="1" fill-opacity="0" stroke="#000000" stroke-width="1" stroke-opacity="0"></use></g></g><g><use xlink:href="#d3glc7oWru" opacity="1" fill="#cccccc" fill-opacity="1"></use><g><use xlink:href="#d3glc7oWru" opacity="1" fill-opacity="0" stroke="#000000" stroke-width="1" stroke-opacity="0"></use></g></g><g><use xlink:href="#b39N1J9d1t" opacity="1" fill="#cccccc" fill-opacity="1"></use><g><use xlink:href="#b39N1J9d1t" opacity="1" fill-opacity="0" stroke="#000000" stroke-width="1" stroke-opacity="0"></use></g></g><g><use xlink:href="#aaJ9fmThj" opacity="1" fill="#f2f2f2" fill-opacity="1"></use><g><use xlink:href="#aaJ9fmThj" opacity="1" fill-opacity="0" stroke="#000000" stroke-width="1" stroke-opacity="0"></use></g></g><g><use xlink:href="#bxilzDXn" opacity="1" fill="#cccccc" fill-opacity="1"></use><g><use xlink:href="#bxilzDXn" opacity="1" fill-opacity="0" stroke="#000000" stroke-width="1" stroke-opacity="0"></use></g></g><g><use xlink:href="#bv8SJUJw" opacity="1" fill="#cccccc" fill-opacity="1"></use><g><use xlink:href="#bv8SJUJw" opacity="1" fill-opacity="0" stroke="#000000" stroke-width="1" stroke-opacity="0"></use></g></g><g><use xlink:href="#a4ky4kIaK" opacity="1" fill="#cccccc" fill-opacity="1"></use><g><use xlink:href="#a4ky4kIaK" opacity="1" fill-opacity="0" stroke="#000000" stroke-width="1" stroke-opacity="0"></use></g></g><g><use xlink:href="#aiyBR1BHI" opacity="1" fill="#cccccc" fill-opacity="1"></use><g><use xlink:href="#aiyBR1BHI" opacity="1" fill-opacity="0" stroke="#000000" stroke-width="1" stroke-opacity="0"></use></g></g><g><use xlink:href="#b8WpufMur" opacity="1" fill="#cccccc" fill-opacity="1"></use><g><use xlink:href="#b8WpufMur" opacity="1" fill-opacity="0" stroke="#000000" stroke-width="1" stroke-opacity="0"></use></g></g><g><use xlink:href="#b3TZJbbGS" opacity="1" fill="#cccccc" fill-opacity="1"></use><g><use xlink:href="#b3TZJbbGS" opacity="1" fill-opacity="0" stroke="#000000" stroke-width="1" stroke-opacity="0"></use></g></g><g><use xlink:href="#c1DPtnfLMv" opacity="1" fill="#ffb8b8" fill-opacity="1"></use><g><use xlink:href="#c1DPtnfLMv" opacity="1" fill-opacity="0" stroke="#000000" stroke-width="1" stroke-opacity="0"></use></g></g><g><use xlink:href="#afM9xNU8" opacity="1" fill="#2f2e41" fill-opacity="1"></use><g><use xlink:href="#afM9xNU8" opacity="1" fill-opacity="0" stroke="#000000" stroke-width="1" stroke-opacity="0"></use></g></g><g><use xlink:href="#azpUo4rZF" opacity="1" fill="#ffb8b8" fill-opacity="1"></use><g><use xlink:href="#azpUo4rZF" opacity="1" fill-opacity="0" stroke="#000000" stroke-width="1" stroke-opacity="0"></use></g></g><g><use xlink:href="#bnRaHrj7t" opacity="1" fill="#2f2e41" fill-opacity="1"></use><g><use xlink:href="#bnRaHrj7t" opacity="1" fill-opacity="0" stroke="#000000" stroke-width="1" stroke-opacity="0"></use></g></g><g><use xlink:href="#bbEwuXWQp" opacity="1" fill="#2f2e41" fill-opacity="1"></use><g><use xlink:href="#bbEwuXWQp" opacity="1" fill-opacity="0" stroke="#000000" stroke-width="1" stroke-opacity="0"></use></g></g><g><use xlink:href="#a3sZsAE5w8" opacity="1" fill="#ffb8b8" fill-opacity="1"></use><g><use xlink:href="#a3sZsAE5w8" opacity="1" fill-opacity="0" stroke="#000000" stroke-width="1" stroke-opacity="0"></use></g></g><g><use xlink:href="#ev5LWznkL" opacity="1" fill="#ffb8b8" fill-opacity="1"></use><g><use xlink:href="#ev5LWznkL" opacity="1" fill-opacity="0" stroke="#000000" stroke-width="1" stroke-opacity="0"></use></g></g><g><use xlink:href="#a2zobRDOrA" opacity="1" fill="#ffb8b8" fill-opacity="1"></use><g><use xlink:href="#a2zobRDOrA" opacity="1" fill-opacity="0" stroke="#000000" stroke-width="1" stroke-opacity="0"></use></g></g><g><use xlink:href="#gXHwq7Sm2" opacity="1" fill="#cccccc" fill-opacity="1"></use><g><use xlink:href="#gXHwq7Sm2" opacity="1" fill-opacity="0" stroke="#000000" stroke-width="1" stroke-opacity="0"></use></g></g><g><use xlink:href="#a4bqJ04jWn" opacity="1" fill="#2f2e41" fill-opacity="1"></use><g><use xlink:href="#a4bqJ04jWn" opacity="1" fill-opacity="0" stroke="#000000" stroke-width="1" stroke-opacity="0"></use></g></g><g><use xlink:href="#a3cjC5RDU" opacity="1" fill="#cccccc" fill-opacity="1"></use><g><use xlink:href="#a3cjC5RDU" opacity="1" fill-opacity="0" stroke="#000000" stroke-width="1" stroke-opacity="0"></use></g></g><g><use xlink:href="#c1KX0u6bxG" opacity="1" fill="#ffb8b8" fill-opacity="1"></use><g><use xlink:href="#c1KX0u6bxG" opacity="1" fill-opacity="0" stroke="#000000" stroke-width="1" stroke-opacity="0"></use></g></g><g><use xlink:href="#a25IGNXTd7" opacity="1" fill="#cccccc" fill-opacity="1"></use><g><use xlink:href="#a25IGNXTd7" opacity="1" fill-opacity="0" stroke="#000000" stroke-width="1" stroke-opacity="0"></use></g></g><g><use xlink:href="#bkeJv6sNl" opacity="1" fill="#2f2e41" fill-opacity="1"></use><g><use xlink:href="#bkeJv6sNl" opacity="1" fill-opacity="0" stroke="#000000" stroke-width="1" stroke-opacity="0"></use></g></g><g><use xlink:href="#b5Tl42dZyv" opacity="1" fill="#2f2e41" fill-opacity="1"></use><g><use xlink:href="#b5Tl42dZyv" opacity="1" fill-opacity="0" stroke="#000000" stroke-width="1" stroke-opacity="0"></use></g></g><g><use xlink:href="#ef41xXeed" opacity="1" fill="#7961aa" fill-opacity="1"></use><g><use xlink:href="#ef41xXeed" opacity="1" fill-opacity="0" stroke="#000000" stroke-width="1" stroke-opacity="0"></use></g></g><g><use xlink:href="#lkDUxWmzN" opacity="1" fill="#7961aa" fill-opacity="1"></use><g><use xlink:href="#lkDUxWmzN" opacity="1" fill-opacity="0" stroke="#000000" stroke-width="1" stroke-opacity="0"></use></g></g><g><use xlink:href="#b5ykPI94tf" opacity="1" fill="#3f3d56" fill-opacity="1"></use><g><use xlink:href="#b5ykPI94tf" opacity="1" fill-opacity="0" stroke="#000000" stroke-width="1" stroke-opacity="0"></use></g></g><g><use xlink:href="#amB19iiCi" opacity="1" fill="#000000" fill-opacity="1"></use><g><use xlink:href="#amB19iiCi" opacity="1" fill-opacity="0" stroke="#000000" stroke-width="1" stroke-opacity="0"></use></g></g><g><use xlink:href="#e2kqO0kMxb" opacity="1" fill="#3f3d56" fill-opacity="1"></use><g><use xlink:href="#e2kqO0kMxb" opacity="1" fill-opacity="0" stroke="#000000" stroke-width="1" stroke-opacity="0"></use></g></g><g><use xlink:href="#ebOPcPAjs" opacity="1" fill="#f2f2f2" fill-opacity="1"></use><g><use xlink:href="#ebOPcPAjs" opacity="1" fill-opacity="0" stroke="#000000" stroke-width="1" stroke-opacity="0"></use></g></g><g><use xlink:href="#a2lcQIiRk" opacity="1" fill="#f2f2f2" fill-opacity="1"></use><g><use xlink:href="#a2lcQIiRk" opacity="1" fill-opacity="0" stroke="#000000" stroke-width="1" stroke-opacity="0"></use></g></g><g><use xlink:href="#b2y82OdD2Q" opacity="1" fill="#3f3d56" fill-opacity="1"></use><g><use xlink:href="#b2y82OdD2Q" opacity="1" fill-opacity="0" stroke="#000000" stroke-width="1" stroke-opacity="0"></use></g></g><g><use xlink:href="#a2nm9LeIo" opacity="1" fill="#ffb9b9" fill-opacity="1"></use><g><use xlink:href="#a2nm9LeIo" opacity="1" fill-opacity="0" stroke="#000000" stroke-width="1" stroke-opacity="0"></use></g></g><g><use xlink:href="#ac7tXSvoPR" opacity="1" fill="#575a89" fill-opacity="1"></use><g><use xlink:href="#ac7tXSvoPR" opacity="1" fill-opacity="0" stroke="#000000" stroke-width="1" stroke-opacity="0"></use></g></g><g><use xlink:href="#hjF587QIK" opacity="1" fill="#ffb9b9" fill-opacity="1"></use><g><use xlink:href="#hjF587QIK" opacity="1" fill-opacity="0" stroke="#000000" stroke-width="1" stroke-opacity="0"></use></g></g><g><use xlink:href="#byv0TmjDt" opacity="1" fill="#ffb9b9" fill-opacity="1"></use><g><use xlink:href="#byv0TmjDt" opacity="1" fill-opacity="0" stroke="#000000" stroke-width="1" stroke-opacity="0"></use></g></g><g><use xlink:href="#alskFlPmS" opacity="1" fill="#7961aa" fill-opacity="1"></use><g><use xlink:href="#alskFlPmS" opacity="1" fill-opacity="0" stroke="#000000" stroke-width="1" stroke-opacity="0"></use></g></g><g><use xlink:href="#jIiRrvwJo" opacity="1" fill="#575a89" fill-opacity="1"></use><g><use xlink:href="#jIiRrvwJo" opacity="1" fill-opacity="0" stroke="#000000" stroke-width="1" stroke-opacity="0"></use></g></g><g><use xlink:href="#f3iqwEwgrW" opacity="1" fill="#ffb9b9" fill-opacity="1"></use><g><use xlink:href="#f3iqwEwgrW" opacity="1" fill-opacity="0" stroke="#000000" stroke-width="1" stroke-opacity="0"></use></g></g><g><use xlink:href="#di6TaWDsz" opacity="1" fill="#3f3d56" fill-opacity="1"></use><g><use xlink:href="#di6TaWDsz" opacity="1" fill-opacity="0" stroke="#000000" stroke-width="1" stroke-opacity="0"></use></g></g><g><use xlink:href="#gWvW8NTN" opacity="1" fill="#3f3d56" fill-opacity="1"></use><g><use xlink:href="#gWvW8NTN" opacity="1" fill-opacity="0" stroke="#000000" stroke-width="1" stroke-opacity="0"></use></g></g><g><use xlink:href="#c1c9dB3Lsx" opacity="1" fill="#3f3d56" fill-opacity="1"></use><g><use xlink:href="#c1c9dB3Lsx" opacity="1" fill-opacity="0" stroke="#000000" stroke-width="1" stroke-opacity="0"></use></g></g><g><use xlink:href="#a15Pr2N1O9" opacity="1" fill="#000000" fill-opacity="0"></use><g><use xlink:href="#a15Pr2N1O9" opacity="1" fill-opacity="0" stroke="#3f3d56" stroke-width="5" stroke-opacity="1"></use></g></g><g><use xlink:href="#avPj4iRE5" opacity="1" fill="#7961aa" fill-opacity="1"></use><g><use xlink:href="#avPj4iRE5" opacity="1" fill-opacity="0" stroke="#000000" stroke-width="1" stroke-opacity="0"></use></g></g><g><use xlink:href="#a1RBqusBEx" opacity="1" fill="#575a89" fill-opacity="1"></use><g><use xlink:href="#a1RBqusBEx" opacity="1" fill-opacity="0" stroke="#000000" stroke-width="1" stroke-opacity="0"></use></g></g><g><use xlink:href="#ifsBFv3dk" opacity="1" fill="#575a89" fill-opacity="1"></use><g><use xlink:href="#ifsBFv3dk" opacity="1" fill-opacity="0" stroke="#000000" stroke-width="1" stroke-opacity="0"></use></g></g><g><use xlink:href="#dYVwh5Bps" opacity="1" fill="#000000" fill-opacity="1"></use><g><use xlink:href="#dYVwh5Bps" opacity="1" fill-opacity="0" stroke="#000000" stroke-width="1" stroke-opacity="0"></use></g></g><g><use xlink:href="#a2Wbd7G5uI" opacity="1" fill="#575a89" fill-opacity="1"></use><g><use xlink:href="#a2Wbd7G5uI" opacity="1" fill-opacity="0" stroke="#000000" stroke-width="1" stroke-opacity="0"></use></g></g><g><use xlink:href="#b1R9J07Ktq" opacity="1" fill="#3f3d56" fill-opacity="1"></use><g><use xlink:href="#b1R9J07Ktq" opacity="1" fill-opacity="0" stroke="#000000" stroke-width="1" stroke-opacity="0"></use></g></g><g><use xlink:href="#e4tejDQOBq" opacity="1" fill="#ffb9b9" fill-opacity="1"></use><g><use xlink:href="#e4tejDQOBq" opacity="1" fill-opacity="0" stroke="#000000" stroke-width="1" stroke-opacity="0"></use></g></g><g><use xlink:href="#f1xPLKiEzA" opacity="1" fill="#3f3d56" fill-opacity="1"></use><g><use xlink:href="#f1xPLKiEzA" opacity="1" fill-opacity="0" stroke="#000000" stroke-width="1" stroke-opacity="0"></use></g></g><g><use xlink:href="#bWB1MeAjU" opacity="1" fill="#3f3d56" fill-opacity="1"></use><g><use xlink:href="#bWB1MeAjU" opacity="1" fill-opacity="0" stroke="#000000" stroke-width="1" stroke-opacity="0"></use></g></g><g><use xlink:href="#f1y5zoDmd8" opacity="1" fill="#3f3d56" fill-opacity="1"></use><g><use xlink:href="#f1y5zoDmd8" opacity="1" fill-opacity="0" stroke="#000000" stroke-width="1" stroke-opacity="0"></use></g></g><g><use xlink:href="#b2iKpNjmn" opacity="1" fill="#3f3d56" fill-opacity="1"></use><g><use xlink:href="#b2iKpNjmn" opacity="1" fill-opacity="0" stroke="#000000" stroke-width="1" stroke-opacity="0"></use></g></g><g><use xlink:href="#aoHdJTFuH" opacity="1" fill="#f0f0f0" fill-opacity="1"></use><g><use xlink:href="#aoHdJTFuH" opacity="1" fill-opacity="0" stroke="#000000" stroke-width="1" stroke-opacity="0"></use></g></g><g><use xlink:href="#c75i3KPKI" opacity="1" fill="#f0f0f0" fill-opacity="1"></use><g><use xlink:href="#c75i3KPKI" opacity="1" fill-opacity="0" stroke="#000000" stroke-width="1" stroke-opacity="0"></use></g></g><g><use xlink:href="#a1Ro4S5YJi" opacity="1" fill="#f0f0f0" fill-opacity="1"></use><g><use xlink:href="#a1Ro4S5YJi" opacity="1" fill-opacity="0" stroke="#000000" stroke-width="1" stroke-opacity="0"></use></g></g><g><use xlink:href="#b299DmbpZG" opacity="1" fill="#e6e6e6" fill-opacity="1"></use><g><use xlink:href="#b299DmbpZG" opacity="1" fill-opacity="0" stroke="#000000" stroke-width="1" stroke-opacity="0"></use></g></g><g><use xlink:href="#c26TYENEis" opacity="1" fill="#e6e6e6" fill-opacity="1"></use><g><use xlink:href="#c26TYENEis" opacity="1" fill-opacity="0" stroke="#000000" stroke-width="1" stroke-opacity="0"></use></g></g><g><use xlink:href="#a1QQmN1weR" opacity="1" fill="#f2f2f2" fill-opacity="1"></use><g><use xlink:href="#a1QQmN1weR" opacity="1" fill-opacity="0" stroke="#000000" stroke-width="1" stroke-opacity="0"></use></g></g><g><use xlink:href="#g9FPrqgIx" opacity="1" fill="#f2f2f2" fill-opacity="1"></use><g><use xlink:href="#g9FPrqgIx" opacity="1" fill-opacity="0" stroke="#000000" stroke-width="1" stroke-opacity="0"></use></g></g><g><use xlink:href="#b5pULJPq8" opacity="1" fill="#cacaca" fill-opacity="1"></use><g><use xlink:href="#b5pULJPq8" opacity="1" fill-opacity="0" stroke="#000000" stroke-width="1" stroke-opacity="0"></use></g></g><g><use xlink:href="#bezkplrbH" opacity="1" fill="#f0f0f0" fill-opacity="1"></use><g><use xlink:href="#bezkplrbH" opacity="1" fill-opacity="0" stroke="#000000" stroke-width="1" stroke-opacity="0"></use></g></g><g><use xlink:href="#f1UdS74JsY" opacity="1" fill="#f0f0f0" fill-opacity="1"></use><g><use xlink:href="#f1UdS74JsY" opacity="1" fill-opacity="0" stroke="#000000" stroke-width="1" stroke-opacity="0"></use></g></g><g><use xlink:href="#a17xx0e9m9" opacity="1" fill="#f0f0f0" fill-opacity="1"></use><g><use xlink:href="#a17xx0e9m9" opacity="1" fill-opacity="0" stroke="#000000" stroke-width="1" stroke-opacity="0"></use></g></g><g><use xlink:href="#ayLlej7PC" opacity="1" fill="#cccccc" fill-opacity="1"></use><g><use xlink:href="#ayLlej7PC" opacity="1" fill-opacity="0" stroke="#000000" stroke-width="1" stroke-opacity="0"></use></g></g><g><use xlink:href="#b3o72NLVVb" opacity="1" fill="#e4e4e4" fill-opacity="1"></use><g><use xlink:href="#b3o72NLVVb" opacity="1" fill-opacity="0" stroke="#000000" stroke-width="1" stroke-opacity="0"></use></g></g><g><use xlink:href="#cUzuvCs0M" opacity="1" fill="#ffffff" fill-opacity="1"></use><g><use xlink:href="#cUzuvCs0M" opacity="1" fill-opacity="0" stroke="#000000" stroke-width="1" stroke-opacity="0"></use></g></g><g><use xlink:href="#g6Ww0Aga9" opacity="1" fill="#ffffff" fill-opacity="1"></use><g><use xlink:href="#g6Ww0Aga9" opacity="1" fill-opacity="0" stroke="#000000" stroke-width="1" stroke-opacity="0"></use></g></g><g><use xlink:href="#b54LsMzGc" opacity="1" fill="#e6e6e6" fill-opacity="1"></use><g><use xlink:href="#b54LsMzGc" opacity="1" fill-opacity="0" stroke="#000000" stroke-width="1" stroke-opacity="0"></use></g></g><g><use xlink:href="#m5hTZBjn5T" opacity="1" fill="#cccccc" fill-opacity="1"></use><g><use xlink:href="#m5hTZBjn5T" opacity="1" fill-opacity="0" stroke="#000000" stroke-width="1" stroke-opacity="0"></use></g></g><g><use xlink:href="#c1dw6xWqpe" opacity="1" fill="#3f3d56" fill-opacity="1"></use><g><use xlink:href="#c1dw6xWqpe" opacity="1" fill-opacity="0" stroke="#000000" stroke-width="1" stroke-opacity="0"></use></g></g><g><use xlink:href="#g1y5dCHA4" opacity="1" fill="#ffffff" fill-opacity="1"></use><g><use xlink:href="#g1y5dCHA4" opacity="1" fill-opacity="0" stroke="#000000" stroke-width="1" stroke-opacity="0"></use></g></g><g><use xlink:href="#b5EicCVeZp" opacity="1" fill="#9e616a" fill-opacity="1"></use><g><use xlink:href="#b5EicCVeZp" opacity="1" fill-opacity="0" stroke="#000000" stroke-width="1" stroke-opacity="0"></use></g></g><g><use xlink:href="#b3cVf85ob8" opacity="1" fill="#e4e4e4" fill-opacity="1"></use><g><use xlink:href="#b3cVf85ob8" opacity="1" fill-opacity="0" stroke="#000000" stroke-width="1" stroke-opacity="0"></use></g></g><g><use xlink:href="#d2TzKWptZG" opacity="1" fill="#cacaca" fill-opacity="1"></use><g><use xlink:href="#d2TzKWptZG" opacity="1" fill-opacity="0" stroke="#000000" stroke-width="1" stroke-opacity="0"></use></g></g><g><use xlink:href="#c2RgLQnurc" opacity="1" fill="#9e616a" fill-opacity="1"></use><g><use xlink:href="#c2RgLQnurc" opacity="1" fill-opacity="0" stroke="#000000" stroke-width="1" stroke-opacity="0"></use></g></g><g><use xlink:href="#ecMTMlMbI" opacity="1" fill="#2f2e41" fill-opacity="1"></use><g><use xlink:href="#ecMTMlMbI" opacity="1" fill-opacity="0" stroke="#000000" stroke-width="1" stroke-opacity="0"></use></g></g><g><use xlink:href="#e6iSp1Ce8" opacity="1" fill="#9e616a" fill-opacity="1"></use><g><use xlink:href="#e6iSp1Ce8" opacity="1" fill-opacity="0" stroke="#000000" stroke-width="1" stroke-opacity="0"></use></g></g><g><use xlink:href="#e68bn4bnvT" opacity="1" fill="#2f2e41" fill-opacity="1"></use><g><use xlink:href="#e68bn4bnvT" opacity="1" fill-opacity="0" stroke="#000000" stroke-width="1" stroke-opacity="0"></use></g></g><g><use xlink:href="#b3OZkR0hMt" opacity="1" fill="#2f2e41" fill-opacity="1"></use><g><use xlink:href="#b3OZkR0hMt" opacity="1" fill-opacity="0" stroke="#000000" stroke-width="1" stroke-opacity="0"></use></g></g><g><use xlink:href="#b1Ui6SNeIo" opacity="1" fill="#2f2e41" fill-opacity="1"></use><g><use xlink:href="#b1Ui6SNeIo" opacity="1" fill-opacity="0" stroke="#000000" stroke-width="1" stroke-opacity="0"></use></g></g><g><use xlink:href="#a2vwJY60Ae" opacity="1" fill="#e4e4e4" fill-opacity="1"></use><g><use xlink:href="#a2vwJY60Ae" opacity="1" fill-opacity="0" stroke="#000000" stroke-width="1" stroke-opacity="0"></use></g></g><g><use xlink:href="#f1KZneIpM7" opacity="1" fill="#9e616a" fill-opacity="1"></use><g><use xlink:href="#f1KZneIpM7" opacity="1" fill-opacity="0" stroke="#000000" stroke-width="1" stroke-opacity="0"></use></g></g><g><use xlink:href="#bd4K8Tgd" opacity="1" fill="#2f2e41" fill-opacity="1"></use><g><use xlink:href="#bd4K8Tgd" opacity="1" fill-opacity="0" stroke="#000000" stroke-width="1" stroke-opacity="0"></use></g></g><g><use xlink:href="#c3NVS9H0P" opacity="1" fill="#cccccc" fill-opacity="1"></use><g><use xlink:href="#c3NVS9H0P" opacity="1" fill-opacity="0" stroke="#000000" stroke-width="1" stroke-opacity="0"></use></g></g><g><use xlink:href="#e1h7qTqQfB" opacity="1" fill="#ffffff" fill-opacity="1"></use><g><use xlink:href="#e1h7qTqQfB" opacity="1" fill-opacity="0" stroke="#000000" stroke-width="1" stroke-opacity="0"></use></g></g><g><use xlink:href="#e38SREjpZS" opacity="1" fill="#7961aa" fill-opacity="1"></use><g><use xlink:href="#e38SREjpZS" opacity="1" fill-opacity="0" stroke="#000000" stroke-width="1" stroke-opacity="0"></use></g></g><g><use xlink:href="#b1xDdD83Zj" opacity="1" fill="#7961aa" fill-opacity="1"></use><g><use xlink:href="#b1xDdD83Zj" opacity="1" fill-opacity="0" stroke="#000000" stroke-width="1" stroke-opacity="0"></use></g></g><g><use xlink:href="#a2Fea5dzTp" opacity="1" fill="#7961aa" fill-opacity="1"></use><g><use xlink:href="#a2Fea5dzTp" opacity="1" fill-opacity="0" stroke="#000000" stroke-width="1" stroke-opacity="0"></use></g></g><g><use xlink:href="#b4zHdM6fTp" opacity="1" fill="#7961aa" fill-opacity="1"></use><g><use xlink:href="#b4zHdM6fTp" opacity="1" fill-opacity="0" stroke="#000000" stroke-width="1" stroke-opacity="0"></use></g></g><g><use xlink:href="#gz2rLmoCV" opacity="1" fill="#7961aa" fill-opacity="1"></use><g><use xlink:href="#gz2rLmoCV" opacity="1" fill-opacity="0" stroke="#000000" stroke-width="1" stroke-opacity="0"></use></g></g><g><use xlink:href="#bIkQhcpXT" opacity="1" fill="#3f3d56" fill-opacity="1"></use><g><use xlink:href="#bIkQhcpXT" opacity="1" fill-opacity="0" stroke="#000000" stroke-width="1" stroke-opacity="0"></use></g></g><g><use xlink:href="#a2958YrIQt" opacity="1" fill="#3f3d56" fill-opacity="1"></use><g><use xlink:href="#a2958YrIQt" opacity="1" fill-opacity="0" stroke="#000000" stroke-width="1" stroke-opacity="0"></use></g></g><g><use xlink:href="#a5ubnJVYor" opacity="1" fill="#9e616a" fill-opacity="1"></use><g><use xlink:href="#a5ubnJVYor" opacity="1" fill-opacity="0" stroke="#000000" stroke-width="1" stroke-opacity="0"></use></g></g><g><use xlink:href="#a2KSzJgttf" opacity="1" fill="#e4e4e4" fill-opacity="1"></use><g><use xlink:href="#a2KSzJgttf" opacity="1" fill-opacity="0" stroke="#000000" stroke-width="1" stroke-opacity="0"></use></g></g><g><use xlink:href="#b8xbEVaBS" opacity="1" fill="#ffb6b6" fill-opacity="1"></use><g><use xlink:href="#b8xbEVaBS" opacity="1" fill-opacity="0" stroke="#000000" stroke-width="1" stroke-opacity="0"></use></g></g><g><use xlink:href="#a2jBHF6fih" opacity="1" fill="#7961aa" fill-opacity="1"></use><g><use xlink:href="#a2jBHF6fih" opacity="1" fill-opacity="0" stroke="#000000" stroke-width="1" stroke-opacity="0"></use></g></g><g><use xlink:href="#a16IaPI8pp" opacity="1" fill="#cacaca" fill-opacity="1"></use><g><use xlink:href="#a16IaPI8pp" opacity="1" fill-opacity="0" stroke="#000000" stroke-width="1" stroke-opacity="0"></use></g></g><g><use xlink:href="#a7xjjTx1k" opacity="1" fill="#cacaca" fill-opacity="1"></use><g><use xlink:href="#a7xjjTx1k" opacity="1" fill-opacity="0" stroke="#000000" stroke-width="1" stroke-opacity="0"></use></g></g><g><use xlink:href="#iaVJe5e7w" opacity="1" fill="#cacaca" fill-opacity="1"></use><g><use xlink:href="#iaVJe5e7w" opacity="1" fill-opacity="0" stroke="#000000" stroke-width="1" stroke-opacity="0"></use></g></g><g><use xlink:href="#cR1hkNFjL" opacity="1" fill="#cacaca" fill-opacity="1"></use><g><use xlink:href="#cR1hkNFjL" opacity="1" fill-opacity="0" stroke="#000000" stroke-width="1" stroke-opacity="0"></use></g></g><g><use xlink:href="#eVkR2vfQt" opacity="1" fill="#cacaca" fill-opacity="1"></use><g><use xlink:href="#eVkR2vfQt" opacity="1" fill-opacity="0" stroke="#000000" stroke-width="1" stroke-opacity="0"></use></g></g><g><use xlink:href="#beZUURMDH" opacity="1" fill="#cacaca" fill-opacity="1"></use><g><use xlink:href="#beZUURMDH" opacity="1" fill-opacity="0" stroke="#000000" stroke-width="1" stroke-opacity="0"></use></g></g><g><use xlink:href="#hEh4rofsI" opacity="1" fill="#cacaca" fill-opacity="1"></use><g><use xlink:href="#hEh4rofsI" opacity="1" fill-opacity="0" stroke="#000000" stroke-width="1" stroke-opacity="0"></use></g></g><g><use xlink:href="#bbV5Cu4ww" opacity="1" fill="#cacaca" fill-opacity="1"></use><g><use xlink:href="#bbV5Cu4ww" opacity="1" fill-opacity="0" stroke="#000000" stroke-width="1" stroke-opacity="0"></use></g></g><g><use xlink:href="#e4DxR3Yd6" opacity="1" fill="#3f3d56" fill-opacity="1"></use><g><use xlink:href="#e4DxR3Yd6" opacity="1" fill-opacity="0" stroke="#000000" stroke-width="1" stroke-opacity="0"></use></g></g><g><use xlink:href="#e21Any99Bl" opacity="1" fill="#ffb8b8" fill-opacity="1"></use><g><use xlink:href="#e21Any99Bl" opacity="1" fill-opacity="0" stroke="#000000" stroke-width="1" stroke-opacity="0"></use></g></g><g><use xlink:href="#a3sWVHn5lf" opacity="1" fill="#2f2e41" fill-opacity="1"></use><g><use xlink:href="#a3sWVHn5lf" opacity="1" fill-opacity="0" stroke="#000000" stroke-width="1" stroke-opacity="0"></use></g></g><g><use xlink:href="#b1BwEqjUjt" opacity="1" fill="#2f2e41" fill-opacity="1"></use><g><use xlink:href="#b1BwEqjUjt" opacity="1" fill-opacity="0" stroke="#000000" stroke-width="1" stroke-opacity="0"></use></g></g><g><use xlink:href="#am5bnWM9J" opacity="1" fill="#ffb8b8" fill-opacity="1"></use><g><use xlink:href="#am5bnWM9J" opacity="1" fill-opacity="0" stroke="#000000" stroke-width="1" stroke-opacity="0"></use></g></g><g><use xlink:href="#foma26rzW" opacity="1" fill="#2f2e41" fill-opacity="1"></use><g><use xlink:href="#foma26rzW" opacity="1" fill-opacity="0" stroke="#000000" stroke-width="1" stroke-opacity="0"></use></g></g><g><use xlink:href="#f5j6B2CD13" opacity="1" fill="#2f2e41" fill-opacity="1"></use><g><use xlink:href="#f5j6B2CD13" opacity="1" fill-opacity="0" stroke="#000000" stroke-width="1" stroke-opacity="0"></use></g></g><g><use xlink:href="#a1GPtSjqTt" opacity="1" fill="#ffb8b8" fill-opacity="1"></use><g><use xlink:href="#a1GPtSjqTt" opacity="1" fill-opacity="0" stroke="#000000" stroke-width="1" stroke-opacity="0"></use></g></g><g><use xlink:href="#akwNeRX04" opacity="1" fill="#cccccc" fill-opacity="1"></use><g><use xlink:href="#akwNeRX04" opacity="1" fill-opacity="0" stroke="#000000" stroke-width="1" stroke-opacity="0"></use></g></g><g><use xlink:href="#b1RsO0Tg6n" opacity="1" fill="#ffffff" fill-opacity="1"></use><g><use xlink:href="#b1RsO0Tg6n" opacity="1" fill-opacity="0" stroke="#000000" stroke-width="1" stroke-opacity="0"></use></g></g><g><use xlink:href="#b7KxG5jPAX" opacity="1" fill="#cccccc" fill-opacity="1"></use><g><use xlink:href="#b7KxG5jPAX" opacity="1" fill-opacity="0" stroke="#000000" stroke-width="1" stroke-opacity="0"></use></g></g><g><use xlink:href="#cfgXi1slk" opacity="1" fill="#cccccc" fill-opacity="1"></use><g><use xlink:href="#cfgXi1slk" opacity="1" fill-opacity="0" stroke="#000000" stroke-width="1" stroke-opacity="0"></use></g></g><g><use xlink:href="#bAwzoqDUf" opacity="1" fill="#cccccc" fill-opacity="1"></use><g><use xlink:href="#bAwzoqDUf" opacity="1" fill-opacity="0" stroke="#000000" stroke-width="1" stroke-opacity="0"></use></g></g><g><use xlink:href="#a2sccGckMX" opacity="1" fill="#cccccc" fill-opacity="1"></use><g><use xlink:href="#a2sccGckMX" opacity="1" fill-opacity="0" stroke="#000000" stroke-width="1" stroke-opacity="0"></use></g></g><g><use xlink:href="#d1Bfl5p4ky" opacity="1" fill="#7961aa" fill-opacity="1"></use><g><use xlink:href="#d1Bfl5p4ky" opacity="1" fill-opacity="0" stroke="#000000" stroke-width="1" stroke-opacity="0"></use></g></g><g><use xlink:href="#ab0yNHCxA" opacity="1" fill="#3f3d56" fill-opacity="1"></use><g><use xlink:href="#ab0yNHCxA" opacity="1" fill-opacity="0" stroke="#000000" stroke-width="1" stroke-opacity="0"></use></g></g><g><use xlink:href="#bVb91bv9C" opacity="1" fill="#ffb6b6" fill-opacity="1"></use><g><use xlink:href="#bVb91bv9C" opacity="1" fill-opacity="0" stroke="#000000" stroke-width="1" stroke-opacity="0"></use></g></g><g><use xlink:href="#j4w3l8pKXN" opacity="1" fill="#7961aa" fill-opacity="1"></use><g><use xlink:href="#j4w3l8pKXN" opacity="1" fill-opacity="0" stroke="#000000" stroke-width="1" stroke-opacity="0"></use></g></g><g><use xlink:href="#b6DoMivn5I" opacity="1" fill="#2f2e41" fill-opacity="1"></use><g><use xlink:href="#b6DoMivn5I" opacity="1" fill-opacity="0" stroke="#000000" stroke-width="1" stroke-opacity="0"></use></g></g><g><use xlink:href="#b1gbyw7tnK" opacity="1" fill="#cacaca" fill-opacity="1"></use><g><use xlink:href="#b1gbyw7tnK" opacity="1" fill-opacity="0" stroke="#000000" stroke-width="1" stroke-opacity="0"></use></g></g></g></g></svg>