<?xml version="1.0" standalone="no"?>
<!DOCTYPE svg PUBLIC "-//W3C//DTD SVG 20010904//EN"
 "http://www.w3.org/TR/2001/REC-SVG-20010904/DTD/svg10.dtd">
<svg version="1.0" xmlns="http://www.w3.org/2000/svg"
 width="1044.000000pt" height="944.000000pt" viewBox="0 0 1044.000000 944.000000"
 preserveAspectRatio="xMidYMid meet">
<metadata>
Created by potrace 1.16, written by Peter Selinger 2001-2019
</metadata>
<g transform="translate(0.000000,944.000000) scale(0.100000,-0.100000)"
fill="#000000" stroke="none">
<path d="M2937 8603 c-23 -22 7 -113 37 -113 15 0 26 -43 26 -105 0 -39 -2
-42 -24 -38 -13 3 -26 1 -30 -5 -10 -17 13 -126 32 -144 19 -19 126 -28 170
-14 26 9 42 42 42 90 0 17 5 37 12 44 20 20 -8 43 -39 31 -14 -5 -27 -8 -28
-7 -1 2 0 34 4 71 5 59 9 69 30 80 28 14 46 57 37 92 -12 49 -53 23 -63 -39
-3 -22 -11 -36 -20 -36 -11 0 -13 7 -9 23 7 30 -4 69 -18 64 -6 -2 -11 -24
-11 -48 0 -35 -4 -44 -19 -47 -16 -3 -17 1 -12 35 7 42 -5 70 -24 58 -8 -5
-10 -21 -7 -46 7 -53 -20 -63 -29 -11 -11 62 -34 88 -57 65z m152 -106 c33 21
44 -6 36 -86 -6 -63 -9 -69 -32 -74 -14 -2 -37 -2 -52 2 -24 7 -26 13 -32 77
-6 55 -4 71 8 81 12 9 20 9 34 0 15 -9 23 -9 38 0z"/>
<path d="M2981 7918 c-28 -40 -56 -81 -63 -92 -7 -10 -18 -24 -23 -30 -6 -6
-18 -23 -27 -37 l-17 -26 37 -11 c65 -20 173 -32 285 -32 59 0 107 3 107 6 0
3 -27 45 -60 92 -46 67 -71 93 -106 112 -32 16 -51 35 -61 57 -7 18 -15 33
-17 33 -3 0 -27 -33 -55 -72z"/>
<path d="M3755 7968 c-11 -6 -22 -12 -23 -14 -8 -6 42 -103 80 -154 56 -76 98
-114 216 -195 1 -1 -3 -15 -9 -31 -7 -20 -39 -49 -100 -91 l-90 -63 -21 50
c-20 48 -40 60 -46 29 -5 -29 27 -89 48 -89 21 0 27 -15 10 -25 -18 -11 -11
-35 10 -35 11 0 20 -4 20 -10 0 -5 -5 -10 -11 -10 -15 0 -6 -32 30 -114 18
-40 36 -66 46 -66 18 0 20 -17 3 -23 -10 -3 -5 -25 18 -79 27 -65 29 -78 17
-94 -7 -10 -11 -25 -7 -34 3 -8 30 -82 59 -163 l53 -148 -35 -14 c-20 -8 -38
-15 -42 -15 -3 0 -17 28 -30 61 -13 34 -32 70 -43 81 -10 10 -16 23 -13 28 9
14 -54 164 -77 181 -14 11 -17 18 -9 20 18 6 -48 171 -71 177 -20 5 -24 18 -8
24 16 5 -55 172 -74 176 -18 4 -21 19 -6 24 10 3 1 34 -30 103 -5 11 -12 30
-15 43 -4 12 -11 22 -16 22 -16 0 -22 -30 -11 -53 21 -43 202 -500 199 -503
-1 -1 -69 96 -151 218 -141 210 -149 220 -175 213 -14 -4 -151 -9 -303 -12
-253 -5 -387 1 -494 23 -28 5 -33 0 -159 -177 -183 -257 -295 -422 -290 -428
3 -2 71 -5 153 -5 l147 -1 3 -134 3 -133 -23 6 c-197 54 -325 15 -498 -150
-129 -124 -158 -138 -285 -138 -96 -1 -103 1 -175 37 -41 21 -94 49 -118 63
-23 14 -82 40 -130 56 -73 26 -102 31 -182 31 -99 1 -138 -9 -248 -61 -72 -34
-156 -111 -147 -134 12 -29 45 -21 99 26 96 81 188 114 311 111 92 -3 157 -23
260 -81 157 -89 270 -122 378 -110 99 10 170 50 289 163 57 54 122 107 143
118 70 33 249 35 309 3 19 -10 19 -22 13 -434 l-6 -424 372 0 372 0 180 583
180 582 3 -1734 c1 -954 0 -1736 -3 -1739 -4 -5 -508 11 -777 25 -92 4 -128 3
-128 -5 0 -18 78 -141 105 -165 33 -30 40 -61 18 -82 -16 -17 -18 -16 -35 5
-14 17 -18 19 -18 6 0 -30 -18 -16 -24 18 -7 38 -90 169 -127 202 -13 12 -32
24 -42 27 -17 6 -18 -1 -11 -136 l7 -143 -83 -28 c-68 -24 -84 -27 -91 -15 -5
8 -19 29 -31 48 l-21 34 -22 -42 c-21 -42 -21 -42 -40 -21 -10 11 -20 18 -22
16 -14 -14 -62 -533 -68 -729 l-6 -227 27 -10 c15 -6 33 -9 39 -6 13 4 24 79
51 332 13 121 22 165 49 232 l33 83 11 -88 c19 -144 39 -243 71 -347 17 -58
30 -121 30 -152 l0 -54 38 0 c20 -1 262 0 538 0 l500 1 135 -48 134 -48 -1575
-3 -1575 -3 -120 27 c-66 15 -162 37 -213 49 l-92 22 0 -52 0 -51 60 -29 c33
-16 58 -30 57 -31 -2 -2 -25 3 -52 11 -26 8 -52 15 -57 15 -12 0 -10 -138 2
-161 8 -14 7 -25 -5 -41 -14 -20 -21 -68 -11 -68 20 0 313 -84 321 -92 7 -7 4
-8 -10 -5 -11 3 -78 9 -150 12 -72 4 -138 9 -147 11 -14 4 -18 -1 -18 -25 0
-26 5 -31 38 -40 20 -6 62 -17 92 -25 l55 -15 -92 0 -93 -1 0 -52 c0 -39 6
-59 26 -85 l25 -33 -20 -26 c-19 -24 -21 -40 -21 -185 l0 -158 33 -10 32 -9
-32 -1 -33 -1 1 -159 0 -159 107 -22 c59 -12 152 -33 207 -46 l100 -24 1583 0
1582 0 0 22 c0 12 -7 30 -17 40 -15 17 -15 19 0 36 12 13 17 37 17 77 0 47 -5
65 -26 92 l-25 33 660 0 c581 0 661 2 661 15 0 13 -20 15 -121 15 -102 0 -120
2 -116 15 4 8 59 186 124 396 65 210 119 375 121 368 1 -8 -11 -104 -27 -214
-16 -110 -27 -201 -26 -203 2 -2 60 -6 129 -9 l126 -6 1 84 c1 121 14 144 23
39 10 -119 14 -130 42 -130 13 0 24 2 24 4 0 2 -7 72 -15 157 -21 212 -42 325
-68 371 l-21 39 -61 -6 c-33 -3 -73 -9 -88 -12 l-29 -5 7 102 c7 96 7 102 -14
116 -11 8 -21 22 -21 30 0 19 76 170 90 179 6 3 19 24 30 46 l21 39 -27 23
c-25 22 -26 24 -11 57 8 19 24 44 37 55 22 20 22 20 36 0 9 -11 13 -30 11 -42
-2 -12 1 -24 7 -26 10 -4 1 -9 -39 -22 -13 -4 -13 -9 1 -47 8 -24 13 -58 10
-78 l-5 -35 14 31 c12 26 21 32 57 37 49 7 88 43 88 83 0 39 -26 91 -50 99
-11 4 -20 13 -18 20 2 7 71 232 153 499 l150 485 3 -595 2 -595 26 -9 c14 -6
83 -27 154 -48 l128 -39 164 51 163 52 3 32 c3 26 0 32 -15 32 -11 0 -24 5
-31 12 -16 16 -15 77 3 108 19 33 19 35 -10 48 -29 13 -43 56 -25 77 22 26 54
17 100 -30 24 -25 59 -50 76 -55 37 -13 52 -43 32 -67 -10 -13 -10 -17 0 -20
19 -7 14 -29 -13 -61 -31 -37 -32 -67 -2 -76 21 -7 21 -7 2 -15 -18 -8 -16
-10 15 -19 19 -6 28 -11 20 -12 -8 0 0 -6 19 -13 31 -11 35 -18 61 -102 14
-49 43 -133 62 -185 20 -52 46 -131 57 -175 12 -44 26 -88 31 -97 6 -10 10
-29 10 -43 0 -18 4 -23 15 -19 8 4 15 2 15 -2 0 -13 -100 -67 -108 -59 -6 5
10 20 30 27 4 2 5 13 2 26 -5 18 -9 20 -20 11 -11 -9 -14 -5 -15 22 0 19 -20
74 -44 124 l-45 90 3 -113 2 -113 -83 -29 -82 -29 -32 47 -31 46 -16 -35 c-8
-19 -16 -36 -17 -37 -2 -2 -14 4 -28 15 l-25 18 -3 247 c-2 135 -5 249 -8 251
-3 3 -52 -5 -109 -18 -150 -34 -229 -19 -340 64 -92 69 -91 71 -91 -148 l0
-188 -30 -7 c-16 -3 -30 -10 -30 -16 0 -5 14 -10 30 -10 26 0 30 -4 30 -26 l0
-26 44 26 43 25 28 -29 27 -28 -41 -28 c-30 -19 -40 -32 -36 -44 3 -10 -1 -20
-9 -23 -9 -4 -17 2 -21 14 -4 10 -11 19 -16 19 -5 0 -4 -9 3 -20 10 -15 10
-22 0 -32 -10 -10 -15 -10 -22 2 -10 16 -34 7 -80 -31 -19 -16 -14 -15 21 4
33 19 49 23 57 15 16 -16 91 29 85 52 -3 11 7 24 29 39 l33 21 42 -47 c34 -37
40 -50 30 -59 -6 -6 -58 -39 -114 -73 l-103 -63 0 -289 0 -289 284 0 283 0 13
-122 c7 -68 17 -126 22 -129 5 -3 -125 -9 -289 -13 -308 -7 -390 -14 -386 -31
4 -21 108 -27 463 -29 391 -1 520 6 520 30 0 9 -11 14 -35 14 l-35 0 0 140 0
140 595 0 595 0 0 765 0 765 -505 0 -505 0 -2 528 -3 527 -508 0 -507 0 0 563
0 562 -166 0 c-161 0 -168 1 -215 27 -45 24 -62 43 -40 43 5 0 12 7 15 16 6
15 56 249 76 354 9 49 113 328 116 314 1 -5 16 -58 32 -119 22 -78 35 -163 47
-295 9 -102 23 -207 30 -235 l12 -50 72 -3 c39 -2 71 1 71 5 0 4 -24 19 -53
32 -28 13 -46 25 -40 28 10 4 12 75 8 331 -3 180 -7 373 -10 428 -4 90 -3 102
13 106 10 3 27 31 41 69 13 35 30 78 38 96 l13 32 64 -45 64 -44 22 30 21 29
-50 92 c-28 50 -51 93 -51 94 0 1 12 29 27 61 l26 57 40 -79 c22 -43 50 -108
62 -144 32 -91 46 -120 61 -120 7 0 19 -3 28 -6 14 -5 16 5 16 73 0 113 -16
161 -104 316 -105 184 -121 198 -145 131 -7 -19 -15 -33 -18 -30 -3 3 0 20 6
37 8 22 8 36 1 43 -7 7 -10 4 -10 -9 0 -19 -46 -105 -57 -105 -5 0 2 64 13
123 5 27 5 27 -44 27 -72 0 -93 -24 -157 -172 -58 -134 -86 -186 -172 -316
-42 -63 -52 -86 -44 -96 8 -10 2 -66 -23 -217 -30 -179 -43 -260 -51 -334 -2
-11 -8 -47 -15 -80 -6 -33 -14 -76 -16 -95 -3 -19 -11 -82 -19 -140 -7 -58
-15 -137 -17 -175 l-3 -70 35 -6 c19 -4 -101 -7 -267 -8 l-303 -1 -2 -1243 -3
-1243 -502 91 c-276 50 -505 93 -507 96 -3 3 37 142 88 310 543 1751 925 2987
928 2999 3 13 -61 15 -514 18 l-518 2 0 620 0 620 113 0 113 0 21 -52 c12 -29
48 -120 81 -203 130 -330 325 -812 338 -837 11 -22 12 -28 2 -28 -73 -2 -271
-20 -275 -24 -14 -13 12 -18 163 -28 151 -10 528 -5 641 9 54 6 74 23 27 23
-24 0 -26 3 -21 30 9 43 -8 45 -33 4 -15 -23 -28 -33 -37 -30 -8 3 -27 6 -42
6 -25 0 -27 3 -24 33 l4 32 -28 -31 c-27 -30 -31 -31 -85 -26 -36 3 -58 9 -58
17 0 6 -36 101 -81 211 -44 109 -108 266 -141 349 l-60 149 11 146 c6 80 13
165 15 190 5 46 41 148 97 269 27 58 29 68 20 120 -19 112 -23 178 -11 186 7
4 13 -1 17 -13 3 -12 11 -18 19 -15 20 7 10 108 -20 185 -54 146 -105 219
-183 265 -39 22 -51 25 -99 19 -50 -6 -62 -3 -117 26 -61 33 -124 88 -182 160
-26 33 -33 36 -50 26z m375 -510 c6 -29 15 -93 19 -143 l8 -89 -80 -104 c-44
-57 -83 -100 -87 -95 -9 11 -142 345 -138 348 2 2 38 17 81 35 43 18 99 47
125 65 26 18 50 33 54 34 3 1 12 -23 18 -51z m35 -586 c-18 -86 -24 -137 -20
-179 l6 -58 -24 50 c-23 48 -39 130 -41 204 -1 30 5 40 49 73 27 20 51 36 52
34 2 -2 -8 -57 -22 -124z m-2 -322 c7 0 6 -4 -3 -10 -12 -8 -12 -15 3 -57 25
-70 22 -85 -20 -108 -59 -32 -54 -45 20 -45 l64 0 33 -85 c20 -53 38 -85 48
-85 9 0 12 -6 8 -17 -10 -24 53 -183 71 -183 9 0 12 -6 8 -19 -3 -10 15 -69
43 -140 l49 -121 -76 0 -76 0 -49 126 c-34 90 -54 128 -67 131 -21 6 -25 19
-7 25 18 6 -50 169 -74 176 -20 5 -24 18 -7 24 16 5 -52 170 -73 176 -20 5
-24 18 -8 24 17 5 -51 169 -74 178 -14 6 7 9 62 9 68 1 82 4 82 17 0 14 1 14
16 0 8 -9 21 -16 27 -16z m-2536 -4766 c-3 -4 -145 -17 -314 -31 l-308 -24
-115 22 c-63 12 -122 26 -130 30 -8 5 185 9 429 9 244 0 442 -3 438 -6z m2316
-115 c54 -23 96 -43 94 -46 -4 -3 -970 72 -1037 81 -14 1 171 4 410 5 l435 1
98 -41z m-2236 -96 c-4 -3 -118 -34 -254 -68 l-248 -61 -248 62 c-137 34 -251
65 -254 68 -4 3 222 6 502 6 280 0 505 -3 502 -7z m5123 -27 c0 -19 2 -40 5
-48 3 -8 -11 -21 -35 -34 -26 -14 -40 -18 -43 -11 -6 18 -57 -9 -57 -30 0 -11
-17 -27 -41 -40 l-41 -23 -39 28 c-21 15 -39 30 -39 35 0 4 12 13 26 19 22 10
27 9 36 -5 8 -16 16 -14 86 24 42 23 78 43 80 45 2 1 -1 11 -7 23 -10 17 -7
22 16 35 43 23 53 20 53 -18z m85 -99 c20 -37 36 -70 34 -72 -10 -9 -290 -165
-297 -165 -4 0 -31 41 -59 90 -29 50 -47 88 -40 84 7 -4 24 -15 38 -25 26 -18
27 -18 105 24 44 24 97 55 120 69 37 24 40 29 36 64 -4 36 -3 38 11 19 7 -11
31 -51 52 -88z m-3890 24 c-11 -5 -87 -20 -168 -35 l-148 -27 -297 31 c-163
17 -298 33 -301 36 -2 2 207 4 465 3 258 0 460 -4 449 -8z m665 -261 c0 -6
-14 -37 -30 -70 -20 -39 -36 -60 -48 -60 -35 1 -833 127 -839 134 -3 3 201 6
455 6 310 0 462 -3 462 -10z m-3185 -80 c98 -22 181 -42 183 -45 3 -3 -61 -5
-142 -5 l-147 0 -47 45 c-26 24 -42 45 -36 45 6 0 91 -18 189 -40z m1205 -36
c-557 -52 -551 -52 -770 -5 l-185 39 655 0 655 0 -355 -34z m890 -274 c-14 -5
-158 -25 -321 -45 l-296 -37 -309 36 c-170 20 -322 41 -339 45 -18 5 245 9
630 9 366 0 649 -3 635 -8z m3820 -117 c7 -65 17 -123 22 -129 11 -15 -12 -24
-63 -24 l-39 0 0 135 0 135 34 0 34 0 12 -117z m-4870 -83 c-14 -5 -159 -18
-322 -30 l-297 -22 -103 22 c-57 11 -112 25 -123 30 -12 5 162 9 425 9 257 -1
434 -4 420 -9z m1989 -20 c-14 -4 -93 -13 -175 -20 -124 -10 -196 -9 -433 4
-156 9 -286 18 -289 21 -3 3 204 5 459 4 255 0 452 -4 438 -9z"/>
<path d="M2795 7658 c-19 -26 -35 -52 -35 -57 0 -4 -12 -22 -27 -39 -16 -16
-42 -50 -60 -75 -38 -53 -44 -50 110 -68 104 -12 629 -8 659 5 14 7 6 24 -58
121 l-75 112 -167 6 c-120 3 -188 10 -240 24 l-73 20 -34 -49z"/>
<path d="M4626 6841 c-14 -15 -23 -18 -41 -11 -35 13 -49 -9 -40 -67 3 -27 18
-106 32 -177 25 -126 25 -130 9 -215 -47 -255 -47 -271 -7 -446 17 -77 34
-150 36 -162 5 -20 8 -21 35 -11 30 10 30 10 25 72 -21 238 -24 288 -19 301 8
21 24 8 24 -19 0 -13 16 -91 35 -172 20 -82 38 -159 40 -171 4 -19 8 -20 33
-11 l28 11 -14 151 c-15 167 -11 534 6 545 7 4 1 38 -14 91 -15 51 -28 123
-31 180 -6 111 -21 135 -59 99 -24 -23 -41 -19 -53 13 -7 19 -7 19 -25 -1z"/>
<path d="M5878 6472 c-9 -2 -20 -12 -23 -22 -4 -11 -12 -16 -24 -13 -22 5 -51
-21 -51 -47 0 -10 -9 -20 -20 -23 -21 -5 -28 -41 -10 -52 6 -3 10 -17 10 -29
0 -19 4 -22 25 -18 18 3 25 11 25 28 0 26 15 40 25 24 9 -14 35 6 35 26 0 8 9
14 20 14 11 0 20 4 20 10 0 5 13 2 29 -8 28 -16 31 -15 50 2 42 38 18 103 -34
94 -14 -3 -25 -2 -25 2 0 10 -30 17 -52 12z"/>
<path d="M1900 5595 c-7 -8 -20 -15 -29 -15 -25 0 -41 -20 -41 -51 0 -15 -7
-32 -15 -39 -17 -14 -20 -56 -5 -65 6 -4 7 -13 1 -23 -12 -25 -3 -40 35 -58
33 -16 37 -16 52 -1 14 15 14 18 -2 36 -19 20 -14 41 8 41 7 0 14 12 14 28 2
57 4 62 33 62 22 0 30 6 35 26 10 40 -10 74 -45 74 -16 0 -34 -7 -41 -15z"/>
<path d="M3330 5285 l0 -235 -565 0 c-367 0 -565 -3 -565 -10 0 -6 199 -11
563 -12 l562 -3 3 -32 c2 -18 7 -33 12 -33 5 0 10 15 12 33 2 27 8 33 31 35
33 4 26 22 -9 22 l-24 0 0 235 c0 150 -4 235 -10 235 -6 0 -10 -85 -10 -235z"/>
<path d="M1826 5245 c-22 -34 -20 -98 5 -148 31 -60 92 -148 124 -177 30 -28
70 -31 225 -18 122 11 144 19 148 51 l3 27 -78 0 c-43 0 -108 3 -145 6 l-66 7
-97 138 c-52 77 -97 139 -99 139 -2 0 -11 -11 -20 -25z"/>
<path d="M6387 5163 c-3 -5 -8 -30 -11 -58 -6 -42 -3 -59 19 -107 35 -76 47
-157 34 -219 -6 -27 -14 -51 -19 -54 -4 -3 -54 24 -111 60 -57 36 -119 70
-137 76 -33 11 -35 10 -115 -68 -45 -43 -103 -97 -129 -121 -27 -23 -48 -46
-49 -50 0 -4 -13 -17 -29 -30 l-29 -23 -16 31 c-26 50 -36 36 -33 -42 3 -84
16 -95 66 -53 16 14 33 25 36 25 3 0 6 -80 6 -178 l0 -178 -28 -33 -28 -34
-13 42 c-19 64 -36 47 -36 -35 0 -65 1 -69 24 -72 15 -3 33 6 52 24 l29 28 2
-295 3 -294 5 299 5 300 120 107 120 107 18 -65 c17 -64 17 -68 -3 -147 -30
-120 -49 -272 -57 -443 -6 -138 -5 -153 10 -153 15 0 17 15 17 123 0 161 23
347 60 488 l10 36 217 7 c120 4 220 9 222 12 2 2 1 7 -2 10 -8 8 -326 6 -384
-2 -24 -4 -43 -4 -43 -2 0 3 9 31 21 64 11 32 23 67 26 76 3 12 21 19 62 23
86 9 211 35 249 51 19 8 45 14 58 14 18 0 24 5 24 23 0 13 5 28 12 35 25 25
-3 22 -61 -8 -34 -17 -65 -29 -69 -26 -15 9 -86 169 -77 173 6 2 27 13 49 26
34 20 42 32 71 112 18 50 35 100 39 111 6 18 -4 29 -57 67 -71 51 -137 119
-137 142 0 8 9 24 20 35 26 26 59 14 119 -43 45 -44 42 -23 -4 26 -14 15 -23
31 -20 37 8 12 -27 30 -60 30 -14 0 -35 5 -45 10 -10 6 -21 7 -23 3z m-185
-500 c55 -54 68 -73 68 -98 0 -30 -3 -32 -77 -57 -66 -22 -79 -24 -86 -12 -14
25 -30 16 -24 -14 5 -24 -7 -45 -89 -148 -53 -65 -100 -123 -105 -128 -5 -6
-9 58 -9 165 l0 174 118 92 c64 51 121 93 127 93 5 0 40 -30 77 -67z"/>
<path d="M2500 4307 l0 -614 24 -22 c13 -13 34 -50 47 -82 12 -33 25 -57 29
-52 4 4 100 312 215 683 114 371 210 681 213 688 3 9 -53 12 -262 12 l-266 0
0 -613z"/>
<path d="M7710 4150 l0 -740 39 0 c39 0 43 4 233 219 171 195 217 240 218 214
0 -5 22 -32 48 -61 l47 -53 64 106 c35 58 68 104 72 103 5 -2 39 -52 77 -113
48 -77 74 -110 88 -110 13 0 31 22 59 72 22 40 43 73 46 73 4 0 14 -20 23 -45
10 -25 21 -45 24 -45 4 0 61 90 127 200 66 110 122 200 125 200 3 0 43 -88 89
-195 64 -150 88 -195 102 -195 12 0 36 34 81 115 35 63 66 115 69 115 3 0 25
-47 49 -105 26 -62 47 -100 51 -93 19 36 348 765 351 778 2 10 -7 16 -29 18
-18 2 -33 5 -33 8 0 2 21 33 47 69 l47 65 38 -66 c21 -36 38 -70 38 -75 0 -5
-11 -9 -25 -9 l-25 0 0 -595 0 -595 195 0 195 0 -2 738 -3 737 -1262 3 -1263
2 0 -740z m1600 -61 c0 -18 -113 -209 -120 -202 -16 19 -150 347 -146 359 2 6
30 53 62 104 l57 92 73 -173 c41 -96 74 -177 74 -180z m-687 -33 l48 -114 -36
-72 c-20 -40 -40 -69 -45 -64 -21 23 -120 186 -120 198 0 16 90 166 99 166 3
0 28 -52 54 -114z"/>
<path d="M2173 4618 c-13 -6 -23 -17 -23 -25 0 -10 -24 -13 -110 -13 -74 0
-110 -4 -110 -11 0 -6 -20 -142 -45 -303 -24 -160 -52 -349 -61 -421 -9 -71
-19 -132 -23 -135 -3 -3 -16 -17 -29 -32 -23 -26 -24 -27 -12 -145 6 -65 13
-128 16 -140 4 -21 1 -23 -36 -23 -48 0 -46 -7 -25 164 l15 118 -23 19 c-12
10 -25 18 -29 19 -5 0 -8 7 -8 15 0 20 -13 19 -58 -4 -56 -28 -67 -47 -102
-159 -21 -69 -42 -115 -61 -137 l-30 -34 36 -17 c20 -9 39 -23 42 -31 4 -11
10 -10 28 7 l22 20 -4 -412 c-3 -368 -15 -606 -39 -799 l-6 -47 38 -4 c22 -3
40 -4 42 -3 5 4 71 348 82 430 6 50 18 121 27 160 l16 69 19 -59 c10 -33 25
-96 32 -140 8 -44 31 -166 52 -270 l38 -191 38 1 c47 0 47 -20 7 306 -30 245
-31 269 -32 691 -1 240 1 439 5 443 3 3 33 -5 67 -19 33 -14 70 -26 81 -26 36
0 100 43 100 66 0 12 3 36 6 54 l7 32 -42 -21 -42 -22 -81 41 c-46 23 -95 40
-114 40 -19 0 -34 5 -34 11 0 8 13 10 38 6 l39 -5 43 207 c29 141 58 248 92
341 28 74 52 137 54 139 4 5 4 4 38 -120 18 -64 33 -164 46 -305 11 -115 22
-214 24 -221 5 -12 43 -7 64 10 8 6 12 44 12 125 0 111 1 114 18 99 10 -10 28
-17 40 -17 15 0 22 -6 22 -19 0 -11 9 -26 19 -33 11 -8 19 -23 18 -33 -1 -14
3 -19 16 -17 16 3 17 -2 12 -31 -6 -29 -4 -35 14 -40 15 -4 28 3 46 25 27 32
32 53 15 63 -8 5 -7 11 0 20 19 23 1 55 -43 74 -23 10 -53 32 -67 48 -34 41
-65 56 -88 44 -18 -10 -19 -2 -25 141 -4 83 -7 219 -7 302 -1 128 -3 148 -14
134 -16 -22 -26 -23 -26 -3 0 17 -6 18 -37 3z"/>
<path d="M1624 4079 c-42 -21 -67 -118 -31 -119 7 0 4 -5 -5 -11 -21 -12 -24
-67 -4 -75 7 -3 11 -15 9 -27 -5 -30 52 -71 79 -56 22 12 23 32 3 49 -16 14
-10 34 7 24 7 -5 9 2 6 20 -3 14 -1 29 3 32 5 3 9 18 9 35 0 18 5 29 14 29 30
0 27 60 -6 87 -21 18 -61 23 -84 12z"/>
<path d="M2363 3693 c-9 -3 -10 -10 -3 -24 7 -12 9 -63 6 -132 -3 -61 -8 -171
-11 -243 l-6 -132 31 -4 30 -5 0 56 c-1 31 -7 142 -14 247 -8 104 -12 202 -9
217 5 26 0 30 -24 20z"/>
<path d="M8410 3640 c-13 -8 -13 -13 2 -42 30 -59 31 -99 3 -173 -21 -56 -24
-70 -13 -80 33 -30 148 -115 155 -115 5 0 6 66 3 147 -4 130 -8 152 -27 183
-41 66 -92 99 -123 80z"/>
<path d="M8286 3284 c-42 -88 -42 -91 -18 -118 24 -27 70 -222 82 -351 5 -55
15 -156 22 -225 6 -69 12 -126 13 -127 0 -1 41 -9 90 -18 60 -10 99 -12 119
-6 17 5 57 14 89 21 35 7 57 17 57 25 0 19 -64 221 -107 338 -41 112 -61 140
-143 198 -64 45 -70 59 -70 163 0 56 -3 65 -31 92 -24 23 -29 35 -25 57 5 23
2 27 -18 27 -20 0 -30 -13 -60 -76z"/>
<path d="M8740 2935 c0 -10 10 -15 29 -15 16 0 34 -6 40 -14 9 -10 3 -19 -29
-40 l-40 -26 -10 24 c-5 13 -14 27 -19 31 -16 9 -23 -17 -13 -45 7 -19 5 -28
-11 -41 -21 -16 -20 -16 18 -118 30 -82 41 -101 54 -96 38 15 264 161 277 180
14 19 10 24 -63 92 -73 67 -79 71 -99 58 -19 -12 -24 -12 -39 5 -23 25 -95 28
-95 5z"/>
<path d="M7962 2398 c-7 -7 -12 -27 -12 -45 0 -27 5 -35 26 -43 37 -15 60 -12
106 10 23 11 43 20 45 20 2 0 8 -11 13 -25 5 -14 17 -25 26 -25 13 0 15 6 10
33 -3 17 -7 37 -8 44 -3 22 -51 35 -96 25 -32 -8 -42 -7 -46 4 -7 17 -48 18
-64 2z"/>
<path d="M8204 2191 c-23 -10 -44 -26 -47 -35 -11 -27 19 -92 101 -219 103
-159 137 -221 161 -290 19 -55 19 -58 1 -249 -28 -285 -43 -237 129 -429 l149
-167 -57 -15 c-31 -9 -100 -18 -155 -21 -87 -4 -130 -15 -115 -31 32 -31 926
-31 958 0 13 13 -21 25 -94 32 -69 7 -80 11 -83 28 -2 11 -10 27 -17 35 -7 8
-61 108 -120 223 -99 191 -142 298 -129 319 3 4 1 8 -3 8 -5 0 -14 13 -20 29
-6 16 -53 88 -104 160 -87 120 -96 130 -126 130 -39 1 -73 31 -73 64 0 16 -20
37 -72 77 -121 92 -296 240 -302 256 -10 26 12 54 42 54 21 0 45 -19 112 -91
148 -158 232 -245 224 -229 -4 8 -60 89 -125 180 -90 126 -127 170 -154 183
-42 20 -31 20 -81 -2z m511 -883 c60 -113 219 -335 335 -466 l29 -32 -36 -15
c-24 -10 -71 -15 -152 -15 l-116 0 -82 138 c-105 175 -146 265 -146 320 0 31
12 66 43 128 24 47 46 81 51 77 4 -4 37 -65 74 -135z"/>
<path d="M6342 1896 l-2 -264 25 -4 c24 -5 25 -3 25 41 0 25 -7 136 -15 247
-7 111 -11 211 -8 223 3 14 1 21 -8 21 -11 0 -14 -49 -17 -264z"/>
<path d="M8451 2081 c-11 -7 3 -32 63 -118 l77 -109 54 -2 c47 -2 56 1 66 20
l13 23 6 -25 c5 -20 8 -14 14 28 4 29 4 57 1 62 -10 16 -35 12 -35 -5 0 -9 -7
-32 -16 -53 -14 -34 -16 -36 -26 -17 -20 35 -148 184 -168 195 -23 12 -31 12
-49 1z"/>
<path d="M1643 2043 c9 -2 17 -9 17 -15 0 -6 -18 -8 -47 -4 -104 12 -378 18
-519 10 -144 -7 -147 -8 -89 -17 80 -13 1563 -15 1680 -2 l90 9 -80 6 c-44 3
-113 1 -153 -4 -58 -7 -75 -7 -82 4 -6 10 -34 11 -126 6 -66 -4 -141 -9 -168
-12 -42 -5 -48 -4 -43 10 6 14 -4 16 -76 15 -45 -1 -74 -3 -64 -6 9 -2 17 -9
17 -15 0 -13 -143 -1 -148 13 -2 5 -54 8 -115 8 -62 -1 -104 -3 -94 -6z"/>
<path d="M5160 645 c-12 -44 -40 -82 -40 -55 0 10 -45 12 -222 7 -245 -7 -311
-14 -305 -31 8 -23 111 -29 477 -29 363 1 471 7 471 28 0 6 -25 14 -56 19 -55
9 -55 10 -53 43 2 35 -16 64 -30 47 -5 -5 -14 -28 -21 -51 -10 -38 -31 -60
-31 -33 0 6 -3 9 -7 9 -5 -1 -39 -1 -76 0 l-68 1 6 34 c6 28 3 36 -13 45 -18
9 -21 6 -32 -34z"/>
</g>
</svg>
